<?xml version="1.0" encoding="UTF-8"?>
<svg xmlns="http://www.w3.org/2000/svg" xmlns:xlink="http://www.w3.org/1999/xlink" version="1.2" >
<font id="Blogger Sans Bold">
<font-face  font-family="Blogger Sans" units-per-em="1000" ascent="725" descent="-240" font-style="normal" font-weight="700" font-stretch="" cap-height="705" x-height="505" underline-position="-133" underline-thickness="20" />
<missing-glyph  horiz-adv-x="760" d="" />
<glyph glyph-name="NULL" d="" />
<glyph glyph-name="CR" unicode="&#xd;" horiz-adv-x="250" d="" />
<glyph glyph-name="space" unicode="&#x20;" horiz-adv-x="300" d="" />
<glyph glyph-name="exclam" unicode="&#x21;" horiz-adv-x="267" d="M73 228 L63 649 C63 683 94 714 133 714 C171 714 203 683 203 649 L193 228 C192 198 164 172 133 172 C99 172 73 197 73 228 L73 228 Z M218 69 C218 27 180 -9 135 -9 C88 -9 51 27 51 69 C51 111 88 146 135 146 C180 146 218 111 218 69 L218 69 Z " />
<glyph glyph-name="quotedbl" unicode="&#x22;" horiz-adv-x="383" d="M56 503 L76 712 C81 741 115 762 147 758 C181 753 204 723 196 695 C178 621 168 558 149 484 C143 462 118 448 93 451 C69 455 54 481 56 503 L56 503 Z M203 503 L223 712 C228 741 262 762 294 758 C328 753 351 723 343 695 C325 621 315 558 296 484 C290 462 265 448 240 451 C216 455 201 481 203 503 L203 503 Z " />
<glyph glyph-name="numbersign" unicode="&#x23;" horiz-adv-x="581" d="M131 500 L167 500 L207 664 C216 695 242 711 276 711 C307 708 337 682 336 650 C336 648 336 642 334 637 L301 500 L347 500 L387 664 C396 695 422 711 456 711 C490 708 518 681 516 648 C516 645 515 641 514 637 L481 500 C515 499 548 472 548 437 C548 401 518 373 479 373 L451 373 L441 335 L449 335 C484 335 518 307 518 271 C518 235 488 207 449 207 L411 207 L371 41 C362 10 336 -6 302 -6 C268 -4 241 23 241 56 L243 65 L277 207 L231 207 L191 41 C182 10 156 -6 122 -6 C90 -3 61 23 61 56 L63 65 L97 207 C60 209 32 236 32 271 C32 307 66 335 101 335 L127 335 L137 373 L131 373 C92 373 62 401 62 437 C62 473 96 500 131 500 L131 500 Z M271 373 L261 335 L307 335 L317 373 L271 373 L271 373 Z " />
<glyph glyph-name="dollar" unicode="&#x24;" horiz-adv-x="526" d="M237 -28 L237 21 C153 23 31 51 31 117 C31 144 52 180 101 180 C143 180 176 152 237 148 L237 297 C140 328 32 361 32 494 C32 608 111 676 237 683 L237 733 C237 747 249 759 263 759 C277 759 289 747 289 733 L289 683 C358 679 465 660 465 593 C465 559 436 531 396 531 C360 531 345 552 289 556 L289 416 C393 381 494 354 494 225 C494 105 407 35 289 23 L289 -28 C289 -42 278 -54 263 -54 C248 -54 237 -42 237 -28 L237 -28 Z M350 216 C350 252 327 264 309 272 L289 280 L289 151 C327 159 350 181 350 216 L350 216 Z M217 444 L237 435 L237 555 C202 550 175 535 175 499 C175 465 199 452 217 444 L217 444 Z " />
<glyph glyph-name="percent" unicode="&#x25;" horiz-adv-x="743" d="M557 -9 C452 -9 396 67 396 166 C396 264 453 341 557 341 C661 341 718 264 718 166 C718 67 662 -9 557 -9 L557 -9 Z M557 103 C586 103 600 126 600 168 C600 206 586 229 557 229 C528 229 514 206 514 168 C514 126 528 103 557 103 L557 103 Z M599 627 L262 30 C246 3 214 -7 181 0 C149 11 132 45 141 77 L146 88 L483 684 C500 711 531 721 562 712 C592 703 613 675 605 645 C604 639 601 631 599 627 L599 627 Z M186 477 C215 477 229 500 229 542 C229 580 215 603 186 603 C157 603 143 580 143 542 C143 500 157 477 186 477 L186 477 Z M186 365 C82 365 25 441 25 540 C25 639 81 715 186 715 C291 715 347 639 347 540 C347 441 290 365 186 365 L186 365 Z " />
<glyph glyph-name="ampersand" unicode="&#x26;" horiz-adv-x="682" d="M645 54 C645 22 618 -9 575 -9 C549 -9 535 2 519 20 L476 67 C425 24 362 -9 275 -9 C133 -9 37 78 37 193 C37 289 105 354 171 396 C129 446 105 493 105 544 C105 646 201 712 303 712 C411 712 497 638 497 569 C497 526 463 502 427 502 C356 502 377 592 308 592 C274 592 243 570 243 541 C243 511 274 476 304 445 L473 268 L510 338 C529 374 551 380 572 378 C606 375 639 351 639 315 C639 277 601 213 566 165 L629 95 C636 87 645 73 645 54 L645 54 Z M388 162 L256 302 C213 277 174 248 174 200 C174 156 207 112 271 112 C317 112 357 134 388 162 L388 162 Z " />
<glyph glyph-name="quotesingle" unicode="&#x27;" horiz-adv-x="263" d="M71 503 L91 712 C96 741 130 762 162 758 C196 753 219 723 211 695 C193 621 183 558 164 484 C158 462 133 448 108 451 C84 455 69 481 71 503 L71 503 Z " />
<glyph glyph-name="parenleft" unicode="&#x28;" horiz-adv-x="316" d="M194 231 C194 110 222 -11 286 -116 C293 -128 300 -139 300 -155 C300 -188 279 -221 232 -221 C208 -221 187 -211 173 -191 C90 -65 55 88 55 231 C55 374 90 527 173 653 C187 674 208 684 232 684 C279 684 300 651 300 617 C300 602 293 590 286 579 C222 474 194 353 194 231 L194 231 Z " />
<glyph glyph-name="parenright" unicode="&#x29;" horiz-adv-x="315" d="M121 231 C121 353 93 474 29 579 C22 590 15 602 15 617 C15 651 36 684 83 684 C107 684 128 674 142 653 C225 527 260 374 260 231 C260 88 225 -65 142 -191 C128 -211 107 -221 83 -221 C36 -221 15 -188 15 -155 C15 -139 22 -128 29 -116 C93 -11 121 110 121 231 L121 231 Z " />
<glyph glyph-name="asterisk" unicode="&#x2a;" horiz-adv-x="536" d="M320 586 L429 626 C432 627 435 627 439 627 C463 627 491 603 491 565 C491 537 469 515 441 508 L358 499 L414 435 C424 423 431 408 431 393 C431 366 398 335 364 335 C341 335 321 347 310 363 L268 433 L227 363 C216 347 196 335 173 335 C139 335 106 366 106 393 C106 408 113 423 123 435 L179 499 L96 508 C68 515 46 537 46 565 C46 603 74 627 98 627 C102 627 105 627 108 626 L216 586 L203 667 C198 697 222 730 268 730 C314 730 338 697 333 667 L320 586 L320 586 Z " />
<glyph glyph-name="plus" unicode="&#x2b;" horiz-adv-x="540" d="M201 161 L201 290 L81 290 C42 290 12 318 12 354 C12 390 46 417 81 417 L201 417 L201 546 C201 579 231 610 270 610 C309 610 339 582 339 546 L339 417 L459 417 C494 417 528 390 528 354 C528 318 498 290 459 290 L339 290 L339 161 C339 125 309 98 270 98 C231 98 201 129 201 161 L201 161 Z " />
<glyph glyph-name="comma" unicode="&#x2c;" horiz-adv-x="270" d="M83 -95 C86 -62 108 -50 116 -6 C78 2 51 33 51 69 C51 111 88 146 135 146 C179 146 218 114 218 65 C218 5 174 -140 124 -140 C108 -140 78 -134 83 -95 L83 -95 Z " />
<glyph glyph-name="hyphen" unicode="&#x2d;" horiz-adv-x="439" d="M410 300 C410 265 381 239 344 239 L95 239 C57 239 28 265 28 300 C28 333 57 361 95 361 L344 361 C381 361 410 333 410 300 L410 300 Z " />
<glyph glyph-name="period" unicode="&#x2e;" horiz-adv-x="270" d="M218 69 C218 27 180 -9 135 -9 C88 -9 51 27 51 69 C51 111 88 146 135 146 C180 146 218 111 218 69 L218 69 Z " />
<glyph glyph-name="slash" unicode="&#x2f;" horiz-adv-x="360" d="M370 672 L114 -2 C102 -33 70 -49 38 -44 C2 -37 -27 -4 -16 28 L245 716 C257 747 288 763 320 757 C354 751 378 718 375 687 C374 681 372 676 370 672 L370 672 Z " />
<glyph glyph-name="zero" unicode="0" horiz-adv-x="540" d="M270 601 C204 601 178 556 178 492 L178 210 C178 153 210 114 270 114 C330 114 362 153 362 210 L362 492 C362 556 336 601 270 601 L270 601 Z M270 723 C431 723 501 617 501 485 L501 210 C501 88 419 -9 270 -9 C121 -9 39 88 39 210 L39 485 C39 617 109 723 270 723 L270 723 Z " />
<glyph glyph-name="one" unicode="1" horiz-adv-x="540" d="M261 56 L261 542 L182 494 C163 482 146 473 123 473 C93 473 59 488 59 531 C59 557 71 576 90 587 L288 703 C302 711 313 714 327 714 C369 714 401 685 401 647 L401 56 C401 22 369 -8 331 -8 C292 -8 261 22 261 56 L261 56 Z " />
<glyph glyph-name="two" unicode="2" horiz-adv-x="540" d="M504 63 C504 28 474 0 435 0 L106 0 C64 0 35 29 35 66 C35 80 36 98 43 113 C83 201 156 265 227 329 C282 379 362 436 362 510 C362 561 330 601 268 601 C234 601 208 595 184 585 C162 576 142 558 113 558 C79 558 45 582 45 619 C45 692 188 723 269 723 C415 723 500 633 500 520 C500 435 467 379 421 331 C354 261 266 199 212 125 L435 125 C474 125 504 98 504 63 L504 63 Z " />
<glyph glyph-name="three" unicode="3" horiz-adv-x="540" d="M460 593 L324 431 C428 412 498 339 498 231 C498 123 423 -8 249 -8 C202 -8 42 5 42 88 C42 121 71 150 108 150 C150 150 176 113 244 113 C331 113 359 173 359 225 C359 291 315 317 245 317 C219 317 219 306 194 306 C158 306 129 335 129 372 C129 382 131 390 136 396 L285 577 L124 577 C85 577 55 605 55 640 C55 676 85 706 124 706 L403 706 C446 706 476 677 476 638 C476 621 470 605 460 593 L460 593 Z " />
<glyph glyph-name="four" unicode="4" horiz-adv-x="540" d="M454 137 L454 55 C454 19 424 -8 385 -8 C346 -8 316 19 316 55 L316 137 L96 137 C54 137 25 169 25 205 C25 209 29 227 35 240 L227 683 C237 707 263 722 289 722 C323 722 358 692 358 657 C358 651 358 644 354 635 C296 501 249 396 191 262 L316 262 L316 415 C316 451 346 478 385 478 C422 478 454 451 454 415 L454 262 L467 262 C505 262 534 233 534 200 C534 165 505 137 467 137 L454 137 L454 137 Z " />
<glyph glyph-name="five" unicode="5" horiz-adv-x="540" d="M498 235 C498 119 430 -8 266 -8 C219 -8 42 5 42 88 C42 121 71 150 109 150 C148 150 176 113 243 113 C332 113 359 172 359 231 C359 305 317 339 263 339 C241 339 225 335 208 326 C208 326 168 295 136 295 C96 295 65 323 66 363 L76 639 C77 681 115 706 152 706 L393 706 C429 706 469 689 469 643 C469 598 429 582 393 582 L206 582 L200 452 C220 458 243 460 265 460 C402 460 498 376 498 235 L498 235 Z " />
<glyph glyph-name="six" unicode="6" horiz-adv-x="540" d="M294 593 C199 595 181 522 174 428 C212 451 245 458 282 458 C404 458 509 382 509 230 C509 100 431 -9 270 -9 C85 -9 31 136 31 335 C31 578 112 714 282 714 C323 714 457 706 465 636 C469 605 445 574 403 574 C370 574 341 592 294 593 L294 593 Z M171 299 L171 287 C171 199 189 118 275 118 C346 118 370 171 370 229 C370 300 333 333 272 333 C233 333 194 320 171 299 L171 299 Z " />
<glyph glyph-name="seven" unicode="7" horiz-adv-x="540" d="M500 639 C500 632 499 619 494 610 L245 32 C237 14 221 -8 183 -8 C146 -8 111 13 111 51 C111 57 112 69 116 78 L335 578 L108 578 C72 578 40 606 40 642 C40 677 70 706 108 706 L428 706 C467 706 500 677 500 639 L500 639 Z " />
<glyph glyph-name="eight" unicode="8" horiz-adv-x="540" d="M521 207 C521 83 418 -9 270 -9 C125 -9 18 80 18 203 C18 280 60 335 117 372 C71 407 43 455 43 518 C43 640 146 713 269 713 C396 713 495 635 495 522 C495 464 469 416 421 379 C479 341 521 286 521 207 L521 207 Z M358 519 C358 562 319 593 270 593 C220 593 181 562 181 519 C181 473 223 443 272 433 C321 444 358 476 358 519 L358 519 Z M382 207 C382 263 328 298 267 311 C205 298 157 261 157 207 C157 153 206 113 270 113 C335 113 382 155 382 207 L382 207 Z " />
<glyph glyph-name="nine" unicode="9" horiz-adv-x="540" d="M246 112 C341 110 359 183 366 277 C328 254 295 247 258 247 C136 247 31 323 31 475 C31 605 109 714 270 714 C455 714 509 569 509 370 C509 127 428 -9 258 -9 C217 -9 83 -1 75 69 C71 100 95 131 137 131 C170 131 199 113 246 112 L246 112 Z M369 406 L369 418 C369 506 351 587 265 587 C194 587 170 534 170 476 C170 405 207 372 268 372 C307 372 346 385 369 406 L369 406 Z " />
<glyph glyph-name="colon" unicode="&#x3a;" horiz-adv-x="270" d="M218 69 C218 27 180 -9 135 -9 C88 -9 51 27 51 69 C51 111 88 146 135 146 C180 146 218 111 218 69 L218 69 Z M218 369 C218 327 180 291 135 291 C88 291 51 327 51 369 C51 411 88 446 135 446 C180 446 218 411 218 369 L218 369 Z " />
<glyph glyph-name="semicolon" unicode="&#x3b;" horiz-adv-x="270" d="M83 -95 C86 -62 108 -50 116 -6 C78 2 51 33 51 69 C51 111 88 146 135 146 C179 146 218 114 218 65 C218 5 174 -140 124 -140 C108 -140 78 -134 83 -95 L83 -95 Z M218 369 C218 327 180 291 135 291 C88 291 51 327 51 369 C51 411 88 446 135 446 C180 446 218 411 218 369 L218 369 Z " />
<glyph glyph-name="less" unicode="&#x3c;" horiz-adv-x="665" d="M258 352 L563 211 C589 199 607 175 607 153 C607 117 580 88 539 88 C535 88 517 90 507 95 L109 286 C81 300 58 313 58 352 C58 392 80 404 108 418 L507 610 C516 615 533 617 539 617 C580 617 607 587 607 552 C607 529 588 505 563 493 L258 352 L258 352 Z " />
<glyph glyph-name="equal" unicode="&#x3d;" horiz-adv-x="540" d="M121 325 L419 325 C454 325 488 297 488 261 C488 225 458 197 419 197 L121 197 C82 197 52 225 52 261 C52 297 86 325 121 325 L121 325 Z M121 510 L419 510 C454 510 488 483 488 447 C488 411 458 383 419 383 L121 383 C82 383 52 411 52 447 C52 483 86 510 121 510 L121 510 Z " />
<glyph glyph-name="greater" unicode="&#x3e;" horiz-adv-x="665" d="M407 352 L102 493 C77 505 58 529 58 552 C58 587 85 617 126 617 C132 617 149 615 158 610 L557 418 C585 404 607 392 607 352 C607 313 584 300 556 286 L158 95 C148 90 130 88 126 88 C85 88 58 117 58 153 C58 175 76 199 102 211 L407 352 L407 352 Z " />
<glyph glyph-name="question" unicode="&#x3f;" horiz-adv-x="502" d="M325 264 C319 258 317 242 317 233 C315 194 282 169 247 169 C216 169 177 189 177 239 C177 290 219 341 255 378 C284 408 334 456 334 516 C334 563 303 603 235 603 C213 603 181 599 156 587 C135 577 121 560 94 560 C62 560 27 584 27 621 C27 694 162 725 245 725 C382 725 472 641 472 515 C472 436 436 381 393 334 C360 298 343 283 325 264 L325 264 Z M330 68 C330 26 292 -10 246 -10 C200 -10 163 26 163 68 C163 110 200 145 246 145 C292 145 330 110 330 68 L330 68 Z " />
<glyph glyph-name="at" unicode="&#x40;" horiz-adv-x="784" d="M543 15 C507 0 439 -12 382 -12 C177 -12 54 121 54 316 C54 507 171 640 389 640 C613 640 730 498 730 326 C730 227 689 156 582 156 C533 156 503 171 480 195 C448 159 425 146 387 146 C291 146 224 217 224 321 C224 415 279 486 391 486 C515 486 540 399 550 323 C555 290 557 257 582 257 C609 257 617 284 617 320 C617 445 540 544 391 544 C245 544 167 449 167 316 C167 185 242 95 400 95 C446 95 472 104 515 120 C548 128 584 124 598 95 C615 52 575 27 543 15 L543 15 Z M388 246 C405 246 420 254 438 266 C430 312 434 290 432 320 C430 349 428 384 391 384 C356 384 342 357 342 315 C342 270 358 246 388 246 L388 246 Z " />
<glyph glyph-name="A" unicode="A" horiz-adv-x="589" d="M186 139 L153 38 C143 9 111 -9 87 -9 C48 -9 15 17 15 55 C15 60 16 72 18 77 L213 646 C226 685 246 714 294 714 C342 714 362 686 376 646 L571 77 C573 72 574 60 574 55 C574 17 543 -9 502 -9 C476 -9 444 10 434 38 L399 139 L186 139 L186 139 Z M363 253 L312 424 C303 453 298 491 294 522 C290 491 285 453 276 424 L223 253 L363 253 L363 253 Z " />
<glyph glyph-name="B" unicode="B" horiz-adv-x="582" d="M203 429 L318 429 C353 429 395 453 395 507 C395 545 377 579 325 579 L203 579 L203 429 L203 429 Z M321 301 L203 301 L203 127 L315 127 C381 127 414 160 414 212 C414 269 374 301 321 301 L321 301 Z M306 0 L141 0 C97 0 63 33 63 72 L63 633 C63 674 99 705 141 705 L310 705 C460 705 535 609 535 509 C535 439 490 396 430 367 C492 342 554 297 554 210 C554 93 460 0 306 0 L306 0 Z " />
<glyph glyph-name="C" unicode="C" horiz-adv-x="522" d="M175 452 L175 254 C175 168 205 114 295 114 C327 114 353 122 378 138 L388 144 C401 152 408 159 431 159 C469 159 497 131 497 99 C497 41 396 -8 290 -8 C115 -8 35 96 35 254 L35 452 C35 610 115 714 290 714 C396 714 497 665 497 607 C497 575 469 547 431 547 C408 547 401 554 388 562 L378 568 C353 584 327 592 295 592 C205 592 175 538 175 452 L175 452 Z " />
<glyph glyph-name="D" unicode="D" horiz-adv-x="594" d="M558 271 C558 130 481 0 254 0 L141 0 C99 0 63 33 63 72 L63 634 C63 673 99 706 141 706 L254 706 C480 706 558 582 558 443 L558 271 L558 271 Z M418 271 L418 443 C418 519 379 579 271 579 L203 579 L203 127 L271 127 C381 127 418 192 418 271 L418 271 Z " />
<glyph glyph-name="E" unicode="E" horiz-adv-x="514" d="M491 65 C491 29 459 0 421 0 L156 0 C107 0 63 17 63 71 L63 634 C63 669 96 705 140 705 L411 705 C449 705 481 675 481 640 C481 604 449 578 411 578 L203 578 L203 417 L392 417 C427 417 461 390 461 354 C461 318 431 290 392 290 L203 290 L203 127 L421 127 C458 127 491 99 491 65 L491 65 Z " />
<glyph glyph-name="F" unicode="F" horiz-adv-x="514" d="M203 290 L203 55 C203 21 171 -9 133 -9 C94 -9 63 21 63 55 L63 635 C63 670 96 706 140 706 L411 706 C449 706 481 676 481 641 C481 605 449 579 411 579 L203 579 L203 417 L392 417 C427 417 461 390 461 354 C461 318 431 290 392 290 L203 290 L203 290 Z " />
<glyph glyph-name="G" unicode="G" horiz-adv-x="560" d="M175 452 L175 254 C175 168 205 114 295 114 C330 114 355 123 378 135 L378 291 L326 291 C293 291 263 319 263 354 C263 389 293 417 326 417 L435 417 C481 417 517 395 517 347 L517 126 C517 32 393 -8 290 -8 C115 -8 35 96 35 254 L35 452 C35 610 115 714 290 714 C396 714 497 665 497 607 C497 575 469 547 431 547 C408 547 401 554 388 562 L378 568 C353 583 327 592 295 592 C205 592 175 538 175 452 L175 452 Z " />
<glyph glyph-name="H" unicode="H" horiz-adv-x="620" d="M556 56 C556 21 524 -9 486 -9 C449 -9 416 21 416 56 L416 289 L203 289 L203 56 C203 21 171 -9 133 -9 C94 -9 63 21 63 56 L63 650 C63 684 94 714 133 714 C171 714 203 684 203 650 L203 417 L416 417 L416 650 C416 684 449 714 486 714 C523 714 556 684 556 650 L556 56 L556 56 Z " />
<glyph glyph-name="I" unicode="I" horiz-adv-x="267" d="M63 55 L63 650 C63 684 94 714 133 714 C171 714 203 684 203 650 L203 55 C203 21 171 -9 133 -9 C94 -9 63 21 63 55 L63 55 Z " />
<glyph glyph-name="J" unicode="J" horiz-adv-x="425" d="M362 650 L362 235 C362 83 308 -9 130 -9 C92 -9 15 -5 15 60 C15 100 52 123 80 123 C103 123 116 117 141 117 C208 117 222 162 222 235 L222 650 C222 685 252 714 292 714 C329 714 362 684 362 650 L362 650 Z " />
<glyph glyph-name="K" unicode="K" horiz-adv-x="556" d="M510 607 L311 382 L530 92 C540 79 541 68 541 58 C541 29 516 -9 473 -9 C450 -9 430 0 415 20 L221 280 L203 260 L203 56 C203 21 171 -9 133 -9 C94 -9 63 21 63 56 L63 650 C63 684 94 714 133 714 C171 714 203 684 203 650 L203 460 L401 685 C413 700 436 714 458 714 C488 714 527 685 527 650 C527 635 526 625 510 607 L510 607 Z " />
<glyph glyph-name="L" unicode="L" horiz-adv-x="503" d="M488 64 C488 28 458 0 420 0 L138 0 C98 0 63 30 63 69 L63 650 C63 684 94 714 133 714 C171 714 203 684 203 650 L203 126 L420 126 C456 126 488 99 488 64 L488 64 Z " />
<glyph glyph-name="M" unicode="M" horiz-adv-x="759" d="M698 648 L698 54 C698 20 666 -9 629 -9 C591 -9 558 20 558 54 L558 398 L444 174 C431 148 406 136 378 136 C351 136 326 148 313 174 L199 398 L199 54 C199 20 166 -9 127 -9 C89 -9 59 20 59 54 L59 648 C59 686 90 714 131 714 C163 714 188 701 201 675 L379 322 L557 676 C571 705 598 714 626 714 C667 714 698 684 698 648 L698 648 Z " />
<glyph glyph-name="N" unicode="N" horiz-adv-x="640" d="M502 -9 C476 -9 448 5 435 26 L203 430 L203 56 C203 21 170 -9 132 -9 C93 -9 63 21 63 56 L63 646 C63 685 94 714 136 714 C163 714 190 699 204 677 C293 523 344 432 436 271 L436 649 C436 684 469 714 507 714 C546 714 576 684 576 649 L576 59 C576 22 546 -9 502 -9 L502 -9 Z " />
<glyph glyph-name="O" unicode="O" horiz-adv-x="610" d="M305 -9 C132 -9 45 108 45 254 L45 452 C45 594 118 714 305 714 C492 714 565 594 565 452 L565 254 C565 108 478 -9 305 -9 L305 -9 Z M305 587 C217 587 185 533 185 452 L185 254 C185 174 223 118 305 118 C387 118 425 174 425 254 L425 452 C425 533 393 587 305 587 L305 587 Z " />
<glyph glyph-name="P" unicode="P" horiz-adv-x="570" d="M288 240 L203 240 L203 57 C203 22 171 -9 133 -9 C96 -9 63 21 63 57 L63 633 C63 672 99 705 141 705 L288 705 C476 705 543 593 543 471 C543 323 443 240 288 240 L288 240 Z M203 578 L203 367 L288 367 C363 367 403 400 403 472 C403 524 382 578 288 578 L203 578 L203 578 Z " />
<glyph glyph-name="Q" unicode="Q" horiz-adv-x="610" d="M413 -173 C321 -173 262 -106 244 -4 C111 21 45 126 45 254 L45 452 C45 594 118 714 305 714 C492 714 565 594 565 452 L565 254 C565 132 504 29 382 0 C390 -36 404 -51 426 -51 L455 -51 C496 -51 524 -74 524 -112 C524 -171 476 -173 413 -173 L413 -173 Z M305 587 C217 587 185 533 185 452 L185 254 C185 174 223 118 305 118 C387 118 425 174 425 254 L425 452 C425 533 393 587 305 587 L305 587 Z " />
<glyph glyph-name="R" unicode="R" horiz-adv-x="615" d="M561 493 C561 394 508 329 422 301 L559 95 C592 45 543 -8 498 -8 C473 -8 452 3 439 23 L271 286 L203 286 L203 57 C203 22 170 -9 132 -9 C95 -9 63 21 63 57 L63 633 C63 672 98 705 139 705 L313 705 C501 705 561 598 561 493 L561 493 Z M421 493 C421 535 400 578 309 578 L203 578 L203 412 L315 412 C384 412 421 441 421 493 L421 493 Z " />
<glyph glyph-name="S" unicode="S" horiz-adv-x="526" d="M350 204 C350 249 327 264 309 272 C288 281 263 290 236 299 C138 329 32 362 32 507 C32 636 122 714 264 714 C323 714 465 699 465 624 C465 591 439 561 395 561 C377 561 363 567 346 572 C327 579 305 587 270 587 C221 587 175 570 175 511 C175 467 200 452 217 444 C243 431 267 423 289 417 C387 386 494 352 494 210 C494 71 388 -9 245 -9 C171 -9 31 17 31 87 C31 119 60 150 97 150 C112 150 128 145 147 138 C171 130 203 118 246 118 C315 118 350 149 350 204 L350 204 Z " />
<glyph glyph-name="T" unicode="T" horiz-adv-x="523" d="M191 55 L191 578 L85 578 C45 578 15 607 15 641 C15 669 46 705 85 705 L437 705 C473 705 508 677 508 641 C508 607 475 578 437 578 L331 578 L331 55 C331 21 299 -9 261 -9 C222 -9 191 21 191 55 L191 55 Z " />
<glyph glyph-name="U" unicode="U" horiz-adv-x="612" d="M557 240 C557 96 464 -9 306 -9 C145 -9 55 97 55 240 L55 648 C55 686 86 714 126 714 C163 714 195 684 195 648 L195 240 C195 168 230 118 306 118 C381 118 416 169 416 240 L416 648 C416 683 446 714 485 714 C526 714 557 683 557 648 L557 240 L557 240 Z " />
<glyph glyph-name="V" unicode="V" horiz-adv-x="583" d="M309 281 L431 667 C441 695 473 714 499 714 C540 714 571 688 571 650 C571 645 570 633 568 628 L373 59 C359 19 339 -9 291 -9 C243 -9 223 20 210 59 L15 628 C13 633 12 645 12 650 C12 688 45 714 84 714 C108 714 140 696 150 667 L273 281 C282 252 287 214 291 183 C295 214 300 252 309 281 L309 281 Z " />
<glyph glyph-name="W" unicode="W" horiz-adv-x="830" d="M495 640 L553 405 C567 350 572 294 582 238 C592 294 598 350 612 405 L676 660 C684 692 709 711 740 711 C774 711 818 692 818 650 C818 648 818 643 816 637 L666 54 C656 21 632 -9 584 -9 C536 -9 511 22 501 55 L442 300 C429 352 424 407 415 460 C406 407 401 352 388 300 L328 53 C319 24 299 -9 246 -9 C205 -9 172 24 163 54 L16 632 C14 642 12 651 12 651 C12 688 52 711 87 711 C116 711 144 696 152 663 L218 405 C232 351 237 294 247 239 C257 292 262 352 275 405 L334 640 C346 687 360 714 415 714 C466 714 484 685 495 640 L495 640 Z " />
<glyph glyph-name="X" unicode="X" horiz-adv-x="554" d="M277 251 L144 31 L144 32 C133 14 115 -9 80 -9 C44 -9 12 23 12 56 C12 67 17 82 22 90 L195 366 L36 617 C31 627 28 640 28 651 C28 683 59 714 95 714 C126 714 150 692 164 668 L277 482 L390 668 C403 687 425 714 460 714 C495 714 526 685 526 650 C526 640 522 628 517 617 L359 366 L532 90 C537 82 542 67 542 56 C542 23 509 -9 475 -9 C440 -9 422 12 410 31 L277 251 L277 251 Z " />
<glyph glyph-name="Y" unicode="Y" horiz-adv-x="530" d="M265 -9 C225 -9 194 21 194 57 L194 276 L18 620 C15 627 12 639 12 649 C12 684 47 714 83 714 C104 714 128 705 140 684 L265 436 L389 684 C401 705 425 714 447 714 C483 714 518 684 518 649 C518 640 514 629 511 620 L336 276 L336 57 C336 22 305 -9 265 -9 L265 -9 Z " />
<glyph glyph-name="Z" unicode="Z" horiz-adv-x="524" d="M504 65 C504 29 472 0 434 0 L91 0 C50 0 19 31 19 68 C19 81 28 102 33 112 C131 274 217 412 316 576 L90 576 C51 576 21 604 21 640 C21 675 51 705 90 705 L429 705 C471 705 502 675 502 638 C502 620 495 606 488 595 L203 129 L434 129 C471 129 504 101 504 65 L504 65 Z " />
<glyph glyph-name="bracketleft" unicode="&#x5b;" horiz-adv-x="334" d="M318 -49 C318 -97 275 -112 237 -112 L135 -112 C99 -112 67 -82 67 -49 L67 731 C67 777 105 793 149 793 L251 793 C284 793 318 765 318 732 C318 684 276 669 238 669 L206 669 L206 13 L238 13 C280 13 318 -2 318 -49 L318 -49 Z " />
<glyph glyph-name="backslash" unicode="&#x5c;" horiz-adv-x="360" d="M237 -2 L-19 672 C-21 676 -23 681 -24 687 C-27 718 -3 751 31 757 C63 763 94 747 106 716 L367 28 C378 -4 349 -37 313 -44 C281 -49 249 -33 237 -2 L237 -2 Z " />
<glyph glyph-name="bracketright" unicode="&#x5d;" horiz-adv-x="334" d="M266 -49 C266 -84 236 -112 198 -112 L96 -112 C57 -112 14 -97 14 -49 C14 0 55 13 95 13 L127 13 L127 669 L95 669 C57 669 14 682 14 732 C14 779 57 793 96 793 L198 793 C232 793 266 762 266 731 L266 -49 L266 -49 Z " />
<glyph glyph-name="asciicircum" unicode="&#x5e;" horiz-adv-x="366" d="M182 583 L102 491 C92 478 70 467 52 467 C16 467 -8 489 -8 522 C-7 539 3 557 18 572 L128 697 C140 711 158 722 182 722 C206 722 224 711 236 697 C273 656 309 613 346 572 C361 557 371 539 372 522 C372 489 348 467 312 467 C293 467 271 477 262 491 C228 530 217 545 182 583 L182 583 Z " />
<glyph glyph-name="underscore" unicode="&#x5f;" horiz-adv-x="640" d="M25 -93 L615 -93 C650 -93 684 -121 684 -157 C684 -193 654 -220 615 -220 L25 -220 C-14 -220 -44 -193 -44 -157 C-44 -121 -10 -93 25 -93 L25 -93 Z " />
<glyph glyph-name="grave" unicode="&#x60;" horiz-adv-x="237" d="M149 710 L230 631 C238 624 238 616 238 606 C238 577 215 557 187 557 C165 557 157 565 142 578 L60 660 C53 670 51 680 51 688 C51 716 77 737 100 737 C122 737 129 730 141 718 L149 710 L149 710 Z " />
<glyph glyph-name="a" unicode="a" horiz-adv-x="522" d="M450 306 L450 120 C450 90 465 93 482 86 C497 80 505 69 505 48 C505 16 486 -4 433 -4 C396 -4 371 6 348 38 C311 8 269 -7 213 -7 C97 -7 35 56 35 151 L35 154 C35 256 101 307 233 307 C260 307 286 305 312 297 L312 329 C312 376 287 398 236 398 C208 398 191 391 171 382 C163 379 152 372 133 372 C91 372 75 405 75 430 C75 489 163 513 246 513 C391 513 450 441 450 306 L450 306 Z M241 210 C183 210 172 183 172 153 L172 150 C172 117 191 104 234 104 C260 104 286 110 312 130 L312 202 C287 207 261 210 241 210 L241 210 Z " />
<glyph glyph-name="b" unicode="b" horiz-adv-x="535" d="M202 381 L202 161 C202 124 231 101 278 101 C328 101 352 127 352 169 L352 352 C352 388 332 409 283 409 C251 409 223 400 202 381 L202 381 Z M64 161 L64 661 C64 693 89 722 133 722 C177 722 202 693 202 661 L202 485 C234 503 264 513 311 513 C438 513 490 441 490 347 L490 179 C490 74 419 -7 277 -7 C142 -7 64 67 64 161 L64 161 Z " />
<glyph glyph-name="c" unicode="c" horiz-adv-x="443" d="M45 184 L45 319 C45 426 109 510 252 510 C311 510 423 496 423 423 C423 399 411 372 361 372 C351 372 342 373 328 378 C307 386 291 395 260 395 C205 395 183 366 183 319 L183 184 C183 137 205 108 260 108 C291 108 308 117 328 125 C338 129 345 131 359 131 C411 131 423 103 423 80 C423 8 311 -7 251 -7 C110 -7 45 77 45 184 L45 184 Z " />
<glyph glyph-name="d" unicode="d" horiz-adv-x="538" d="M235 509 C266 509 287 505 323 490 L323 661 C323 695 348 722 392 722 C436 722 461 694 461 661 L461 129 C461 114 467 107 480 94 C490 84 494 74 494 60 C494 20 460 -1 429 -1 C404 -1 384 15 369 37 C320 10 279 -7 228 -7 C112 -7 45 72 45 189 L45 302 C45 421 92 509 235 509 L235 509 Z M323 149 L323 382 C292 391 267 395 250 395 C201 395 183 364 183 302 L183 189 C183 137 205 109 248 109 C269 109 294 116 325 130 C324 137 323 143 323 149 L323 149 Z " />
<glyph glyph-name="e" unicode="e" horiz-adv-x="485" d="M260 191 C234 191 212 193 183 197 L183 164 C183 130 209 108 263 108 C295 108 321 116 353 130 C357 132 366 136 383 136 C431 136 445 104 445 81 C445 11 317 -7 253 -7 C121 -7 45 69 45 168 L45 335 C45 436 119 513 258 513 C389 513 454 444 454 343 C454 247 395 191 260 191 L260 191 Z M317 350 C317 390 296 406 257 406 C209 406 183 381 183 341 L183 298 C215 295 245 294 255 294 C293 294 317 307 317 350 L317 350 Z " />
<glyph glyph-name="f" unicode="f" horiz-adv-x="369" d="M64 56 L64 527 C64 659 157 720 268 722 C294 722 390 721 390 655 C390 617 358 595 322 595 C303 595 282 601 263 601 C221 601 202 570 202 534 L202 485 L276 485 C313 485 342 459 342 425 C342 391 313 366 276 366 L202 366 L202 56 C202 22 177 -4 133 -4 C89 -4 64 22 64 56 L64 56 Z " />
<glyph glyph-name="g" unicode="g" horiz-adv-x="533" d="M35 -80 C35 -41 52 -8 99 30 C83 58 78 91 78 112 C78 135 85 159 106 185 C63 221 42 268 42 323 C42 431 114 513 242 513 C293 513 333 500 376 479 C403 516 436 534 464 534 C498 534 529 509 529 476 C529 459 520 446 513 440 C478 409 468 400 468 372 L468 316 C468 213 399 134 253 134 C237 134 216 135 198 139 C193 126 192 123 192 116 C192 88 208 84 220 84 L262 84 C392 84 492 36 492 -70 C492 -176 393 -242 257 -242 C126 -242 35 -180 35 -80 L35 -80 Z M330 385 C304 396 282 402 259 402 C208 402 180 373 180 321 C180 273 203 242 257 242 C307 242 330 270 330 315 L330 385 L330 385 Z M264 -29 L191 -28 C179 -43 173 -54 173 -70 C173 -107 201 -129 259 -129 C316 -129 354 -108 354 -73 C354 -43 326 -29 264 -29 L264 -29 Z " />
<glyph glyph-name="h" unicode="h" horiz-adv-x="547" d="M201 371 L201 55 C201 20 172 -7 133 -7 C94 -7 64 20 64 55 L64 665 C64 697 93 727 132 727 C171 727 201 700 201 665 L201 486 C229 503 262 513 296 513 C424 513 482 441 482 338 L482 55 C482 20 450 -7 413 -7 C374 -7 344 20 344 55 L344 347 C344 385 328 404 287 404 C259 404 224 393 201 371 L201 371 Z " />
<glyph glyph-name="i" unicode="i" horiz-adv-x="285" d="M220 644 C220 605 186 574 142 574 C98 574 64 606 64 644 C64 683 98 714 142 714 C186 714 220 682 220 644 L220 644 Z M211 449 L211 55 C211 20 181 -7 142 -7 C103 -7 73 20 73 55 L73 449 C73 482 103 510 142 510 C181 510 211 482 211 449 L211 449 Z " />
<glyph glyph-name="j" unicode="j" horiz-adv-x="285" d="M220 644 C220 605 186 574 142 574 C98 574 64 606 64 644 C64 683 98 714 142 714 C186 714 220 682 220 644 L220 644 Z M211 449 L211 -7 C211 -122 138 -201 21 -201 C-10 -201 -34 -184 -41 -159 C-54 -114 -16 -92 11 -87 C48 -80 73 -58 73 -10 L73 449 C73 482 103 510 142 510 C181 510 211 482 211 449 L211 449 Z " />
<glyph glyph-name="k" unicode="k" horiz-adv-x="487" d="M202 343 L340 492 C352 504 371 509 387 509 C425 509 454 484 454 450 C454 434 448 420 435 408 L436 408 L314 279 L461 85 C468 75 472 59 472 48 C470 14 441 -7 405 -7 C380 -7 361 3 348 21 L213 204 L202 194 L202 55 C202 20 172 -7 133 -7 C94 -7 64 20 64 55 L64 660 C64 695 94 722 133 722 C172 722 202 695 202 660 L202 343 L202 343 Z " />
<glyph glyph-name="l" unicode="l" horiz-adv-x="268" d="M160 -7 C120 -7 64 6 64 111 L64 660 C64 693 94 722 133 722 C172 722 202 695 202 660 L202 123 C202 102 203 97 217 82 C227 71 235 66 235 47 C235 11 207 -7 160 -7 L160 -7 Z " />
<glyph glyph-name="m" unicode="m" horiz-adv-x="818" d="M615 55 L615 332 C615 367 594 395 557 395 C531 395 504 382 477 360 C478 351 479 343 479 334 L479 55 C479 21 456 -6 410 -6 C364 -6 341 21 341 55 L341 314 C341 360 333 395 289 395 C264 395 234 384 204 369 C205 366 205 361 205 358 L205 55 C205 21 182 -6 136 -6 C90 -6 67 21 67 55 L67 358 C67 391 63 394 59 400 C45 419 42 427 42 438 C42 474 73 497 107 497 C130 497 147 486 160 469 C205 497 252 513 295 513 C337 513 375 498 411 469 C465 498 508 513 562 513 C680 513 753 441 753 334 L753 55 C753 21 730 -6 684 -6 C638 -6 615 21 615 55 L615 55 Z " />
<glyph glyph-name="n" unicode="n" horiz-adv-x="549" d="M205 357 L205 55 C205 21 182 -6 136 -6 C90 -6 67 21 67 55 L67 358 C67 391 63 394 59 400 C45 419 42 426 42 439 C42 472 71 497 109 497 C130 497 148 486 162 468 C207 498 254 511 294 511 C420 511 483 433 483 316 L483 55 C483 21 458 -6 414 -6 C370 -6 345 21 345 55 L345 316 C345 366 320 397 280 397 C259 397 234 390 203 376 C204 369 205 363 205 357 L205 357 Z " />
<glyph glyph-name="o" unicode="o" horiz-adv-x="524" d="M262 -7 C120 -7 45 74 45 179 L45 328 C45 433 120 514 262 514 C404 514 479 433 479 328 L479 179 C479 74 404 -7 262 -7 L262 -7 Z M262 111 C314 111 341 137 341 179 L341 329 C341 370 314 396 262 396 C210 396 183 370 183 329 L183 179 C183 137 210 111 262 111 L262 111 Z " />
<glyph glyph-name="p" unicode="p" horiz-adv-x="528" d="M292 -6 C265 -6 241 -3 205 14 L205 -151 C205 -185 180 -212 136 -212 C92 -212 67 -184 67 -151 L67 357 C67 380 64 392 56 404 C48 414 42 422 42 436 C42 473 76 497 108 497 C129 497 146 486 160 469 C208 496 248 513 301 513 C416 513 483 433 483 317 L483 201 C483 83 436 -6 292 -6 L292 -6 Z M205 357 L205 121 C235 112 260 108 278 108 C327 108 345 138 345 201 L345 317 C345 369 323 397 280 397 C259 397 234 390 203 376 C204 369 205 363 205 357 L205 357 Z " />
<glyph glyph-name="q" unicode="q" horiz-adv-x="535" d="M333 134 L333 342 C333 375 304 395 259 395 C207 395 183 368 183 324 L183 183 C183 136 202 108 254 108 C280 108 310 115 333 134 L333 134 Z M471 342 L471 -131 C471 -165 448 -192 402 -192 C356 -192 333 -165 333 -131 L333 20 C303 2 274 -6 231 -6 C93 -6 45 75 45 183 L45 324 C45 431 116 513 258 513 C393 513 471 438 471 342 L471 342 Z " />
<glyph glyph-name="r" unicode="r" horiz-adv-x="377" d="M299 386 C256 388 238 390 203 376 C204 369 205 363 205 357 L205 55 C205 20 175 -7 136 -7 C97 -7 67 20 67 55 L67 357 C67 380 64 392 56 404 C48 414 42 422 42 437 C42 473 74 497 110 497 C131 497 149 484 163 466 C209 493 255 509 287 509 C350 509 369 483 369 449 C369 410 337 384 299 386 L299 386 Z " />
<glyph glyph-name="s" unicode="s" horiz-adv-x="446" d="M43 358 C43 450 108 513 236 513 C301 513 398 497 398 428 C398 385 360 377 339 377 C304 377 286 398 237 398 C199 398 179 385 179 362 C179 348 187 338 209 329 C281 298 412 284 412 151 C412 54 343 -7 217 -7 C153 -7 37 9 37 71 C37 100 63 130 102 130 C135 130 166 108 215 108 C251 108 276 120 276 148 C276 166 266 174 255 180 C190 216 43 219 43 358 L43 358 Z " />
<glyph glyph-name="t" unicode="t" horiz-adv-x="361" d="M64 208 L64 596 C64 630 89 657 133 657 C177 657 202 629 202 596 L202 485 L276 485 C313 485 342 459 342 425 C342 391 313 366 276 366 L202 366 L202 215 C202 141 208 115 256 115 C265 115 271 116 273 116 C336 116 355 99 355 62 C355 4 309 -4 259 -4 C104 -4 64 72 64 208 L64 208 Z " />
<glyph glyph-name="u" unicode="u" horiz-adv-x="549" d="M388 37 C341 4 295 -7 250 -7 C129 -7 64 72 64 189 L64 450 C64 484 89 510 133 510 C177 510 202 484 202 450 L202 189 C202 138 223 109 267 109 C288 109 313 116 344 130 C343 137 342 143 342 149 L342 450 C342 484 365 510 411 510 C457 510 480 484 480 450 L480 129 C480 114 486 107 499 94 C509 84 513 74 513 60 C513 20 479 -1 449 -1 C423 -1 403 15 388 37 L388 37 Z " />
<glyph glyph-name="v" unicode="v" horiz-adv-x="470" d="M148 468 L203 300 C220 246 226 190 237 135 C248 190 254 246 270 300 L322 467 C331 493 360 510 387 510 C423 510 455 486 455 450 C455 445 455 440 453 433 L316 54 C300 11 279 -7 237 -7 C193 -7 172 11 157 52 L18 434 C16 441 16 446 16 451 C16 487 48 511 84 511 C111 511 139 494 148 468 L148 468 Z " />
<glyph glyph-name="w" unicode="w" horiz-adv-x="695" d="M409 43 L367 203 C356 243 354 284 348 325 C342 284 339 243 329 203 L288 43 C278 7 253 -7 212 -7 C168 -7 145 15 133 53 L17 437 C15 442 15 446 15 450 C15 481 45 510 84 510 C113 510 141 494 149 465 L192 300 C205 250 205 199 212 148 C220 199 222 250 235 300 L275 459 C283 488 309 510 349 510 C388 510 414 488 421 459 L460 300 C472 250 476 198 484 147 C491 198 491 250 504 300 L547 465 C554 490 583 510 612 510 C648 510 680 484 680 449 C680 448 679 442 679 439 L563 52 C551 13 532 -7 484 -7 C450 -7 418 11 409 43 L409 43 Z " />
<glyph glyph-name="x" unicode="x" horiz-adv-x="471" d="M317 257 L446 87 C454 77 456 66 456 56 C456 22 428 -7 386 -7 C354 -7 341 4 323 29 C288 79 271 99 235 150 C204 108 172 65 142 23 C127 3 109 -7 85 -7 C46 -7 15 18 15 55 C15 65 18 76 25 85 C70 146 110 196 155 257 C115 310 75 361 35 416 C27 425 23 439 23 448 C23 481 53 510 92 510 C131 510 147 486 161 467 L237 364 L317 475 C332 496 347 510 379 510 C411 510 447 484 447 450 C447 441 445 428 437 418 L317 257 L317 257 Z " />
<glyph glyph-name="y" unicode="y" horiz-adv-x="474" d="M271 300 L325 468 C334 497 363 510 390 510 C425 510 459 485 459 449 C459 442 458 436 456 431 L334 75 C279 -87 241 -203 89 -203 C49 -203 19 -178 19 -143 C19 -113 44 -85 85 -83 C129 -81 151 -49 175 29 L21 426 C17 436 16 445 16 451 C16 485 46 510 85 510 C112 510 137 496 148 468 L211 300 C225 264 232 222 243 185 C252 222 259 264 271 300 L271 300 Z " />
<glyph glyph-name="z" unicode="z" horiz-adv-x="434" d="M422 443 C422 430 418 415 408 402 L192 118 L357 118 C395 118 424 92 424 59 C424 26 395 0 357 0 L80 0 C43 0 10 28 10 64 C10 76 12 88 22 101 L239 387 L86 387 C49 387 20 413 20 446 C20 480 49 505 86 505 L351 505 C389 505 422 482 422 443 L422 443 Z " />
<glyph glyph-name="braceleft" unicode="&#x7b;" horiz-adv-x="437" d="M80 182 C56 184 21 190 21 243 C21 298 60 302 80 304 C106 307 125 310 129 361 C132 403 131 410 140 538 C146 626 222 677 330 677 C370 677 416 670 416 609 C416 548 371 551 340 555 C332 556 321 557 316 557 C297 557 277 545 276 524 C275 510 271 399 267 363 C261 313 235 274 171 243 C230 214 263 175 266 122 L276 -39 C277 -58 299 -72 315 -71 C317 -71 338 -69 341 -69 C369 -67 416 -62 416 -123 C416 -184 370 -192 330 -192 C225 -192 145 -137 140 -53 L129 126 C126 179 96 181 80 182 L80 182 Z " />
<glyph glyph-name="bar" unicode="&#x7c;" horiz-adv-x="267" d="M67 -160 L67 694 C67 726 96 755 133 755 C170 755 199 726 199 694 L199 -160 C199 -193 170 -221 133 -221 C96 -221 67 -193 67 -160 L67 -160 Z " />
<glyph glyph-name="braceright" unicode="&#x7d;" horiz-adv-x="437" d="M362 182 C339 180 316 175 313 126 L302 -53 C297 -135 219 -192 112 -192 C72 -192 26 -184 26 -122 C26 -69 60 -68 102 -68 C102 -68 116 -70 126 -70 C154 -70 165 -55 166 -39 L176 122 C179 175 212 214 271 243 C212 270 178 316 175 363 C165 498 168 512 166 524 C163 546 146 557 127 557 C121 557 110 556 102 555 C71 551 26 548 26 609 C26 670 72 677 112 677 C220 677 296 626 302 538 C313 379 311 384 313 361 C317 310 336 307 362 304 C382 302 421 298 421 243 C421 188 383 184 362 182 L362 182 Z " />
<glyph glyph-name="asciitilde" unicode="&#x7e;" horiz-adv-x="496" d="M435 345 C435 295 374 257 327 257 C264 257 230 301 194 305 C158 310 156 262 116 262 C92 262 63 281 61 311 C61 367 112 407 166 407 C234 407 264 359 301 359 C338 359 337 403 376 403 C406 403 435 379 435 345 L435 345 Z " />
<glyph glyph-name="exclamdown" unicode="&#xa1;" horiz-adv-x="267" d="M73 271 C73 302 99 327 133 327 C164 327 192 301 193 271 L203 -150 C203 -184 171 -215 133 -215 C94 -215 63 -184 63 -150 L73 271 L73 271 Z M218 430 C218 388 180 353 135 353 C88 353 51 388 51 430 C51 472 88 508 135 508 C180 508 218 472 218 430 L218 430 Z " />
<glyph glyph-name="cent" unicode="&#xa2;" horiz-adv-x="443" d="M45 214 L45 299 C45 402 104 484 237 490 L237 533 C237 547 248 559 263 559 C278 559 289 547 289 533 L289 488 C345 482 413 462 413 403 C413 379 401 352 351 352 C341 352 332 353 318 358 L289 370 L289 142 C299 145 308 150 318 155 C328 159 336 161 349 161 C401 161 413 132 413 110 C413 52 345 31 289 25 L289 -28 C289 -42 278 -54 263 -54 C248 -54 237 -42 237 -28 L237 23 C105 28 45 110 45 214 L45 214 Z M183 214 C183 174 199 147 237 140 L237 373 C199 365 183 339 183 299 L183 214 L183 214 Z " />
<glyph glyph-name="yen" unicode="&#xa5;" horiz-adv-x="540" d="M100 369 L151 369 L23 620 C20 627 17 639 17 649 C17 684 52 714 88 714 C109 714 133 705 145 684 L270 436 L394 684 C406 705 430 714 452 714 C488 714 523 684 523 649 C523 640 519 629 516 620 L388 369 L438 369 C458 369 477 353 477 332 C477 311 460 295 438 295 L350 295 L341 276 L341 239 L438 239 C458 239 477 223 477 202 C477 181 460 165 438 165 L341 165 L341 57 C341 25 316 -3 281 -8 C277 -9 273 -10 269 -10 C263 -10 258 -9 254 -7 C222 -1 199 26 199 57 L199 165 L100 165 C78 165 61 181 61 202 C61 223 80 239 100 239 L199 239 L199 276 L189 295 L100 295 C78 295 61 311 61 332 C61 353 80 369 100 369 L100 369 Z " />
<glyph glyph-name="dieresis" unicode="&#xa8;" horiz-adv-x="443" d="M389 630 C389 595 360 567 324 567 C288 567 258 596 258 630 C258 663 288 691 324 691 C360 691 389 664 389 630 L389 630 Z M210 630 C210 595 181 567 144 567 C108 567 80 596 80 630 C80 663 108 691 144 691 C181 691 210 664 210 630 L210 630 Z " />
<glyph glyph-name="copyright" unicode="&#xa9;" horiz-adv-x="740" d="M676 313 C676 124 568 -9 370 -9 C172 -9 64 124 64 313 C64 502 172 635 370 635 C568 635 676 502 676 313 L676 313 Z M616 313 C616 467 529 575 370 575 C211 575 124 467 124 313 C124 159 211 51 370 51 C529 51 616 159 616 313 L616 313 Z M226 283 L226 344 C226 426 272 491 379 491 C420 491 500 478 500 432 C500 413 484 395 463 395 C459 395 455 396 450 397 C431 408 414 416 386 416 C337 416 318 390 318 344 L318 283 C318 236 337 211 386 211 C414 211 431 220 450 229 C455 231 459 232 463 232 C484 232 500 214 500 194 C500 149 420 136 379 136 C272 136 226 200 226 283 L226 283 Z " />
<glyph glyph-name="guillemotleft" unicode="&#xab;" horiz-adv-x="431" d="M132 258 L272 50 C276 44 277 38 277 33 C277 11 261 -8 237 -8 C219 -8 211 0 199 19 L41 256 L193 485 C203 501 212 511 230 511 C248 511 268 495 268 474 C268 468 267 461 263 455 L132 258 L132 258 Z M292 256 L385 114 C389 108 390 101 390 95 C390 74 370 58 352 58 C334 58 325 68 315 84 L201 256 L315 428 C325 444 334 454 352 454 C370 454 390 438 390 417 C390 411 389 404 385 398 L292 256 L292 256 Z " />
<glyph glyph-name="registered" unicode="&#xae;" horiz-adv-x="700" d="M636 423 C636 252 536 131 350 131 C164 131 64 252 64 423 C64 600 164 725 350 725 C536 725 636 600 636 423 L636 423 Z M576 423 C576 565 497 665 350 665 C203 665 124 565 124 423 C124 287 203 191 350 191 C497 191 576 287 576 423 L576 423 Z M471 486 C471 444 451 416 418 401 L477 311 C488 295 484 271 454 271 C421 271 406 287 400 295 L339 389 L322 389 L322 306 C322 288 302 271 281 271 C261 271 242 286 242 306 L242 541 C242 564 263 585 285 585 L352 585 C440 585 471 535 471 486 L471 486 Z M391 486 C391 500 386 516 360 516 L322 516 L322 457 L363 457 C381 457 391 467 391 486 L391 486 Z " />
<glyph glyph-name="macron" unicode="&#xaf;" horiz-adv-x="443" d="M412 630 C412 601 387 579 356 579 L87 579 C55 579 30 601 30 630 C30 658 55 681 87 681 L356 681 C387 681 412 658 412 630 L412 630 Z " />
<glyph glyph-name="degree" unicode="&#xb0;" horiz-adv-x="392" d="M196 436 C105 436 55 498 55 576 C55 654 104 716 196 716 C288 716 337 654 337 576 C337 498 288 436 196 436 L196 436 Z M196 506 C241 506 262 531 262 578 C262 621 241 646 196 646 C151 646 130 621 130 578 C130 530 151 506 196 506 L196 506 Z " />
<glyph glyph-name="plusminus" unicode="&#xb1;" horiz-adv-x="540" d="M201 201 L201 330 L81 330 C42 330 12 358 12 394 C12 430 46 457 81 457 L201 457 L201 586 C201 619 231 650 270 650 C309 650 339 622 339 586 L339 457 L459 457 C494 457 528 430 528 394 C528 358 498 330 459 330 L339 330 L339 201 C339 165 309 138 270 138 C231 138 201 169 201 201 L201 201 Z M459 0 L81 0 C42 0 12 28 12 64 C12 100 46 127 81 127 L459 127 C494 127 528 100 528 64 C528 28 498 0 459 0 L459 0 Z " />
<glyph glyph-name="twosuperior" unicode="&#xb2;" horiz-adv-x="270" d="M252 423 C252 406 237 392 217 392 L53 392 C32 392 17 406 17 425 C17 432 18 441 21 448 C41 492 78 524 113 556 C141 581 181 610 181 647 C181 672 165 692 134 692 C117 692 104 689 92 684 C81 680 71 671 56 671 C39 671 22 683 22 701 C22 738 94 753 134 753 C207 753 250 708 250 652 C250 609 233 581 210 557 C177 522 133 491 106 454 L217 454 C237 454 252 441 252 423 L252 423 Z " />
<glyph glyph-name="threesuperior" unicode="&#xb3;" horiz-adv-x="270" d="M230 688 L162 607 C214 598 249 561 249 507 C249 453 211 388 124 388 C101 388 21 394 21 436 C21 452 35 467 54 467 C75 467 88 448 122 448 C165 448 179 478 179 504 C179 537 157 550 122 550 C109 550 109 545 97 545 C79 545 64 559 64 578 C64 583 65 587 68 590 L142 680 L62 680 C42 680 27 694 27 712 C27 730 42 745 62 745 L201 745 C223 745 238 730 238 711 C238 702 235 694 230 688 L230 688 Z " />
<glyph glyph-name="acute" unicode="&#xb4;" horiz-adv-x="316" d="M96 631 L177 710 L185 718 C197 730 204 737 226 737 C249 737 275 716 275 688 C275 680 273 670 266 660 L184 578 C169 565 161 557 139 557 C111 557 88 577 88 606 C88 616 90 623 96 631 L96 631 Z " />
<glyph glyph-name="periodcentered" unicode="&#xb7;" horiz-adv-x="295" d="M228 280 C228 237 191 203 144 203 C99 203 61 237 61 280 C61 322 99 357 144 357 C191 357 228 322 228 280 L228 280 Z " />
<glyph glyph-name="cedilla" unicode="&#xb8;" horiz-adv-x="341" d="M276 -118 C276 -175 230 -216 162 -216 C107 -216 42 -197 42 -157 C42 -139 56 -128 76 -128 C95 -128 123 -137 149 -137 C181 -137 196 -129 196 -115 C196 -100 181 -94 139 -87 C108 -81 92 -82 94 -40 L108 44 L186 44 L176 -33 C248 -39 276 -72 276 -118 L276 -118 Z " />
<glyph glyph-name="onesuperior" unicode="&#xb9;" horiz-adv-x="270" d="M130 420 L130 663 L91 639 C81 633 73 628 61 628 C46 628 29 636 29 657 C29 670 35 680 45 685 L144 743 C151 747 156 749 163 749 C184 749 200 734 200 715 L200 420 C200 403 184 388 165 388 C146 388 130 403 130 420 L130 420 Z " />
<glyph glyph-name="ordmasculine" unicode="&#xba;" horiz-adv-x="424" d="M212 319 C98 319 40 388 40 479 L40 553 C40 644 98 714 212 714 C326 714 384 644 384 553 L384 479 C384 388 326 319 212 319 L212 319 Z M212 601 C179 601 167 582 167 549 L167 477 C167 449 181 431 212 431 C243 431 257 449 257 477 L257 549 C257 582 245 601 212 601 L212 601 Z " />
<glyph glyph-name="guillemotright" unicode="&#xbb;" horiz-adv-x="431" d="M159 50 L299 258 L168 455 C164 461 163 468 163 474 C163 495 183 511 201 511 C219 511 228 501 238 485 L390 256 L232 19 C220 0 212 -8 194 -8 C170 -8 154 11 154 33 C154 38 155 44 159 50 L159 50 Z M46 114 L139 256 L46 398 C42 404 41 411 41 417 C41 438 61 454 79 454 C97 454 106 444 116 428 L230 256 L116 84 C106 68 97 58 79 58 C61 58 41 74 41 95 C41 101 42 108 46 114 L46 114 Z " />
<glyph glyph-name="questiondown" unicode="&#xbf;" horiz-adv-x="502" d="M174 236 C180 242 182 258 182 267 C184 306 217 331 252 331 C283 331 322 311 322 261 C322 210 280 159 244 122 C215 92 165 44 165 -16 C165 -63 196 -103 264 -103 C286 -103 318 -99 343 -87 C364 -77 378 -60 405 -60 C437 -60 472 -84 472 -121 C472 -194 337 -225 254 -225 C117 -225 27 -141 27 -15 C27 64 63 119 106 166 C139 202 156 217 174 236 L174 236 Z M169 432 C169 474 207 510 253 510 C299 510 336 474 336 432 C336 390 299 355 253 355 C207 355 169 390 169 432 L169 432 Z " />
<glyph glyph-name="Agrave" unicode="&#xc0;" horiz-adv-x="589" d="M186 139 L153 38 C143 9 111 -9 87 -9 C48 -9 15 17 15 55 C15 60 16 72 18 77 L213 646 C226 685 246 714 294 714 C342 714 362 686 376 646 L571 77 C573 72 574 60 574 55 C574 17 543 -9 502 -9 C476 -9 444 10 434 38 L399 139 L186 139 L186 139 Z M363 253 L312 424 C303 453 298 491 294 522 C290 491 285 453 276 424 L223 253 L363 253 L363 253 Z M266 910 L347 831 C355 824 355 816 355 806 C355 777 332 757 304 757 C282 757 274 765 259 778 L177 860 C170 870 168 880 168 888 C168 916 194 937 217 937 C239 937 246 930 258 918 L266 910 L266 910 Z " />
<glyph glyph-name="Aacute" unicode="&#xc1;" horiz-adv-x="589" d="M186 139 L153 38 C143 9 111 -9 87 -9 C48 -9 15 17 15 55 C15 60 16 72 18 77 L213 646 C226 685 246 714 294 714 C342 714 362 686 376 646 L571 77 C573 72 574 60 574 55 C574 17 543 -9 502 -9 C476 -9 444 10 434 38 L399 139 L186 139 L186 139 Z M363 253 L312 424 C303 453 298 491 294 522 C290 491 285 453 276 424 L223 253 L363 253 L363 253 Z M251 831 L332 910 L340 918 C352 930 359 937 381 937 C404 937 430 916 430 888 C430 880 428 870 421 860 L339 778 C324 765 316 757 294 757 C266 757 243 777 243 806 C243 816 245 823 251 831 L251 831 Z " />
<glyph glyph-name="Acircumflex" unicode="&#xc2;" horiz-adv-x="589" d="M186 139 L153 38 C143 9 111 -9 87 -9 C48 -9 15 17 15 55 C15 60 16 72 18 77 L213 646 C226 685 246 714 294 714 C342 714 362 686 376 646 L571 77 C573 72 574 60 574 55 C574 17 543 -9 502 -9 C476 -9 444 10 434 38 L399 139 L186 139 L186 139 Z M363 253 L312 424 C303 453 298 491 294 522 C290 491 285 453 276 424 L223 253 L363 253 L363 253 Z M294 916 C310 916 322 910 331 903 L410 842 C425 829 436 814 437 797 C437 772 414 751 387 751 C354 751 322 789 294 815 C266 789 234 751 201 751 C174 751 151 772 151 797 C152 814 163 829 178 842 L257 903 C266 910 278 916 294 916 L294 916 Z " />
<glyph glyph-name="Atilde" unicode="&#xc3;" horiz-adv-x="589" d="M186 139 L153 38 C143 9 111 -9 87 -9 C48 -9 15 17 15 55 C15 60 16 72 18 77 L213 646 C226 685 246 714 294 714 C342 714 362 686 376 646 L571 77 C573 72 574 60 574 55 C574 17 543 -9 502 -9 C476 -9 444 10 434 38 L399 139 L186 139 L186 139 Z M363 253 L312 424 C303 453 298 491 294 522 C290 491 285 453 276 424 L223 253 L363 253 L363 253 Z M450 843 C450 801 399 770 360 770 C307 770 279 806 249 810 C219 814 217 774 184 774 C163 774 141 790 138 815 C138 861 181 895 226 895 C282 895 307 855 338 855 C369 855 368 891 401 891 C426 891 450 871 450 843 L450 843 Z " />
<glyph glyph-name="Adieresis" unicode="&#xc4;" horiz-adv-x="589" d="M186 139 L153 38 C143 9 111 -9 87 -9 C48 -9 15 17 15 55 C15 60 16 72 18 77 L213 646 C226 685 246 714 294 714 C342 714 362 686 376 646 L571 77 C573 72 574 60 574 55 C574 17 543 -9 502 -9 C476 -9 444 10 434 38 L399 139 L186 139 L186 139 Z M363 253 L312 424 C303 453 298 491 294 522 C290 491 285 453 276 424 L223 253 L363 253 L363 253 Z M449 830 C449 795 420 767 384 767 C348 767 318 796 318 830 C318 863 348 891 384 891 C420 891 449 864 449 830 L449 830 Z M270 830 C270 795 241 767 204 767 C168 767 140 796 140 830 C140 863 168 891 204 891 C241 891 270 864 270 830 L270 830 Z " />
<glyph glyph-name="Aring" unicode="&#xc5;" horiz-adv-x="589" d="M186 139 L153 38 C143 9 111 -9 87 -9 C48 -9 15 17 15 55 C15 60 16 72 18 77 L214 649 C196 669 185 695 185 724 C185 783 233 833 295 833 C356 833 404 783 404 724 C404 695 393 668 375 649 L571 77 C573 72 574 60 574 55 C574 17 543 -9 502 -9 C476 -9 444 10 434 38 L399 139 L186 139 L186 139 Z M363 253 L312 424 C303 453 298 491 294 522 C290 491 285 453 276 424 L223 253 L363 253 L363 253 Z M339 724 C339 748 319 769 295 769 C271 769 251 748 251 724 C251 699 271 680 295 680 C319 680 339 699 339 724 L339 724 Z " />
<glyph glyph-name="AE" unicode="&#xc6;" horiz-adv-x="772" d="M454 0 C405 0 361 17 361 71 L361 139 L187 139 L154 39 C144 10 112 -9 87 -9 C46 -9 15 17 15 55 C15 60 16 72 18 77 L211 637 C224 671 250 705 292 705 L669 705 C707 705 739 676 739 640 C739 605 707 578 669 578 L501 578 L501 417 L650 417 C685 417 719 390 719 354 C719 318 689 290 650 290 L501 290 L501 127 L679 127 C716 127 749 99 749 65 C749 29 717 0 679 0 L454 0 L454 0 Z M361 578 L353 578 C339 578 331 572 327 559 L225 253 L361 253 L361 578 L361 578 Z " />
<glyph glyph-name="Ccedilla" unicode="&#xc7;" horiz-adv-x="522" d="M419 -118 C419 -175 373 -216 305 -216 C250 -216 185 -197 185 -157 C185 -139 199 -128 219 -128 C238 -128 266 -137 292 -137 C324 -137 339 -129 339 -115 C339 -100 324 -94 282 -87 C251 -81 235 -82 237 -40 L243 -5 C100 12 35 111 35 254 L35 452 C35 610 115 714 290 714 C396 714 497 665 497 607 C497 575 469 547 431 547 C408 547 401 554 388 562 L378 568 C353 584 327 592 295 592 C205 592 175 538 175 452 L175 254 C175 168 205 114 295 114 C327 114 353 122 378 138 L388 144 C401 152 408 159 431 159 C469 159 497 131 497 99 C497 47 416 2 322 -6 L319 -33 C391 -39 419 -72 419 -118 L419 -118 Z " />
<glyph glyph-name="Egrave" unicode="&#xc8;" horiz-adv-x="514" d="M491 65 C491 29 459 0 421 0 L156 0 C107 0 63 17 63 71 L63 634 C63 669 96 705 140 705 L411 705 C449 705 481 675 481 640 C481 604 449 578 411 578 L203 578 L203 417 L392 417 C427 417 461 390 461 354 C461 318 431 290 392 290 L203 290 L203 127 L421 127 C458 127 491 99 491 65 L491 65 Z M261 910 L342 831 C350 824 350 816 350 806 C350 777 327 757 299 757 C277 757 269 765 254 778 L172 860 C165 870 163 880 163 888 C163 916 189 937 212 937 C234 937 241 930 253 918 L261 910 L261 910 Z " />
<glyph glyph-name="Eacute" unicode="&#xc9;" horiz-adv-x="514" d="M491 65 C491 29 459 0 421 0 L156 0 C107 0 63 17 63 71 L63 634 C63 669 96 705 140 705 L411 705 C449 705 481 675 481 640 C481 604 449 578 411 578 L203 578 L203 417 L392 417 C427 417 461 390 461 354 C461 318 431 290 392 290 L203 290 L203 127 L421 127 C458 127 491 99 491 65 L491 65 Z M237 831 L318 910 L326 918 C338 930 345 937 367 937 C390 937 416 916 416 888 C416 880 414 870 407 860 L325 778 C310 765 302 757 280 757 C252 757 229 777 229 806 C229 816 231 823 237 831 L237 831 Z " />
<glyph glyph-name="Ecircumflex" unicode="&#xca;" horiz-adv-x="514" d="M491 65 C491 29 459 0 421 0 L156 0 C107 0 63 17 63 71 L63 634 C63 669 96 705 140 705 L411 705 C449 705 481 675 481 640 C481 604 449 578 411 578 L203 578 L203 417 L392 417 C427 417 461 390 461 354 C461 318 431 290 392 290 L203 290 L203 127 L421 127 C458 127 491 99 491 65 L491 65 Z M285 916 C301 916 313 910 322 903 L401 842 C416 829 427 814 428 797 C428 772 405 751 378 751 C345 751 313 789 285 815 C257 789 225 751 192 751 C165 751 142 772 142 797 C143 814 154 829 169 842 L248 903 C257 910 269 916 285 916 L285 916 Z " />
<glyph glyph-name="Edieresis" unicode="&#xcb;" horiz-adv-x="514" d="M491 65 C491 29 459 0 421 0 L156 0 C107 0 63 17 63 71 L63 634 C63 669 96 705 140 705 L411 705 C449 705 481 675 481 640 C481 604 449 578 411 578 L203 578 L203 417 L392 417 C427 417 461 390 461 354 C461 318 431 290 392 290 L203 290 L203 127 L421 127 C458 127 491 99 491 65 L491 65 Z M436 830 C436 795 407 767 371 767 C335 767 305 796 305 830 C305 863 335 891 371 891 C407 891 436 864 436 830 L436 830 Z M257 830 C257 795 228 767 191 767 C155 767 127 796 127 830 C127 863 155 891 191 891 C228 891 257 864 257 830 L257 830 Z " />
<glyph glyph-name="Igrave" unicode="&#xcc;" horiz-adv-x="267" d="M63 55 L63 650 C63 684 94 714 133 714 C171 714 203 684 203 650 L203 55 C203 21 171 -9 133 -9 C94 -9 63 21 63 55 L63 55 Z M105 910 L186 831 C194 824 194 816 194 806 C194 777 171 757 143 757 C121 757 113 765 98 778 L16 860 C9 870 7 880 7 888 C7 916 33 937 56 937 C78 937 85 930 97 918 L105 910 L105 910 Z " />
<glyph glyph-name="Iacute" unicode="&#xcd;" horiz-adv-x="267" d="M63 55 L63 650 C63 684 94 714 133 714 C171 714 203 684 203 650 L203 55 C203 21 171 -9 133 -9 C94 -9 63 21 63 55 L63 55 Z M82 831 L163 910 L171 918 C183 930 190 937 212 937 C235 937 261 916 261 888 C261 880 259 870 252 860 L170 778 C155 765 147 757 125 757 C97 757 74 777 74 806 C74 816 76 823 82 831 L82 831 Z " />
<glyph glyph-name="Icircumflex" unicode="&#xce;" horiz-adv-x="267" d="M63 55 L63 650 C63 684 94 714 133 714 C171 714 203 684 203 650 L203 55 C203 21 171 -9 133 -9 C94 -9 63 21 63 55 L63 55 Z M134 916 C150 916 162 910 171 903 L250 842 C265 829 276 814 277 797 C277 772 254 751 227 751 C194 751 162 789 134 815 C106 789 74 751 41 751 C14 751 -9 772 -9 797 C-8 814 3 829 18 842 L97 903 C106 910 118 916 134 916 L134 916 Z " />
<glyph glyph-name="Idieresis" unicode="&#xcf;" horiz-adv-x="267" d="M63 55 L63 650 C63 684 94 714 133 714 C171 714 203 684 203 650 L203 55 C203 21 171 -9 133 -9 C94 -9 63 21 63 55 L63 55 Z M288 830 C288 795 259 767 223 767 C187 767 157 796 157 830 C157 863 187 891 223 891 C259 891 288 864 288 830 L288 830 Z M109 830 C109 795 80 767 43 767 C7 767 -21 796 -21 830 C-21 863 7 891 43 891 C80 891 109 864 109 830 L109 830 Z " />
<glyph glyph-name="Eth" unicode="&#xd0;" horiz-adv-x="616" d="M581 271 C581 130 504 0 277 0 L164 0 C122 0 86 33 86 72 L86 292 L77 292 C39 292 10 319 10 353 C10 386 39 415 77 415 L86 415 L86 633 C86 672 122 705 164 705 L277 705 C503 705 581 582 581 443 L581 271 L581 271 Z M392 353 C392 319 363 292 326 292 L226 292 L226 127 L294 127 C404 127 441 192 441 271 L441 443 C441 519 402 578 294 578 L226 578 L226 415 L326 415 C363 415 392 386 392 353 L392 353 Z " />
<glyph glyph-name="Ntilde" unicode="&#xd1;" horiz-adv-x="640" d="M502 -9 C476 -9 448 5 435 26 L203 430 L203 56 C203 21 170 -9 132 -9 C93 -9 63 21 63 56 L63 646 C63 685 94 714 136 714 C163 714 190 699 204 677 C293 523 344 432 436 271 L436 649 C436 684 469 714 507 714 C546 714 576 684 576 649 L576 59 C576 22 546 -9 502 -9 L502 -9 Z M476 843 C476 801 425 770 386 770 C333 770 305 806 275 810 C245 814 243 774 210 774 C189 774 167 790 164 815 C164 861 207 895 252 895 C308 895 333 855 364 855 C395 855 394 891 427 891 C452 891 476 871 476 843 L476 843 Z " />
<glyph glyph-name="Ograve" unicode="&#xd2;" horiz-adv-x="610" d="M305 -9 C132 -9 45 108 45 254 L45 452 C45 594 118 714 305 714 C492 714 565 594 565 452 L565 254 C565 108 478 -9 305 -9 L305 -9 Z M305 587 C217 587 185 533 185 452 L185 254 C185 174 223 118 305 118 C387 118 425 174 425 254 L425 452 C425 533 393 587 305 587 L305 587 Z M270 910 L351 831 C359 824 359 816 359 806 C359 777 336 757 308 757 C286 757 278 765 263 778 L181 860 C174 870 172 880 172 888 C172 916 198 937 221 937 C243 937 250 930 262 918 L270 910 L270 910 Z " />
<glyph glyph-name="Oacute" unicode="&#xd3;" horiz-adv-x="610" d="M305 -9 C132 -9 45 108 45 254 L45 452 C45 594 118 714 305 714 C492 714 565 594 565 452 L565 254 C565 108 478 -9 305 -9 L305 -9 Z M305 587 C217 587 185 533 185 452 L185 254 C185 174 223 118 305 118 C387 118 425 174 425 254 L425 452 C425 533 393 587 305 587 L305 587 Z M247 831 L328 910 L336 918 C348 930 355 937 377 937 C400 937 426 916 426 888 C426 880 424 870 417 860 L335 778 C320 765 312 757 290 757 C262 757 239 777 239 806 C239 816 241 823 247 831 L247 831 Z " />
<glyph glyph-name="Ocircumflex" unicode="&#xd4;" horiz-adv-x="610" d="M305 -9 C132 -9 45 108 45 254 L45 452 C45 594 118 714 305 714 C492 714 565 594 565 452 L565 254 C565 108 478 -9 305 -9 L305 -9 Z M305 587 C217 587 185 533 185 452 L185 254 C185 174 223 118 305 118 C387 118 425 174 425 254 L425 452 C425 533 393 587 305 587 L305 587 Z M305 916 C321 916 333 910 342 903 L421 842 C436 829 447 814 448 797 C448 772 425 751 398 751 C365 751 333 789 305 815 C277 789 245 751 212 751 C185 751 162 772 162 797 C163 814 174 829 189 842 L268 903 C277 910 289 916 305 916 L305 916 Z " />
<glyph glyph-name="Otilde" unicode="&#xd5;" horiz-adv-x="610" d="M305 -9 C132 -9 45 108 45 254 L45 452 C45 594 118 714 305 714 C492 714 565 594 565 452 L565 254 C565 108 478 -9 305 -9 L305 -9 Z M305 587 C217 587 185 533 185 452 L185 254 C185 174 223 118 305 118 C387 118 425 174 425 254 L425 452 C425 533 393 587 305 587 L305 587 Z M461 843 C461 801 410 770 371 770 C318 770 290 806 260 810 C230 814 228 774 195 774 C174 774 152 790 149 815 C149 861 192 895 237 895 C293 895 318 855 349 855 C380 855 379 891 412 891 C437 891 461 871 461 843 L461 843 Z " />
<glyph glyph-name="Odieresis" unicode="&#xd6;" horiz-adv-x="610" d="M305 -9 C132 -9 45 108 45 254 L45 452 C45 594 118 714 305 714 C492 714 565 594 565 452 L565 254 C565 108 478 -9 305 -9 L305 -9 Z M305 587 C217 587 185 533 185 452 L185 254 C185 174 223 118 305 118 C387 118 425 174 425 254 L425 452 C425 533 393 587 305 587 L305 587 Z M460 830 C460 795 431 767 395 767 C359 767 329 796 329 830 C329 863 359 891 395 891 C431 891 460 864 460 830 L460 830 Z M281 830 C281 795 252 767 215 767 C179 767 151 796 151 830 C151 863 179 891 215 891 C252 891 281 864 281 830 L281 830 Z " />
<glyph glyph-name="multiply" unicode="&#xd7;" horiz-adv-x="500" d="M425 474 L305 354 L425 234 C441 218 441 194 425 179 C410 163 384 164 370 179 L250 299 L130 179 C116 164 90 163 75 179 C59 194 59 218 75 234 L195 354 L75 474 C60 488 59 514 75 529 C90 545 114 545 130 529 L250 409 L370 529 C386 545 410 545 425 529 C441 514 440 488 425 474 L425 474 Z " />
<glyph glyph-name="Oslash" unicode="&#xd8;" horiz-adv-x="591" d="M45 39 L81 91 C50 135 35 192 35 254 L35 452 C35 594 108 714 295 714 C375 714 435 692 476 655 L504 695 C512 707 529 710 541 702 C552 694 556 678 547 666 L511 615 C541 570 555 513 555 452 L555 254 C555 108 468 -9 295 -9 C219 -9 159 13 117 51 L88 10 C80 -2 63 -5 51 3 C40 11 36 27 45 39 L45 39 Z M295 587 C207 587 175 533 175 452 L175 254 C175 244 175 235 176 227 L395 539 C377 569 345 587 295 587 L295 587 Z M415 452 C415 460 414 468 414 476 L197 166 C216 136 248 118 295 118 C377 118 415 174 415 254 L415 452 L415 452 Z " />
<glyph glyph-name="Ugrave" unicode="&#xd9;" horiz-adv-x="612" d="M557 240 C557 96 464 -9 306 -9 C145 -9 55 97 55 240 L55 648 C55 686 86 714 126 714 C163 714 195 684 195 648 L195 240 C195 168 230 118 306 118 C381 118 416 169 416 240 L416 648 C416 683 446 714 485 714 C526 714 557 683 557 648 L557 240 L557 240 Z M280 910 L361 831 C369 824 369 816 369 806 C369 777 346 757 318 757 C296 757 288 765 273 778 L191 860 C184 870 182 880 182 888 C182 916 208 937 231 937 C253 937 260 930 272 918 L280 910 L280 910 Z " />
<glyph glyph-name="Uacute" unicode="&#xda;" horiz-adv-x="612" d="M557 240 C557 96 464 -9 306 -9 C145 -9 55 97 55 240 L55 648 C55 686 86 714 126 714 C163 714 195 684 195 648 L195 240 C195 168 230 118 306 118 C381 118 416 169 416 240 L416 648 C416 683 446 714 485 714 C526 714 557 683 557 648 L557 240 L557 240 Z M260 831 L341 910 L349 918 C361 930 368 937 390 937 C413 937 439 916 439 888 C439 880 437 870 430 860 L348 778 C333 765 325 757 303 757 C275 757 252 777 252 806 C252 816 254 823 260 831 L260 831 Z " />
<glyph glyph-name="Ucircumflex" unicode="&#xdb;" horiz-adv-x="612" d="M557 240 C557 96 464 -9 306 -9 C145 -9 55 97 55 240 L55 648 C55 686 86 714 126 714 C163 714 195 684 195 648 L195 240 C195 168 230 118 306 118 C381 118 416 169 416 240 L416 648 C416 683 446 714 485 714 C526 714 557 683 557 648 L557 240 L557 240 Z M306 916 C322 916 334 910 343 903 L422 842 C437 829 448 814 449 797 C449 772 426 751 399 751 C366 751 334 789 306 815 C278 789 246 751 213 751 C186 751 163 772 163 797 C164 814 175 829 190 842 L269 903 C278 910 290 916 306 916 L306 916 Z " />
<glyph glyph-name="Udieresis" unicode="&#xdc;" horiz-adv-x="612" d="M557 240 C557 96 464 -9 306 -9 C145 -9 55 97 55 240 L55 648 C55 686 86 714 126 714 C163 714 195 684 195 648 L195 240 C195 168 230 118 306 118 C381 118 416 169 416 240 L416 648 C416 683 446 714 485 714 C526 714 557 683 557 648 L557 240 L557 240 Z M460 830 C460 795 431 767 395 767 C359 767 329 796 329 830 C329 863 359 891 395 891 C431 891 460 864 460 830 L460 830 Z M281 830 C281 795 252 767 215 767 C179 767 151 796 151 830 C151 863 179 891 215 891 C252 891 281 864 281 830 L281 830 Z " />
<glyph glyph-name="Yacute" unicode="&#xdd;" horiz-adv-x="530" d="M265 -9 C225 -9 194 21 194 57 L194 276 L18 620 C15 627 12 639 12 649 C12 684 47 714 83 714 C104 714 128 705 140 684 L265 436 L389 684 C401 705 425 714 447 714 C483 714 518 684 518 649 C518 640 514 629 511 620 L336 276 L336 57 C336 22 305 -9 265 -9 L265 -9 Z M222 831 L303 910 L311 918 C323 930 330 937 352 937 C375 937 401 916 401 888 C401 880 399 870 392 860 L310 778 C295 765 287 757 265 757 C237 757 214 777 214 806 C214 816 216 823 222 831 L222 831 Z " />
<glyph glyph-name="Thorn" unicode="&#xde;" horiz-adv-x="570" d="M63 57 L63 649 C63 686 96 715 133 715 C171 715 203 684 203 649 L203 586 L288 586 C476 586 543 478 543 361 C543 219 443 140 288 140 L203 140 L203 57 C203 22 171 -9 133 -9 C96 -9 63 21 63 57 L63 57 Z M203 459 L203 267 L288 267 C363 267 403 297 403 362 C403 409 382 459 288 459 L203 459 L203 459 Z " />
<glyph glyph-name="germandbls" unicode="&#xdf;" horiz-adv-x="610" d="M202 4 C202 -29 172 -58 133 -58 C94 -58 64 -29 64 4 L64 488 C64 630 144 716 289 716 C411 716 503 656 503 538 C503 440 434 395 389 371 C384 368 376 365 387 360 C480 317 564 278 564 174 C564 55 459 -4 343 -4 C253 -4 229 32 229 65 C229 95 250 123 290 123 C313 123 328 114 354 114 C390 114 426 131 426 173 C426 221 377 251 325 269 C290 282 244 296 244 356 C244 394 264 416 287 429 C311 444 367 464 367 529 C367 578 331 598 285 598 C227 598 202 565 202 491 L202 4 L202 4 Z " />
<glyph glyph-name="agrave" unicode="&#xe0;" horiz-adv-x="522" d="M450 306 L450 120 C450 90 465 93 482 86 C497 80 505 69 505 48 C505 16 486 -4 433 -4 C396 -4 371 6 348 38 C311 8 269 -7 213 -7 C97 -7 35 56 35 151 L35 154 C35 256 101 307 233 307 C260 307 286 305 312 297 L312 329 C312 376 287 398 236 398 C208 398 191 391 171 382 C163 379 152 372 133 372 C91 372 75 405 75 430 C75 489 163 513 246 513 C391 513 450 441 450 306 L450 306 Z M241 210 C183 210 172 183 172 153 L172 150 C172 117 191 104 234 104 C260 104 286 110 312 130 L312 202 C287 207 261 210 241 210 L241 210 Z M265 710 L346 631 C354 624 354 616 354 606 C354 577 331 557 303 557 C281 557 273 565 258 578 L176 660 C169 670 167 680 167 688 C167 716 193 737 216 737 C238 737 245 730 257 718 L265 710 L265 710 Z " />
<glyph glyph-name="aacute" unicode="&#xe1;" horiz-adv-x="522" d="M450 306 L450 120 C450 90 465 93 482 86 C497 80 505 69 505 48 C505 16 486 -4 433 -4 C396 -4 371 6 348 38 C311 8 269 -7 213 -7 C97 -7 35 56 35 151 L35 154 C35 256 101 307 233 307 C260 307 286 305 312 297 L312 329 C312 376 287 398 236 398 C208 398 191 391 171 382 C163 379 152 372 133 372 C91 372 75 405 75 430 C75 489 163 513 246 513 C391 513 450 441 450 306 L450 306 Z M241 210 C183 210 172 183 172 153 L172 150 C172 117 191 104 234 104 C260 104 286 110 312 130 L312 202 C287 207 261 210 241 210 L241 210 Z M175 631 L256 710 L264 718 C276 730 283 737 305 737 C328 737 354 716 354 688 C354 680 352 670 345 660 L263 578 C248 565 240 557 218 557 C190 557 167 577 167 606 C167 616 169 623 175 631 L175 631 Z " />
<glyph glyph-name="acircumflex" unicode="&#xe2;" horiz-adv-x="522" d="M450 306 L450 120 C450 90 465 93 482 86 C497 80 505 69 505 48 C505 16 486 -4 433 -4 C396 -4 371 6 348 38 C311 8 269 -7 213 -7 C97 -7 35 56 35 151 L35 154 C35 256 101 307 233 307 C260 307 286 305 312 297 L312 329 C312 376 287 398 236 398 C208 398 191 391 171 382 C163 379 152 372 133 372 C91 372 75 405 75 430 C75 489 163 513 246 513 C391 513 450 441 450 306 L450 306 Z M241 210 C183 210 172 183 172 153 L172 150 C172 117 191 104 234 104 C260 104 286 110 312 130 L312 202 C287 207 261 210 241 210 L241 210 Z M261 716 C277 716 289 710 298 703 L377 642 C392 629 403 614 404 597 C404 572 381 551 354 551 C321 551 289 589 261 615 C233 589 201 551 168 551 C141 551 118 572 118 597 C119 614 130 629 145 642 L224 703 C233 710 245 716 261 716 L261 716 Z " />
<glyph glyph-name="atilde" unicode="&#xe3;" horiz-adv-x="522" d="M450 306 L450 120 C450 90 465 93 482 86 C497 80 505 69 505 48 C505 16 486 -4 433 -4 C396 -4 371 6 348 38 C311 8 269 -7 213 -7 C97 -7 35 56 35 151 L35 154 C35 256 101 307 233 307 C260 307 286 305 312 297 L312 329 C312 376 287 398 236 398 C208 398 191 391 171 382 C163 379 152 372 133 372 C91 372 75 405 75 430 C75 489 163 513 246 513 C391 513 450 441 450 306 L450 306 Z M241 210 C183 210 172 183 172 153 L172 150 C172 117 191 104 234 104 C260 104 286 110 312 130 L312 202 C287 207 261 210 241 210 L241 210 Z M417 643 C417 601 366 570 327 570 C274 570 246 606 216 610 C186 614 184 574 151 574 C130 574 108 590 105 615 C105 661 148 695 193 695 C249 695 274 655 305 655 C336 655 335 691 368 691 C393 691 417 671 417 643 L417 643 Z " />
<glyph glyph-name="adieresis" unicode="&#xe4;" horiz-adv-x="522" d="M450 306 L450 120 C450 90 465 93 482 86 C497 80 505 69 505 48 C505 16 486 -4 433 -4 C396 -4 371 6 348 38 C311 8 269 -7 213 -7 C97 -7 35 56 35 151 L35 154 C35 256 101 307 233 307 C260 307 286 305 312 297 L312 329 C312 376 287 398 236 398 C208 398 191 391 171 382 C163 379 152 372 133 372 C91 372 75 405 75 430 C75 489 163 513 246 513 C391 513 450 441 450 306 L450 306 Z M241 210 C183 210 172 183 172 153 L172 150 C172 117 191 104 234 104 C260 104 286 110 312 130 L312 202 C287 207 261 210 241 210 L241 210 Z M415 630 C415 595 386 567 350 567 C314 567 284 596 284 630 C284 663 314 691 350 691 C386 691 415 664 415 630 L415 630 Z M236 630 C236 595 207 567 170 567 C134 567 106 596 106 630 C106 663 134 691 170 691 C207 691 236 664 236 630 L236 630 Z " />
<glyph glyph-name="aring" unicode="&#xe5;" horiz-adv-x="522" d="M450 306 L450 120 C450 90 465 93 482 86 C497 80 505 69 505 48 C505 16 486 -4 433 -4 C396 -4 371 6 348 38 C311 8 269 -7 213 -7 C97 -7 35 56 35 151 L35 154 C35 256 101 307 233 307 C260 307 286 305 312 297 L312 329 C312 376 287 398 236 398 C208 398 191 391 171 382 C163 379 152 372 133 372 C91 372 75 405 75 430 C75 489 163 513 246 513 C391 513 450 441 450 306 L450 306 Z M241 210 C183 210 172 183 172 153 L172 150 C172 117 191 104 234 104 C260 104 286 110 312 130 L312 202 C287 207 261 210 241 210 L241 210 Z M371 644 C371 583 323 535 262 535 C200 535 152 583 152 644 C152 704 200 753 262 753 C323 753 371 704 371 644 L371 644 Z M306 644 C306 668 286 689 262 689 C238 689 218 668 218 644 C218 620 238 600 262 600 C286 600 306 620 306 644 L306 644 Z " />
<glyph glyph-name="ae" unicode="&#xe6;" horiz-adv-x="712" d="M502 181 C481 181 454 182 430 185 L430 164 C430 130 457 108 509 108 C544 108 567 118 599 130 C608 133 617 136 627 136 C664 136 692 107 692 78 C692 13 562 -7 503 -7 C440 -7 394 11 361 44 C315 10 261 -7 198 -7 C75 -7 15 58 15 155 L15 158 C15 264 83 317 221 317 C246 317 269 316 292 312 L292 329 C292 376 267 398 215 398 C188 398 171 391 151 382 C143 379 132 372 113 372 C74 372 57 400 55 425 C49 487 140 513 225 513 C289 513 333 497 363 463 C396 494 445 513 509 513 C635 513 701 445 701 341 C701 241 642 181 502 181 L502 181 Z M564 341 C564 380 542 396 503 396 C457 396 430 375 430 341 L430 298 C458 296 491 294 505 294 C555 294 564 317 564 341 L564 341 Z M292 135 L292 197 C267 202 241 205 220 205 C163 205 152 183 152 157 L152 154 C152 128 166 109 210 109 C242 109 266 116 292 135 L292 135 Z " />
<glyph glyph-name="ccedilla" unicode="&#xe7;" horiz-adv-x="443" d="M372 -118 C372 -175 326 -216 258 -216 C203 -216 138 -197 138 -157 C138 -139 152 -128 172 -128 C191 -128 219 -137 245 -137 C277 -137 292 -129 292 -115 C292 -100 277 -94 235 -87 C204 -81 188 -82 190 -40 L196 -2 C93 17 45 92 45 184 L45 319 C45 426 109 510 252 510 C311 510 423 496 423 423 C423 399 411 372 361 372 C351 372 342 373 328 378 C307 386 291 395 260 395 C205 395 183 366 183 319 L183 184 C183 137 205 108 260 108 C291 108 308 117 328 125 C338 129 345 131 359 131 C411 131 423 103 423 80 C423 17 337 -2 275 -6 L272 -33 C344 -39 372 -72 372 -118 L372 -118 Z " />
<glyph glyph-name="egrave" unicode="&#xe8;" horiz-adv-x="485" d="M260 191 C234 191 212 193 183 197 L183 164 C183 130 209 108 263 108 C295 108 321 116 353 130 C357 132 366 136 383 136 C431 136 445 104 445 81 C445 11 317 -7 253 -7 C121 -7 45 69 45 168 L45 335 C45 436 119 513 258 513 C389 513 454 444 454 343 C454 247 395 191 260 191 L260 191 Z M317 350 C317 390 296 406 257 406 C209 406 183 381 183 341 L183 298 C215 295 245 294 255 294 C293 294 317 307 317 350 L317 350 Z M247 710 L328 631 C336 624 336 616 336 606 C336 577 313 557 285 557 C263 557 255 565 240 578 L158 660 C151 670 149 680 149 688 C149 716 175 737 198 737 C220 737 227 730 239 718 L247 710 L247 710 Z " />
<glyph glyph-name="eacute" unicode="&#xe9;" horiz-adv-x="485" d="M260 191 C234 191 212 193 183 197 L183 164 C183 130 209 108 263 108 C295 108 321 116 353 130 C357 132 366 136 383 136 C431 136 445 104 445 81 C445 11 317 -7 253 -7 C121 -7 45 69 45 168 L45 335 C45 436 119 513 258 513 C389 513 454 444 454 343 C454 247 395 191 260 191 L260 191 Z M317 350 C317 390 296 406 257 406 C209 406 183 381 183 341 L183 298 C215 295 245 294 255 294 C293 294 317 307 317 350 L317 350 Z M203 631 L284 710 L292 718 C304 730 311 737 333 737 C356 737 382 716 382 688 C382 680 380 670 373 660 L291 578 C276 565 268 557 246 557 C218 557 195 577 195 606 C195 616 197 623 203 631 L203 631 Z " />
<glyph glyph-name="ecircumflex" unicode="&#xea;" horiz-adv-x="485" d="M260 191 C234 191 212 193 183 197 L183 164 C183 130 209 108 263 108 C295 108 321 116 353 130 C357 132 366 136 383 136 C431 136 445 104 445 81 C445 11 317 -7 253 -7 C121 -7 45 69 45 168 L45 335 C45 436 119 513 258 513 C389 513 454 444 454 343 C454 247 395 191 260 191 L260 191 Z M317 350 C317 390 296 406 257 406 C209 406 183 381 183 341 L183 298 C215 295 245 294 255 294 C293 294 317 307 317 350 L317 350 Z M253 716 C269 716 281 710 290 703 L369 642 C384 629 395 614 396 597 C396 572 373 551 346 551 C313 551 281 589 253 615 C225 589 193 551 160 551 C133 551 110 572 110 597 C111 614 122 629 137 642 L216 703 C225 710 237 716 253 716 L253 716 Z " />
<glyph glyph-name="edieresis" unicode="&#xeb;" horiz-adv-x="485" d="M260 191 C234 191 212 193 183 197 L183 164 C183 130 209 108 263 108 C295 108 321 116 353 130 C357 132 366 136 383 136 C431 136 445 104 445 81 C445 11 317 -7 253 -7 C121 -7 45 69 45 168 L45 335 C45 436 119 513 258 513 C389 513 454 444 454 343 C454 247 395 191 260 191 L260 191 Z M317 350 C317 390 296 406 257 406 C209 406 183 381 183 341 L183 298 C215 295 245 294 255 294 C293 294 317 307 317 350 L317 350 Z M397 630 C397 595 368 567 332 567 C296 567 266 596 266 630 C266 663 296 691 332 691 C368 691 397 664 397 630 L397 630 Z M218 630 C218 595 189 567 152 567 C116 567 88 596 88 630 C88 663 116 691 152 691 C189 691 218 664 218 630 L218 630 Z " />
<glyph glyph-name="igrave" unicode="&#xec;" horiz-adv-x="285" d="M211 55 C211 20 181 -7 142 -7 C103 -7 73 20 73 55 L73 449 C73 482 103 510 142 510 C181 510 211 482 211 449 L211 55 L211 55 Z M106 710 L187 631 C195 624 195 616 195 606 C195 577 172 557 144 557 C122 557 114 565 99 578 L17 660 C10 670 8 680 8 688 C8 716 34 737 57 737 C79 737 86 730 98 718 L106 710 L106 710 Z " />
<glyph glyph-name="iacute" unicode="&#xed;" horiz-adv-x="285" d="M211 55 C211 20 181 -7 142 -7 C103 -7 73 20 73 55 L73 449 C73 482 103 510 142 510 C181 510 211 482 211 449 L211 55 L211 55 Z M100 631 L181 710 L189 718 C201 730 208 737 230 737 C253 737 279 716 279 688 C279 680 277 670 270 660 L188 578 C173 565 165 557 143 557 C115 557 92 577 92 606 C92 616 94 623 100 631 L100 631 Z " />
<glyph glyph-name="icircumflex" unicode="&#xee;" horiz-adv-x="285" d="M211 55 C211 20 181 -7 142 -7 C103 -7 73 20 73 55 L73 449 C73 482 103 510 142 510 C181 510 211 482 211 449 L211 55 L211 55 Z M143 716 C159 716 171 710 180 703 L259 642 C274 629 285 614 286 597 C286 572 263 551 236 551 C203 551 171 589 143 615 C115 589 83 551 50 551 C23 551 0 572 0 597 C1 614 12 629 27 642 L106 703 C115 710 127 716 143 716 L143 716 Z " />
<glyph glyph-name="idieresis" unicode="&#xef;" horiz-adv-x="285" d="M211 55 C211 20 181 -7 142 -7 C103 -7 73 20 73 55 L73 449 C73 482 103 510 142 510 C181 510 211 482 211 449 L211 55 L211 55 Z M297 630 C297 595 268 567 232 567 C196 567 166 596 166 630 C166 663 196 691 232 691 C268 691 297 664 297 630 L297 630 Z M118 630 C118 595 89 567 52 567 C16 567 -12 596 -12 630 C-12 663 16 691 52 691 C89 691 118 664 118 630 L118 630 Z " />
<glyph glyph-name="eth" unicode="&#xf0;" horiz-adv-x="575" d="M536 684 C536 684 541 683 541 674 C542 662 539 650 528 643 L470 597 C504 533 523 440 523 317 C523 55 435 -9 292 -9 C120 -9 45 88 45 215 C45 342 119 444 261 444 C292 444 336 438 379 414 C376 455 370 487 362 511 L326 483 C314 474 306 471 301 470 C284 467 263 483 263 504 C262 516 265 528 276 535 L323 573 C303 589 279 593 257 595 C231 597 198 601 202 654 C205 690 221 707 287 707 C343 707 390 689 427 654 L478 695 C485 701 492 705 503 707 C530 711 536 684 536 684 L536 684 Z M383 278 L383 290 C354 311 303 326 268 326 C215 326 183 286 183 220 C183 158 212 111 287 111 C360 111 383 161 383 278 L383 278 Z " />
<glyph glyph-name="ntilde" unicode="&#xf1;" horiz-adv-x="549" d="M205 357 L205 55 C205 21 182 -6 136 -6 C90 -6 67 21 67 55 L67 358 C67 391 63 394 59 400 C45 419 42 426 42 439 C42 472 71 497 109 497 C130 497 148 486 162 468 C207 498 254 511 294 511 C420 511 483 433 483 316 L483 55 C483 21 458 -6 414 -6 C370 -6 345 21 345 55 L345 316 C345 366 320 397 280 397 C259 397 234 390 203 376 C204 369 205 363 205 357 L205 357 Z M418 643 C418 601 367 570 328 570 C275 570 247 606 217 610 C187 614 185 574 152 574 C131 574 109 590 106 615 C106 661 149 695 194 695 C250 695 275 655 306 655 C337 655 336 691 369 691 C394 691 418 671 418 643 L418 643 Z " />
<glyph glyph-name="ograve" unicode="&#xf2;" horiz-adv-x="524" d="M262 -7 C120 -7 45 74 45 179 L45 328 C45 433 120 514 262 514 C404 514 479 433 479 328 L479 179 C479 74 404 -7 262 -7 L262 -7 Z M262 111 C314 111 341 137 341 179 L341 329 C341 370 314 396 262 396 C210 396 183 370 183 329 L183 179 C183 137 210 111 262 111 L262 111 Z M233 710 L314 631 C322 624 322 616 322 606 C322 577 299 557 271 557 C249 557 241 565 226 578 L144 660 C137 670 135 680 135 688 C135 716 161 737 184 737 C206 737 213 730 225 718 L233 710 L233 710 Z " />
<glyph glyph-name="oacute" unicode="&#xf3;" horiz-adv-x="524" d="M262 -7 C120 -7 45 74 45 179 L45 328 C45 433 120 514 262 514 C404 514 479 433 479 328 L479 179 C479 74 404 -7 262 -7 L262 -7 Z M262 111 C314 111 341 137 341 179 L341 329 C341 370 314 396 262 396 C210 396 183 370 183 329 L183 179 C183 137 210 111 262 111 L262 111 Z M216 631 L297 710 L305 718 C317 730 324 737 346 737 C369 737 395 716 395 688 C395 680 393 670 386 660 L304 578 C289 565 281 557 259 557 C231 557 208 577 208 606 C208 616 210 623 216 631 L216 631 Z " />
<glyph glyph-name="ocircumflex" unicode="&#xf4;" horiz-adv-x="524" d="M262 -7 C120 -7 45 74 45 179 L45 328 C45 433 120 514 262 514 C404 514 479 433 479 328 L479 179 C479 74 404 -7 262 -7 L262 -7 Z M262 111 C314 111 341 137 341 179 L341 329 C341 370 314 396 262 396 C210 396 183 370 183 329 L183 179 C183 137 210 111 262 111 L262 111 Z M262 716 C278 716 290 710 299 703 L378 642 C393 629 404 614 405 597 C405 572 382 551 355 551 C322 551 290 589 262 615 C234 589 202 551 169 551 C142 551 119 572 119 597 C120 614 131 629 146 642 L225 703 C234 710 246 716 262 716 L262 716 Z " />
<glyph glyph-name="otilde" unicode="&#xf5;" horiz-adv-x="524" d="M262 -7 C120 -7 45 74 45 179 L45 328 C45 433 120 514 262 514 C404 514 479 433 479 328 L479 179 C479 74 404 -7 262 -7 L262 -7 Z M262 111 C314 111 341 137 341 179 L341 329 C341 370 314 396 262 396 C210 396 183 370 183 329 L183 179 C183 137 210 111 262 111 L262 111 Z M418 643 C418 601 367 570 328 570 C275 570 247 606 217 610 C187 614 185 574 152 574 C131 574 109 590 106 615 C106 661 149 695 194 695 C250 695 275 655 306 655 C337 655 336 691 369 691 C394 691 418 671 418 643 L418 643 Z " />
<glyph glyph-name="odieresis" unicode="&#xf6;" horiz-adv-x="524" d="M262 -7 C120 -7 45 74 45 179 L45 328 C45 433 120 514 262 514 C404 514 479 433 479 328 L479 179 C479 74 404 -7 262 -7 L262 -7 Z M262 111 C314 111 341 137 341 179 L341 329 C341 370 314 396 262 396 C210 396 183 370 183 329 L183 179 C183 137 210 111 262 111 L262 111 Z M416 630 C416 595 387 567 351 567 C315 567 285 596 285 630 C285 663 315 691 351 691 C387 691 416 664 416 630 L416 630 Z M237 630 C237 595 208 567 171 567 C135 567 107 596 107 630 C107 663 135 691 171 691 C208 691 237 664 237 630 L237 630 Z " />
<glyph glyph-name="oslash" unicode="&#xf8;" horiz-adv-x="524" d="M262 -7 C210 -7 168 3 134 22 L113 -9 C105 -20 88 -23 77 -15 C65 -7 63 9 70 21 L93 54 C61 86 45 130 45 179 L45 328 C45 433 120 514 262 514 C315 514 359 503 393 483 L415 514 C423 525 439 529 451 520 C464 511 466 496 458 484 L434 450 C463 417 479 375 479 328 L479 179 C479 74 404 -7 262 -7 L262 -7 Z M183 329 L183 182 L320 378 C307 389 287 396 262 396 C210 396 183 370 183 329 L183 329 Z M262 111 C314 111 341 137 341 179 L341 317 L207 126 C220 116 238 111 262 111 L262 111 Z " />
<glyph glyph-name="ugrave" unicode="&#xf9;" horiz-adv-x="549" d="M388 37 C341 4 295 -7 250 -7 C129 -7 64 72 64 189 L64 450 C64 484 89 510 133 510 C177 510 202 484 202 450 L202 189 C202 138 223 109 267 109 C288 109 313 116 344 130 C343 137 342 143 342 149 L342 450 C342 484 365 510 411 510 C457 510 480 484 480 450 L480 129 C480 114 486 107 499 94 C509 84 513 74 513 60 C513 20 479 -1 449 -1 C423 -1 403 15 388 37 L388 37 Z M242 710 L323 631 C331 624 331 616 331 606 C331 577 308 557 280 557 C258 557 250 565 235 578 L153 660 C146 670 144 680 144 688 C144 716 170 737 193 737 C215 737 222 730 234 718 L242 710 L242 710 Z " />
<glyph glyph-name="uacute" unicode="&#xfa;" horiz-adv-x="549" d="M388 37 C341 4 295 -7 250 -7 C129 -7 64 72 64 189 L64 450 C64 484 89 510 133 510 C177 510 202 484 202 450 L202 189 C202 138 223 109 267 109 C288 109 313 116 344 130 C343 137 342 143 342 149 L342 450 C342 484 365 510 411 510 C457 510 480 484 480 450 L480 129 C480 114 486 107 499 94 C509 84 513 74 513 60 C513 20 479 -1 449 -1 C423 -1 403 15 388 37 L388 37 Z M232 631 L313 710 L321 718 C333 730 340 737 362 737 C385 737 411 716 411 688 C411 680 409 670 402 660 L320 578 C305 565 297 557 275 557 C247 557 224 577 224 606 C224 616 226 623 232 631 L232 631 Z " />
<glyph glyph-name="ucircumflex" unicode="&#xfb;" horiz-adv-x="549" d="M388 37 C341 4 295 -7 250 -7 C129 -7 64 72 64 189 L64 450 C64 484 89 510 133 510 C177 510 202 484 202 450 L202 189 C202 138 223 109 267 109 C288 109 313 116 344 130 C343 137 342 143 342 149 L342 450 C342 484 365 510 411 510 C457 510 480 484 480 450 L480 129 C480 114 486 107 499 94 C509 84 513 74 513 60 C513 20 479 -1 449 -1 C423 -1 403 15 388 37 L388 37 Z M274 716 C290 716 302 710 311 703 L390 642 C405 629 416 614 417 597 C417 572 394 551 367 551 C334 551 302 589 274 615 C246 589 214 551 181 551 C154 551 131 572 131 597 C132 614 143 629 158 642 L237 703 C246 710 258 716 274 716 L274 716 Z " />
<glyph glyph-name="udieresis" unicode="&#xfc;" horiz-adv-x="549" d="M388 37 C341 4 295 -7 250 -7 C129 -7 64 72 64 189 L64 450 C64 484 89 510 133 510 C177 510 202 484 202 450 L202 189 C202 138 223 109 267 109 C288 109 313 116 344 130 C343 137 342 143 342 149 L342 450 C342 484 365 510 411 510 C457 510 480 484 480 450 L480 129 C480 114 486 107 499 94 C509 84 513 74 513 60 C513 20 479 -1 449 -1 C423 -1 403 15 388 37 L388 37 Z M429 630 C429 595 400 567 364 567 C328 567 298 596 298 630 C298 663 328 691 364 691 C400 691 429 664 429 630 L429 630 Z M250 630 C250 595 221 567 184 567 C148 567 120 596 120 630 C120 663 148 691 184 691 C221 691 250 664 250 630 L250 630 Z " />
<glyph glyph-name="yacute" unicode="&#xfd;" horiz-adv-x="474" d="M271 300 L325 468 C334 497 363 510 390 510 C425 510 459 485 459 449 C459 442 458 436 456 431 L334 75 C279 -87 241 -203 89 -203 C49 -203 19 -178 19 -143 C19 -113 44 -85 85 -83 C129 -81 151 -49 175 29 L21 426 C17 436 16 445 16 451 C16 485 46 510 85 510 C112 510 137 496 148 468 L211 300 C225 264 232 222 243 185 C252 222 259 264 271 300 L271 300 Z M192 631 L273 710 L281 718 C293 730 300 737 322 737 C345 737 371 716 371 688 C371 680 369 670 362 660 L280 578 C265 565 257 557 235 557 C207 557 184 577 184 606 C184 616 186 623 192 631 L192 631 Z " />
<glyph glyph-name="thorn" unicode="&#xfe;" horiz-adv-x="535" d="M202 381 L202 145 C223 126 251 117 283 117 C332 117 352 138 352 174 L352 352 C352 388 332 409 283 409 C251 409 223 400 202 381 L202 381 Z M64 -155 L64 661 C64 693 89 722 133 722 C177 722 202 693 202 661 L202 485 C234 503 264 513 311 513 C438 513 490 441 490 347 L490 179 C490 85 438 13 311 13 C264 13 234 23 202 41 L202 -155 C202 -187 177 -216 133 -216 C89 -216 64 -187 64 -155 L64 -155 Z " />
<glyph glyph-name="ydieresis" unicode="&#xff;" horiz-adv-x="474" d="M271 300 L325 468 C334 497 363 510 390 510 C425 510 459 485 459 449 C459 442 458 436 456 431 L334 75 C279 -87 241 -203 89 -203 C49 -203 19 -178 19 -143 C19 -113 44 -85 85 -83 C129 -81 151 -49 175 29 L21 426 C17 436 16 445 16 451 C16 485 46 510 85 510 C112 510 137 496 148 468 L211 300 C225 264 232 222 243 185 C252 222 259 264 271 300 L271 300 Z M391 630 C391 595 362 567 326 567 C290 567 260 596 260 630 C260 663 290 691 326 691 C362 691 391 664 391 630 L391 630 Z M212 630 C212 595 183 567 146 567 C110 567 82 596 82 630 C82 663 110 691 146 691 C183 691 212 664 212 630 L212 630 Z " />
<glyph glyph-name="Amacron" unicode="&#x100;" horiz-adv-x="589" d="M186 139 L153 38 C143 9 111 -9 87 -9 C48 -9 15 17 15 55 C15 60 16 72 18 77 L213 646 C226 685 246 714 294 714 C342 714 362 686 376 646 L571 77 C573 72 574 60 574 55 C574 17 543 -9 502 -9 C476 -9 444 10 434 38 L399 139 L186 139 L186 139 Z M363 253 L312 424 C303 453 298 491 294 522 C290 491 285 453 276 424 L223 253 L363 253 L363 253 Z M485 830 C485 801 460 779 429 779 L160 779 C128 779 103 801 103 830 C103 858 128 881 160 881 L429 881 C460 881 485 858 485 830 L485 830 Z " />
<glyph glyph-name="amacron" unicode="&#x101;" horiz-adv-x="522" d="M450 306 L450 120 C450 90 465 93 482 86 C497 80 505 69 505 48 C505 16 486 -4 433 -4 C396 -4 371 6 348 38 C311 8 269 -7 213 -7 C97 -7 35 56 35 151 L35 154 C35 256 101 307 233 307 C260 307 286 305 312 297 L312 329 C312 376 287 398 236 398 C208 398 191 391 171 382 C163 379 152 372 133 372 C91 372 75 405 75 430 C75 489 163 513 246 513 C391 513 450 441 450 306 L450 306 Z M241 210 C183 210 172 183 172 153 L172 150 C172 117 191 104 234 104 C260 104 286 110 312 130 L312 202 C287 207 261 210 241 210 L241 210 Z M452 630 C452 601 427 579 396 579 L127 579 C95 579 70 601 70 630 C70 658 95 681 127 681 L396 681 C427 681 452 658 452 630 L452 630 Z " />
<glyph glyph-name="Abreve" unicode="&#x102;" horiz-adv-x="589" d="M186 139 L153 38 C143 9 111 -9 87 -9 C48 -9 15 17 15 55 C15 60 16 72 18 77 L213 646 C226 685 246 714 294 714 C342 714 362 686 376 646 L571 77 C573 72 574 60 574 55 C574 17 543 -9 502 -9 C476 -9 444 10 434 38 L399 139 L186 139 L186 139 Z M363 253 L312 424 C303 453 298 491 294 522 C290 491 285 453 276 424 L223 253 L363 253 L363 253 Z M294 845 C312 845 334 856 353 876 C364 891 381 899 399 899 C426 899 453 881 443 843 C427 785 348 753 294 753 C240 753 163 785 145 843 C135 881 162 899 189 899 C206 899 224 891 234 876 C254 856 276 845 294 845 L294 845 Z " />
<glyph glyph-name="abreve" unicode="&#x103;" horiz-adv-x="522" d="M450 306 L450 120 C450 90 465 93 482 86 C497 80 505 69 505 48 C505 16 486 -4 433 -4 C396 -4 371 6 348 38 C311 8 269 -7 213 -7 C97 -7 35 56 35 151 L35 154 C35 256 101 307 233 307 C260 307 286 305 312 297 L312 329 C312 376 287 398 236 398 C208 398 191 391 171 382 C163 379 152 372 133 372 C91 372 75 405 75 430 C75 489 163 513 246 513 C391 513 450 441 450 306 L450 306 Z M241 210 C183 210 172 183 172 153 L172 150 C172 117 191 104 234 104 C260 104 286 110 312 130 L312 202 C287 207 261 210 241 210 L241 210 Z M261 645 C279 645 301 656 320 676 C331 691 348 699 366 699 C393 699 420 681 410 643 C394 585 315 553 261 553 C207 553 130 585 112 643 C102 681 129 699 156 699 C173 699 191 691 201 676 C221 656 243 645 261 645 L261 645 Z " />
<glyph glyph-name="Aogonek" unicode="&#x104;" horiz-adv-x="589" d="M625 -166 C625 -212 568 -219 530 -219 C458 -219 409 -187 409 -117 C409 -78 428 -32 455 9 C446 17 438 26 434 38 L399 139 L186 139 L153 38 C143 9 111 -9 87 -9 C48 -9 15 17 15 55 C15 60 16 72 18 77 L213 646 C226 685 246 714 294 714 C342 714 362 686 376 646 L571 77 C573 72 574 60 574 55 C574 38 566 24 557 12 C534 -18 512 -65 512 -102 C512 -116 520 -127 538 -127 C549 -127 561 -124 571 -123 L580 -123 C605 -123 625 -143 625 -166 L625 -166 Z M363 253 L312 424 C303 453 298 491 294 522 C290 491 285 453 276 424 L223 253 L363 253 L363 253 Z " />
<glyph glyph-name="aogonek" unicode="&#x105;" horiz-adv-x="522" d="M552 -166 C552 -212 495 -219 457 -219 C385 -219 336 -187 336 -117 C336 -80 357 -36 388 3 C373 10 360 21 348 38 C311 8 269 -7 213 -7 C97 -7 35 56 35 151 L35 154 C35 256 101 307 233 307 C260 307 286 305 312 297 L312 329 C312 376 287 398 236 398 C208 398 191 391 171 382 C163 379 152 372 133 372 C91 372 75 405 75 430 C75 489 163 513 246 513 C391 513 450 441 450 306 L450 120 C450 90 465 93 482 86 C497 80 505 69 505 48 C505 32 499 20 490 10 C465 -19 439 -66 439 -102 C439 -116 447 -127 465 -127 C476 -127 488 -124 498 -123 L507 -123 C532 -123 552 -143 552 -166 L552 -166 Z M241 210 C183 210 172 183 172 153 L172 150 C172 117 191 104 234 104 C260 104 286 110 312 130 L312 202 C287 207 261 210 241 210 L241 210 Z " />
<glyph glyph-name="Cacute" unicode="&#x106;" horiz-adv-x="522" d="M175 452 L175 254 C175 168 205 114 295 114 C327 114 353 122 378 138 L388 144 C401 152 408 159 431 159 C469 159 497 131 497 99 C497 41 396 -8 290 -8 C115 -8 35 96 35 254 L35 452 C35 610 115 714 290 714 C396 714 497 665 497 607 C497 575 469 547 431 547 C408 547 401 554 388 562 L378 568 C353 584 327 592 295 592 C205 592 175 538 175 452 L175 452 Z M228 831 L309 910 L317 918 C329 930 336 937 358 937 C381 937 407 916 407 888 C407 880 405 870 398 860 L316 778 C301 765 293 757 271 757 C243 757 220 777 220 806 C220 816 222 823 228 831 L228 831 Z " />
<glyph glyph-name="cacute" unicode="&#x107;" horiz-adv-x="443" d="M45 184 L45 319 C45 426 109 510 252 510 C311 510 423 496 423 423 C423 399 411 372 361 372 C351 372 342 373 328 378 C307 386 291 395 260 395 C205 395 183 366 183 319 L183 184 C183 137 205 108 260 108 C291 108 308 117 328 125 C338 129 345 131 359 131 C411 131 423 103 423 80 C423 8 311 -7 251 -7 C110 -7 45 77 45 184 L45 184 Z M181 631 L262 710 L270 718 C282 730 289 737 311 737 C334 737 360 716 360 688 C360 680 358 670 351 660 L269 578 C254 565 246 557 224 557 C196 557 173 577 173 606 C173 616 175 623 181 631 L181 631 Z " />
<glyph glyph-name="Ccircumflex" unicode="&#x108;" horiz-adv-x="522" d="M175 452 L175 254 C175 168 205 114 295 114 C327 114 353 122 378 138 L388 144 C401 152 408 159 431 159 C469 159 497 131 497 99 C497 41 396 -8 290 -8 C115 -8 35 96 35 254 L35 452 C35 610 115 714 290 714 C396 714 497 665 497 607 C497 575 469 547 431 547 C408 547 401 554 388 562 L378 568 C353 584 327 592 295 592 C205 592 175 538 175 452 L175 452 Z M261 916 C277 916 289 910 298 903 L377 842 C392 829 403 814 404 797 C404 772 381 751 354 751 C321 751 289 789 261 815 C233 789 201 751 168 751 C141 751 118 772 118 797 C119 814 130 829 145 842 L224 903 C233 910 245 916 261 916 L261 916 Z " />
<glyph glyph-name="ccircumflex" unicode="&#x109;" horiz-adv-x="443" d="M45 184 L45 319 C45 426 109 510 252 510 C311 510 423 496 423 423 C423 399 411 372 361 372 C351 372 342 373 328 378 C307 386 291 395 260 395 C205 395 183 366 183 319 L183 184 C183 137 205 108 260 108 C291 108 308 117 328 125 C338 129 345 131 359 131 C411 131 423 103 423 80 C423 8 311 -7 251 -7 C110 -7 45 77 45 184 L45 184 Z M255 716 C271 716 283 710 292 703 L371 642 C386 629 397 614 398 597 C398 572 375 551 348 551 C315 551 283 589 255 615 C227 589 195 551 162 551 C135 551 112 572 112 597 C113 614 124 629 139 642 L218 703 C227 710 239 716 255 716 L255 716 Z " />
<glyph glyph-name="Cdotaccent" unicode="&#x10a;" horiz-adv-x="522" d="M175 452 L175 254 C175 168 205 114 295 114 C327 114 353 122 378 138 L388 144 C401 152 408 159 431 159 C469 159 497 131 497 99 C497 41 396 -8 290 -8 C115 -8 35 96 35 254 L35 452 C35 610 115 714 290 714 C396 714 497 665 497 607 C497 575 469 547 431 547 C408 547 401 554 388 562 L378 568 C353 584 327 592 295 592 C205 592 175 538 175 452 L175 452 Z M326 815 C326 780 297 752 260 752 C224 752 196 781 196 815 C196 848 224 876 260 876 C297 876 326 849 326 815 L326 815 Z " />
<glyph glyph-name="cdotaccent" unicode="&#x10b;" horiz-adv-x="443" d="M45 184 L45 319 C45 426 109 510 252 510 C311 510 423 496 423 423 C423 399 411 372 361 372 C351 372 342 373 328 378 C307 386 291 395 260 395 C205 395 183 366 183 319 L183 184 C183 137 205 108 260 108 C291 108 308 117 328 125 C338 129 345 131 359 131 C411 131 423 103 423 80 C423 8 311 -7 251 -7 C110 -7 45 77 45 184 L45 184 Z M286 615 C286 580 257 552 220 552 C184 552 156 581 156 615 C156 648 184 676 220 676 C257 676 286 649 286 615 L286 615 Z " />
<glyph glyph-name="Ccaron" unicode="&#x10c;" horiz-adv-x="522" d="M175 452 L175 254 C175 168 205 114 295 114 C327 114 353 122 378 138 L388 144 C401 152 408 159 431 159 C469 159 497 131 497 99 C497 41 396 -8 290 -8 C115 -8 35 96 35 254 L35 452 C35 610 115 714 290 714 C396 714 497 665 497 607 C497 575 469 547 431 547 C408 547 401 554 388 562 L378 568 C353 584 327 592 295 592 C205 592 175 538 175 452 L175 452 Z M289 851 L347 903 C356 911 375 915 383 915 C409 915 432 894 432 869 C432 852 420 837 405 824 L326 763 C318 756 305 750 289 750 C273 750 260 756 252 763 L173 824 C158 837 146 852 146 869 C146 894 169 915 195 915 C203 915 222 911 231 903 L289 851 L289 851 Z " />
<glyph glyph-name="ccaron" unicode="&#x10d;" horiz-adv-x="443" d="M45 184 L45 319 C45 426 109 510 252 510 C311 510 423 496 423 423 C423 399 411 372 361 372 C351 372 342 373 328 378 C307 386 291 395 260 395 C205 395 183 366 183 319 L183 184 C183 137 205 108 260 108 C291 108 308 117 328 125 C338 129 345 131 359 131 C411 131 423 103 423 80 C423 8 311 -7 251 -7 C110 -7 45 77 45 184 L45 184 Z M252 651 L310 703 C319 711 338 715 346 715 C372 715 395 694 395 669 C395 652 383 637 368 624 L289 563 C281 556 268 550 252 550 C236 550 223 556 215 563 L136 624 C121 637 109 652 109 669 C109 694 132 715 158 715 C166 715 185 711 194 703 L252 651 L252 651 Z " />
<glyph glyph-name="Dcaron" unicode="&#x10e;" horiz-adv-x="594" d="M558 271 C558 130 481 0 254 0 L141 0 C99 0 63 33 63 72 L63 634 C63 673 99 706 141 706 L254 706 C480 706 558 582 558 443 L558 271 L558 271 Z M418 271 L418 443 C418 519 379 579 271 579 L203 579 L203 127 L271 127 C381 127 418 192 418 271 L418 271 Z M297 851 L355 903 C364 911 383 915 391 915 C417 915 440 894 440 869 C440 852 428 837 413 824 L334 763 C326 756 313 750 297 750 C281 750 268 756 260 763 L181 824 C166 837 154 852 154 869 C154 894 177 915 203 915 C211 915 230 911 239 903 L297 851 L297 851 Z " />
<glyph glyph-name="dcaron" unicode="&#x10f;" horiz-adv-x="710" d="M235 509 C266 509 287 505 323 490 L323 661 C323 695 348 722 392 722 C436 722 461 694 461 661 L461 129 C461 114 467 107 480 94 C490 84 494 74 494 60 C494 20 460 -1 429 -1 C404 -1 384 15 369 37 C320 10 279 -7 228 -7 C112 -7 45 72 45 189 L45 302 C45 421 92 509 235 509 L235 509 Z M323 149 L323 382 C292 391 267 395 250 395 C201 395 183 364 183 302 L183 189 C183 137 205 109 248 109 C269 109 294 116 325 130 C324 137 323 143 323 149 L323 149 Z M546 484 C549 517 571 529 579 573 C541 581 514 612 514 648 C514 690 551 725 598 725 C642 725 681 693 681 644 C681 584 637 439 587 439 C571 439 541 445 546 484 L546 484 Z " />
<glyph glyph-name="Dcroat" unicode="&#x110;" horiz-adv-x="616" d="M581 271 C581 130 504 0 277 0 L164 0 C122 0 86 33 86 72 L86 292 L77 292 C39 292 10 319 10 353 C10 386 39 415 77 415 L86 415 L86 633 C86 672 122 705 164 705 L277 705 C503 705 581 582 581 443 L581 271 L581 271 Z M392 353 C392 319 363 292 326 292 L226 292 L226 127 L294 127 C404 127 441 192 441 271 L441 443 C441 519 402 578 294 578 L226 578 L226 415 L326 415 C363 415 392 386 392 353 L392 353 Z " />
<glyph glyph-name="dcroat" unicode="&#x111;" horiz-adv-x="592" d="M235 509 C266 509 287 505 323 490 L323 549 L247 549 C221 549 200 571 200 598 C200 625 221 648 247 648 L323 648 L323 661 C323 695 348 722 392 722 C436 722 461 694 461 661 L461 648 L526 648 C551 648 572 625 572 598 C572 572 551 549 526 549 L461 549 L461 129 C461 114 467 107 480 94 C490 84 494 74 494 60 C494 20 460 -1 429 -1 C404 -1 384 15 369 37 C320 10 279 -7 228 -7 C112 -7 45 72 45 189 L45 302 C45 421 92 509 235 509 L235 509 Z M323 149 L323 382 C292 391 267 395 250 395 C201 395 183 364 183 302 L183 189 C183 137 205 109 248 109 C269 109 294 116 325 130 C324 137 323 143 323 149 L323 149 Z " />
<glyph glyph-name="Emacron" unicode="&#x112;" horiz-adv-x="514" d="M491 65 C491 29 459 0 421 0 L156 0 C107 0 63 17 63 71 L63 634 C63 669 96 705 140 705 L411 705 C449 705 481 675 481 640 C481 604 449 578 411 578 L203 578 L203 417 L392 417 C427 417 461 390 461 354 C461 318 431 290 392 290 L203 290 L203 127 L421 127 C458 127 491 99 491 65 L491 65 Z M448 830 C448 801 423 779 392 779 L123 779 C91 779 66 801 66 830 C66 858 91 881 123 881 L392 881 C423 881 448 858 448 830 L448 830 Z " />
<glyph glyph-name="emacron" unicode="&#x113;" horiz-adv-x="485" d="M260 191 C234 191 212 193 183 197 L183 164 C183 130 209 108 263 108 C295 108 321 116 353 130 C357 132 366 136 383 136 C431 136 445 104 445 81 C445 11 317 -7 253 -7 C121 -7 45 69 45 168 L45 335 C45 436 119 513 258 513 C389 513 454 444 454 343 C454 247 395 191 260 191 L260 191 Z M317 350 C317 390 296 406 257 406 C209 406 183 381 183 341 L183 298 C215 295 245 294 255 294 C293 294 317 307 317 350 L317 350 Z M433 630 C433 601 408 579 377 579 L108 579 C76 579 51 601 51 630 C51 658 76 681 108 681 L377 681 C408 681 433 658 433 630 L433 630 Z " />
<glyph glyph-name="Ebreve" unicode="&#x114;" horiz-adv-x="514" d="M491 65 C491 29 459 0 421 0 L156 0 C107 0 63 17 63 71 L63 634 C63 669 96 705 140 705 L411 705 C449 705 481 675 481 640 C481 604 449 578 411 578 L203 578 L203 417 L392 417 C427 417 461 390 461 354 C461 318 431 290 392 290 L203 290 L203 127 L421 127 C458 127 491 99 491 65 L491 65 Z M257 845 C275 845 297 856 316 876 C327 891 344 899 362 899 C389 899 416 881 406 843 C390 785 311 753 257 753 C203 753 126 785 108 843 C98 881 125 899 152 899 C169 899 187 891 197 876 C217 856 239 845 257 845 L257 845 Z " />
<glyph glyph-name="ebreve" unicode="&#x115;" horiz-adv-x="485" d="M260 191 C234 191 212 193 183 197 L183 164 C183 130 209 108 263 108 C295 108 321 116 353 130 C357 132 366 136 383 136 C431 136 445 104 445 81 C445 11 317 -7 253 -7 C121 -7 45 69 45 168 L45 335 C45 436 119 513 258 513 C389 513 454 444 454 343 C454 247 395 191 260 191 L260 191 Z M317 350 C317 390 296 406 257 406 C209 406 183 381 183 341 L183 298 C215 295 245 294 255 294 C293 294 317 307 317 350 L317 350 Z M242 645 C260 645 282 656 301 676 C312 691 329 699 347 699 C374 699 401 681 391 643 C375 585 296 553 242 553 C188 553 111 585 93 643 C83 681 110 699 137 699 C154 699 172 691 182 676 C202 656 224 645 242 645 L242 645 Z " />
<glyph glyph-name="Edotaccent" unicode="&#x116;" horiz-adv-x="514" d="M491 65 C491 29 459 0 421 0 L156 0 C107 0 63 17 63 71 L63 634 C63 669 96 705 140 705 L411 705 C449 705 481 675 481 640 C481 604 449 578 411 578 L203 578 L203 417 L392 417 C427 417 461 390 461 354 C461 318 431 290 392 290 L203 290 L203 127 L421 127 C458 127 491 99 491 65 L491 65 Z M322 815 C322 780 293 752 256 752 C220 752 192 781 192 815 C192 848 220 876 256 876 C293 876 322 849 322 815 L322 815 Z " />
<glyph glyph-name="edotaccent" unicode="&#x117;" horiz-adv-x="485" d="M260 191 C234 191 212 193 183 197 L183 164 C183 130 209 108 263 108 C295 108 321 116 353 130 C357 132 366 136 383 136 C431 136 445 104 445 81 C445 11 317 -7 253 -7 C121 -7 45 69 45 168 L45 335 C45 436 119 513 258 513 C389 513 454 444 454 343 C454 247 395 191 260 191 L260 191 Z M317 350 C317 390 296 406 257 406 C209 406 183 381 183 341 L183 298 C215 295 245 294 255 294 C293 294 317 307 317 350 L317 350 Z M307 615 C307 580 278 552 241 552 C205 552 177 581 177 615 C177 648 205 676 241 676 C278 676 307 649 307 615 L307 615 Z " />
<glyph glyph-name="Eogonek" unicode="&#x118;" horiz-adv-x="514" d="M489 -166 C489 -212 432 -219 394 -219 C322 -219 273 -187 273 -117 C273 -81 292 -39 320 0 L156 0 C107 0 63 17 63 71 L63 634 C63 669 96 705 140 705 L411 705 C449 705 481 675 481 640 C481 604 449 578 411 578 L203 578 L203 417 L392 417 C427 417 461 390 461 354 C461 318 431 290 392 290 L203 290 L203 127 L421 127 C458 127 491 99 491 65 C491 29 459 0 421 0 L402 -31 C389 -53 376 -81 376 -102 C376 -116 384 -127 402 -127 C413 -127 425 -124 435 -123 L444 -123 C469 -123 489 -143 489 -166 L489 -166 Z " />
<glyph glyph-name="eogonek" unicode="&#x119;" horiz-adv-x="485" d="M454 -166 C454 -212 397 -219 359 -219 C287 -219 238 -187 238 -117 C238 -83 255 -43 281 -6 C271 -6 261 -7 253 -7 C121 -7 45 69 45 168 L45 335 C45 436 119 513 258 513 C389 513 454 444 454 343 C454 247 395 191 260 191 C234 191 212 193 183 197 L183 164 C183 130 209 108 263 108 C295 108 321 116 353 130 C357 132 366 136 383 136 C431 136 445 104 445 81 C445 53 419 40 396 20 C365 -7 341 -63 341 -102 C341 -116 349 -127 367 -127 C378 -127 390 -124 400 -123 L409 -123 C434 -123 454 -143 454 -166 L454 -166 Z M317 350 C317 390 296 406 257 406 C209 406 183 381 183 341 L183 298 C215 295 245 294 255 294 C293 294 317 307 317 350 L317 350 Z " />
<glyph glyph-name="Ecaron" unicode="&#x11a;" horiz-adv-x="514" d="M491 65 C491 29 459 0 421 0 L156 0 C107 0 63 17 63 71 L63 634 C63 669 96 705 140 705 L411 705 C449 705 481 675 481 640 C481 604 449 578 411 578 L203 578 L203 417 L392 417 C427 417 461 390 461 354 C461 318 431 290 392 290 L203 290 L203 127 L421 127 C458 127 491 99 491 65 L491 65 Z M281 851 L339 903 C348 911 367 915 375 915 C401 915 424 894 424 869 C424 852 412 837 397 824 L318 763 C310 756 297 750 281 750 C265 750 252 756 244 763 L165 824 C150 837 138 852 138 869 C138 894 161 915 187 915 C195 915 214 911 223 903 L281 851 L281 851 Z " />
<glyph glyph-name="ecaron" unicode="&#x11b;" horiz-adv-x="485" d="M260 191 C234 191 212 193 183 197 L183 164 C183 130 209 108 263 108 C295 108 321 116 353 130 C357 132 366 136 383 136 C431 136 445 104 445 81 C445 11 317 -7 253 -7 C121 -7 45 69 45 168 L45 335 C45 436 119 513 258 513 C389 513 454 444 454 343 C454 247 395 191 260 191 L260 191 Z M317 350 C317 390 296 406 257 406 C209 406 183 381 183 341 L183 298 C215 295 245 294 255 294 C293 294 317 307 317 350 L317 350 Z M242 651 L300 703 C309 711 328 715 336 715 C362 715 385 694 385 669 C385 652 373 637 358 624 L279 563 C271 556 258 550 242 550 C226 550 213 556 205 563 L126 624 C111 637 99 652 99 669 C99 694 122 715 148 715 C156 715 175 711 184 703 L242 651 L242 651 Z " />
<glyph glyph-name="Gcircumflex" unicode="&#x11c;" horiz-adv-x="560" d="M175 452 L175 254 C175 168 205 114 295 114 C330 114 355 123 378 135 L378 291 L326 291 C293 291 263 319 263 354 C263 389 293 417 326 417 L435 417 C481 417 517 395 517 347 L517 126 C517 32 393 -8 290 -8 C115 -8 35 96 35 254 L35 452 C35 610 115 714 290 714 C396 714 497 665 497 607 C497 575 469 547 431 547 C408 547 401 554 388 562 L378 568 C353 583 327 592 295 592 C205 592 175 538 175 452 L175 452 Z M280 916 C296 916 308 910 317 903 L396 842 C411 829 422 814 423 797 C423 772 400 751 373 751 C340 751 308 789 280 815 C252 789 220 751 187 751 C160 751 137 772 137 797 C138 814 149 829 164 842 L243 903 C252 910 264 916 280 916 L280 916 Z " />
<glyph glyph-name="gcircumflex" unicode="&#x11d;" horiz-adv-x="533" d="M35 -80 C35 -41 52 -8 99 30 C83 58 78 91 78 112 C78 135 85 159 106 185 C63 221 42 268 42 323 C42 431 114 513 242 513 C293 513 333 500 376 479 C403 516 436 534 464 534 C498 534 529 509 529 476 C529 459 520 446 513 440 C478 409 468 400 468 372 L468 316 C468 213 399 134 253 134 C237 134 216 135 198 139 C193 126 192 123 192 116 C192 88 208 84 220 84 L262 84 C392 84 492 36 492 -70 C492 -176 393 -242 257 -242 C126 -242 35 -180 35 -80 L35 -80 Z M330 385 C304 396 282 402 259 402 C208 402 180 373 180 321 C180 273 203 242 257 242 C307 242 330 270 330 315 L330 385 L330 385 Z M264 -29 L191 -28 C179 -43 173 -54 173 -70 C173 -107 201 -129 259 -129 C316 -129 354 -108 354 -73 C354 -43 326 -29 264 -29 L264 -29 Z M266 716 C282 716 294 710 303 703 L382 642 C397 629 408 614 409 597 C409 572 386 551 359 551 C326 551 294 589 266 615 C238 589 206 551 173 551 C146 551 123 572 123 597 C124 614 135 629 150 642 L229 703 C238 710 250 716 266 716 L266 716 Z " />
<glyph glyph-name="Gbreve" unicode="&#x11e;" horiz-adv-x="560" d="M175 452 L175 254 C175 168 205 114 295 114 C330 114 355 123 378 135 L378 291 L326 291 C293 291 263 319 263 354 C263 389 293 417 326 417 L435 417 C481 417 517 395 517 347 L517 126 C517 32 393 -8 290 -8 C115 -8 35 96 35 254 L35 452 C35 610 115 714 290 714 C396 714 497 665 497 607 C497 575 469 547 431 547 C408 547 401 554 388 562 L378 568 C353 583 327 592 295 592 C205 592 175 538 175 452 L175 452 Z M280 845 C298 845 320 856 339 876 C350 891 367 899 385 899 C412 899 439 881 429 843 C413 785 334 753 280 753 C226 753 149 785 131 843 C121 881 148 899 175 899 C192 899 210 891 220 876 C240 856 262 845 280 845 L280 845 Z " />
<glyph glyph-name="gbreve" unicode="&#x11f;" horiz-adv-x="533" d="M35 -80 C35 -41 52 -8 99 30 C83 58 78 91 78 112 C78 135 85 159 106 185 C63 221 42 268 42 323 C42 431 114 513 242 513 C293 513 333 500 376 479 C403 516 436 534 464 534 C498 534 529 509 529 476 C529 459 520 446 513 440 C478 409 468 400 468 372 L468 316 C468 213 399 134 253 134 C237 134 216 135 198 139 C193 126 192 123 192 116 C192 88 208 84 220 84 L262 84 C392 84 492 36 492 -70 C492 -176 393 -242 257 -242 C126 -242 35 -180 35 -80 L35 -80 Z M330 385 C304 396 282 402 259 402 C208 402 180 373 180 321 C180 273 203 242 257 242 C307 242 330 270 330 315 L330 385 L330 385 Z M264 -29 L191 -28 C179 -43 173 -54 173 -70 C173 -107 201 -129 259 -129 C316 -129 354 -108 354 -73 C354 -43 326 -29 264 -29 L264 -29 Z M266 645 C284 645 306 656 325 676 C336 691 353 699 371 699 C398 699 425 681 415 643 C399 585 320 553 266 553 C212 553 135 585 117 643 C107 681 134 699 161 699 C178 699 196 691 206 676 C226 656 248 645 266 645 L266 645 Z " />
<glyph glyph-name="Gdotaccent" unicode="&#x120;" horiz-adv-x="560" d="M175 452 L175 254 C175 168 205 114 295 114 C330 114 355 123 378 135 L378 291 L326 291 C293 291 263 319 263 354 C263 389 293 417 326 417 L435 417 C481 417 517 395 517 347 L517 126 C517 32 393 -8 290 -8 C115 -8 35 96 35 254 L35 452 C35 610 115 714 290 714 C396 714 497 665 497 607 C497 575 469 547 431 547 C408 547 401 554 388 562 L378 568 C353 583 327 592 295 592 C205 592 175 538 175 452 L175 452 Z M345 815 C345 780 316 752 279 752 C243 752 215 781 215 815 C215 848 243 876 279 876 C316 876 345 849 345 815 L345 815 Z " />
<glyph glyph-name="gdotaccent" unicode="&#x121;" horiz-adv-x="533" d="M35 -80 C35 -41 52 -8 99 30 C83 58 78 91 78 112 C78 135 85 159 106 185 C63 221 42 268 42 323 C42 431 114 513 242 513 C293 513 333 500 376 479 C403 516 436 534 464 534 C498 534 529 509 529 476 C529 459 520 446 513 440 C478 409 468 400 468 372 L468 316 C468 213 399 134 253 134 C237 134 216 135 198 139 C193 126 192 123 192 116 C192 88 208 84 220 84 L262 84 C392 84 492 36 492 -70 C492 -176 393 -242 257 -242 C126 -242 35 -180 35 -80 L35 -80 Z M330 385 C304 396 282 402 259 402 C208 402 180 373 180 321 C180 273 203 242 257 242 C307 242 330 270 330 315 L330 385 L330 385 Z M264 -29 L191 -28 C179 -43 173 -54 173 -70 C173 -107 201 -129 259 -129 C316 -129 354 -108 354 -73 C354 -43 326 -29 264 -29 L264 -29 Z M331 615 C331 580 302 552 265 552 C229 552 201 581 201 615 C201 648 229 676 265 676 C302 676 331 649 331 615 L331 615 Z " />
<glyph glyph-name="uni0122" unicode="&#x122;" horiz-adv-x="560" d="M175 452 L175 254 C175 168 205 114 295 114 C330 114 355 123 378 135 L378 291 L326 291 C293 291 263 319 263 354 C263 389 293 417 326 417 L435 417 C481 417 517 395 517 347 L517 126 C517 32 393 -8 290 -8 C115 -8 35 96 35 254 L35 452 C35 610 115 714 290 714 C396 714 497 665 497 607 C497 575 469 547 431 547 C408 547 401 554 388 562 L378 568 C353 583 327 592 295 592 C205 592 175 538 175 452 L175 452 Z M354 -104 C354 -159 294 -238 257 -238 C248 -238 239 -233 239 -221 C239 -200 264 -187 276 -159 C236 -157 207 -150 207 -106 C207 -74 223 -51 280 -51 C338 -51 354 -75 354 -104 L354 -104 Z " />
<glyph glyph-name="uni0123" unicode="&#x123;" horiz-adv-x="533" d="M35 -80 C35 -41 52 -8 99 30 C83 58 78 91 78 112 C78 135 85 159 106 185 C63 221 42 268 42 323 C42 431 114 513 242 513 C293 513 333 500 376 479 C403 516 436 534 464 534 C498 534 529 509 529 476 C529 459 520 446 513 440 C478 409 468 400 468 372 L468 316 C468 213 399 134 253 134 C237 134 216 135 198 139 C193 126 192 123 192 116 C192 88 208 84 220 84 L262 84 C392 84 492 36 492 -70 C492 -176 393 -242 257 -242 C126 -242 35 -180 35 -80 L35 -80 Z M330 385 C304 396 282 402 259 402 C208 402 180 373 180 321 C180 273 203 242 257 242 C307 242 330 270 330 315 L330 385 L330 385 Z M264 -29 L191 -28 C179 -43 173 -54 173 -70 C173 -107 201 -129 259 -129 C316 -129 354 -108 354 -73 C354 -43 326 -29 264 -29 L264 -29 Z M173 635 C173 690 233 769 270 769 C279 769 288 764 288 752 C288 731 263 717 251 690 C291 688 320 681 320 637 C320 605 304 582 247 582 C189 582 173 606 173 635 L173 635 Z " />
<glyph glyph-name="Hcircumflex" unicode="&#x124;" horiz-adv-x="620" d="M556 56 C556 21 524 -9 486 -9 C449 -9 416 21 416 56 L416 289 L203 289 L203 56 C203 21 171 -9 133 -9 C94 -9 63 21 63 56 L63 650 C63 684 94 714 133 714 C171 714 203 684 203 650 L203 417 L416 417 L416 650 C416 684 449 714 486 714 C523 714 556 684 556 650 L556 56 L556 56 Z M310 916 C326 916 338 910 347 903 L426 842 C441 829 452 814 453 797 C453 772 430 751 403 751 C370 751 338 789 310 815 C282 789 250 751 217 751 C190 751 167 772 167 797 C168 814 179 829 194 842 L273 903 C282 910 294 916 310 916 L310 916 Z " />
<glyph glyph-name="hcircumflex" unicode="&#x125;" horiz-adv-x="547" d="M201 371 L201 55 C201 20 172 -7 133 -7 C94 -7 64 20 64 55 L64 665 C64 697 93 727 132 727 C171 727 201 700 201 665 L201 486 C229 503 262 513 296 513 C424 513 482 441 482 338 L482 55 C482 20 450 -7 413 -7 C374 -7 344 20 344 55 L344 347 C344 385 328 404 287 404 C259 404 224 393 201 371 L201 371 Z M310 916 C326 916 338 910 347 903 L426 842 C441 829 452 814 453 797 C453 772 430 751 403 751 C370 751 338 789 310 815 C282 789 250 751 217 751 C190 751 167 772 167 797 C168 814 179 829 194 842 L273 903 C282 910 294 916 310 916 L310 916 Z " />
<glyph glyph-name="Itilde" unicode="&#x128;" horiz-adv-x="267" d="M63 55 L63 650 C63 684 94 714 133 714 C171 714 203 684 203 650 L203 55 C203 21 171 -9 133 -9 C94 -9 63 21 63 55 L63 55 Z M290 843 C290 801 239 770 200 770 C147 770 119 806 89 810 C59 814 57 774 24 774 C3 774 -19 790 -22 815 C-22 861 21 895 66 895 C122 895 147 855 178 855 C209 855 208 891 241 891 C266 891 290 871 290 843 L290 843 Z " />
<glyph glyph-name="itilde" unicode="&#x129;" horiz-adv-x="285" d="M211 55 C211 20 181 -7 142 -7 C103 -7 73 20 73 55 L73 449 C73 482 103 510 142 510 C181 510 211 482 211 449 L211 55 L211 55 Z M299 643 C299 601 248 570 209 570 C156 570 128 606 98 610 C68 614 66 574 33 574 C12 574 -10 590 -13 615 C-13 661 30 695 75 695 C131 695 156 655 187 655 C218 655 217 691 250 691 C275 691 299 671 299 643 L299 643 Z " />
<glyph glyph-name="Imacron" unicode="&#x12a;" horiz-adv-x="267" d="M63 55 L63 650 C63 684 94 714 133 714 C171 714 203 684 203 650 L203 55 C203 21 171 -9 133 -9 C94 -9 63 21 63 55 L63 55 Z M325 830 C325 801 300 779 269 779 L0 779 C-32 779 -57 801 -57 830 C-57 858 -32 881 0 881 L269 881 C300 881 325 858 325 830 L325 830 Z " />
<glyph glyph-name="imacron" unicode="&#x12b;" horiz-adv-x="285" d="M211 55 C211 20 181 -7 142 -7 C103 -7 73 20 73 55 L73 449 C73 482 103 510 142 510 C181 510 211 482 211 449 L211 55 L211 55 Z M334 630 C334 601 309 579 278 579 L9 579 C-23 579 -48 601 -48 630 C-48 658 -23 681 9 681 L278 681 C309 681 334 658 334 630 L334 630 Z " />
<glyph glyph-name="Ibreve" unicode="&#x12c;" horiz-adv-x="267" d="M63 55 L63 650 C63 684 94 714 133 714 C171 714 203 684 203 650 L203 55 C203 21 171 -9 133 -9 C94 -9 63 21 63 55 L63 55 Z M134 845 C152 845 174 856 193 876 C204 891 221 899 239 899 C266 899 293 881 283 843 C267 785 188 753 134 753 C80 753 3 785 -15 843 C-25 881 2 899 29 899 C46 899 64 891 74 876 C94 856 116 845 134 845 L134 845 Z " />
<glyph glyph-name="ibreve" unicode="&#x12d;" horiz-adv-x="285" d="M211 55 C211 20 181 -7 142 -7 C103 -7 73 20 73 55 L73 449 C73 482 103 510 142 510 C181 510 211 482 211 449 L211 55 L211 55 Z M143 645 C161 645 183 656 202 676 C213 691 230 699 248 699 C275 699 302 681 292 643 C276 585 197 553 143 553 C89 553 12 585 -6 643 C-16 681 11 699 38 699 C55 699 73 691 83 676 C103 656 125 645 143 645 L143 645 Z " />
<glyph glyph-name="Iogonek" unicode="&#x12e;" horiz-adv-x="267" d="M63 55 L63 650 C63 684 94 714 133 714 C171 714 203 684 203 650 L203 55 C203 38 193 24 182 10 C158 -19 133 -66 133 -102 C133 -116 141 -127 159 -127 C170 -127 182 -124 192 -123 L201 -123 C226 -123 246 -143 246 -166 C246 -212 189 -219 151 -219 C79 -219 30 -187 30 -117 C30 -78 52 -33 85 8 C71 20 63 37 63 55 L63 55 Z " />
<glyph glyph-name="iogonek" unicode="&#x12f;" horiz-adv-x="285" d="M251 -166 C251 -212 194 -219 156 -219 C84 -219 35 -187 35 -117 C35 -78 59 -32 94 10 C81 21 73 37 73 55 L73 449 C73 482 103 510 142 510 C181 510 211 482 211 449 L211 55 C211 37 202 22 191 10 C166 -19 138 -66 138 -102 C138 -116 146 -127 164 -127 C175 -127 187 -124 197 -123 L206 -123 C231 -123 251 -143 251 -166 L251 -166 Z M220 644 C220 605 186 574 142 574 C98 574 64 606 64 644 C64 683 98 714 142 714 C186 714 220 682 220 644 L220 644 Z " />
<glyph glyph-name="Idotaccent" unicode="&#x130;" horiz-adv-x="267" d="M63 55 L63 650 C63 684 94 714 133 714 C171 714 203 684 203 650 L203 55 C203 21 171 -9 133 -9 C94 -9 63 21 63 55 L63 55 Z M199 815 C199 780 170 752 133 752 C97 752 69 781 69 815 C69 848 97 876 133 876 C170 876 199 849 199 815 L199 815 Z " />
<glyph glyph-name="dotlessi" unicode="&#x131;" horiz-adv-x="285" d="M211 55 C211 20 181 -7 142 -7 C103 -7 73 20 73 55 L73 449 C73 482 103 510 142 510 C181 510 211 482 211 449 L211 55 L211 55 Z " />
<glyph glyph-name="Jcircumflex" unicode="&#x134;" horiz-adv-x="425" d="M362 650 L362 235 C362 83 308 -9 130 -9 C92 -9 15 -5 15 60 C15 100 52 123 80 123 C103 123 116 117 141 117 C208 117 222 162 222 235 L222 650 C222 685 252 714 292 714 C329 714 362 684 362 650 L362 650 Z M292 916 C308 916 320 910 329 903 L408 842 C423 829 434 814 435 797 C435 772 412 751 385 751 C352 751 320 789 292 815 C264 789 232 751 199 751 C172 751 149 772 149 797 C150 814 161 829 176 842 L255 903 C264 910 276 916 292 916 L292 916 Z " />
<glyph glyph-name="jcircumflex" unicode="&#x135;" horiz-adv-x="285" d="M211 463 L211 14 C211 -98 151 -172 44 -186 C36 -187 29 -187 21 -187 C-10 -187 -34 -170 -41 -142 L-41 -143 C-54 -97 -16 -74 11 -69 C48 -61 73 -40 73 10 L73 463 C73 497 103 526 142 526 C181 526 211 497 211 463 L211 463 Z M143 716 C159 716 171 710 180 703 L259 642 C274 629 285 614 286 597 C286 572 263 551 236 551 C203 551 171 589 143 615 C115 589 83 551 50 551 C23 551 0 572 0 597 C1 614 12 629 27 642 L106 703 C115 710 127 716 143 716 L143 716 Z " />
<glyph glyph-name="uni0136" unicode="&#x136;" horiz-adv-x="556" d="M510 607 L311 382 L530 92 C540 79 541 68 541 58 C541 29 516 -9 473 -9 C450 -9 430 0 415 20 L221 280 L203 260 L203 56 C203 21 171 -9 133 -9 C94 -9 63 21 63 56 L63 650 C63 684 94 714 133 714 C171 714 203 684 203 650 L203 460 L401 685 C413 700 436 714 458 714 C488 714 527 685 527 650 C527 635 526 625 510 607 L510 607 Z M379 -104 C379 -159 319 -238 282 -238 C273 -238 264 -233 264 -221 C264 -200 289 -187 301 -159 C261 -157 232 -150 232 -106 C232 -74 248 -51 305 -51 C363 -51 379 -75 379 -104 L379 -104 Z " />
<glyph glyph-name="uni0137" unicode="&#x137;" horiz-adv-x="487" d="M202 343 L340 492 C352 504 371 509 387 509 C425 509 454 484 454 450 C454 434 448 420 435 408 L436 408 L314 279 L461 85 C468 75 472 59 472 48 C470 14 441 -7 405 -7 C380 -7 361 3 348 21 L213 204 L202 194 L202 55 C202 20 172 -7 133 -7 C94 -7 64 20 64 55 L64 660 C64 695 94 722 133 722 C172 722 202 695 202 660 L202 343 L202 343 Z M346 -104 C346 -159 286 -238 249 -238 C240 -238 231 -233 231 -221 C231 -200 256 -187 268 -159 C228 -157 199 -150 199 -106 C199 -74 215 -51 272 -51 C330 -51 346 -75 346 -104 L346 -104 Z " />
<glyph glyph-name="Lacute" unicode="&#x139;" horiz-adv-x="503" d="M488 64 C488 28 458 0 420 0 L138 0 C98 0 63 30 63 69 L63 650 C63 684 94 714 133 714 C171 714 203 684 203 650 L203 126 L420 126 C456 126 488 99 488 64 L488 64 Z M114 831 L195 910 L203 918 C215 930 222 937 244 937 C267 937 293 916 293 888 C293 880 291 870 284 860 L202 778 C187 765 179 757 157 757 C129 757 106 777 106 806 C106 816 108 823 114 831 L114 831 Z " />
<glyph glyph-name="lacute" unicode="&#x13a;" horiz-adv-x="268" d="M160 -7 C120 -7 64 6 64 111 L64 660 C64 693 94 722 133 722 C172 722 202 695 202 660 L202 123 C202 102 203 97 217 82 C227 71 235 66 235 47 C235 11 207 -7 160 -7 L160 -7 Z M84 838 L165 917 L173 925 C185 937 192 944 214 944 C237 944 263 923 263 895 C263 887 261 877 254 867 L172 785 C157 772 149 764 127 764 C99 764 76 784 76 813 C76 823 78 830 84 838 L84 838 Z " />
<glyph glyph-name="uni013B" unicode="&#x13b;" horiz-adv-x="503" d="M488 64 C488 28 458 0 420 0 L138 0 C98 0 63 30 63 69 L63 650 C63 684 94 714 133 714 C171 714 203 684 203 650 L203 126 L420 126 C456 126 488 99 488 64 L488 64 Z M325 -104 C325 -159 265 -238 228 -238 C219 -238 210 -233 210 -221 C210 -200 235 -187 247 -159 C207 -157 178 -150 178 -106 C178 -74 194 -51 251 -51 C309 -51 325 -75 325 -104 L325 -104 Z " />
<glyph glyph-name="uni013C" unicode="&#x13c;" horiz-adv-x="268" d="M160 -7 C120 -7 64 6 64 111 L64 660 C64 693 94 722 133 722 C172 722 202 695 202 660 L202 123 C202 102 203 97 217 82 C227 71 235 66 235 47 C235 11 207 -7 160 -7 L160 -7 Z M208 -104 C208 -159 148 -238 111 -238 C102 -238 93 -233 93 -221 C93 -200 118 -187 130 -159 C90 -157 61 -150 61 -106 C61 -74 77 -51 134 -51 C192 -51 208 -75 208 -104 L208 -104 Z " />
<glyph glyph-name="Lcaron" unicode="&#x13d;" horiz-adv-x="503" d="M488 64 C488 28 458 0 420 0 L138 0 C98 0 63 30 63 69 L63 650 C63 684 94 714 133 714 C171 714 203 684 203 650 L203 126 L420 126 C456 126 488 99 488 64 L488 64 Z M322 484 C325 517 347 529 355 573 C317 581 290 612 290 648 C290 690 327 725 374 725 C418 725 457 693 457 644 C457 584 413 439 363 439 C347 439 317 445 322 484 L322 484 Z " />
<glyph glyph-name="lcaron" unicode="&#x13e;" horiz-adv-x="455" d="M160 -7 C120 -7 64 6 64 111 L64 660 C64 693 94 722 133 722 C172 722 202 695 202 660 L202 123 C202 102 203 97 217 82 C227 71 235 66 235 47 C235 11 207 -7 160 -7 L160 -7 Z M299 484 C302 517 324 529 332 573 C294 581 267 612 267 648 C267 690 304 725 351 725 C395 725 434 693 434 644 C434 584 390 439 340 439 C324 439 294 445 299 484 L299 484 Z " />
<glyph glyph-name="Lslash" unicode="&#x141;" horiz-adv-x="545" d="M514 64 C514 28 484 0 446 0 L164 0 C124 0 89 30 89 69 L89 256 L83 252 C74 246 65 239 55 239 C30 239 6 253 6 284 C6 297 13 312 26 320 L89 361 L89 650 C89 684 120 714 159 714 C197 714 229 684 229 650 L229 453 L291 494 C302 501 311 506 326 506 C343 506 360 494 366 476 C367 471 368 467 368 462 C368 449 361 435 349 427 L229 348 L229 126 L446 126 C482 126 514 99 514 64 L514 64 Z " />
<glyph glyph-name="lslash" unicode="&#x142;" horiz-adv-x="377" d="M366 476 C367 471 368 467 368 462 C368 449 361 435 349 427 L248 360 L248 123 C248 102 249 97 263 82 C273 71 281 66 281 47 C281 11 253 -7 206 -7 C166 -7 110 6 110 111 L110 270 L83 252 C74 246 65 239 55 239 C30 239 6 253 6 284 C6 297 13 312 26 320 L110 375 L110 660 C110 693 140 722 179 722 C218 722 248 695 248 660 L248 465 L291 494 C302 501 311 506 326 506 C343 506 360 494 366 476 L366 476 Z " />
<glyph glyph-name="Nacute" unicode="&#x143;" horiz-adv-x="640" d="M502 -9 C476 -9 448 5 435 26 L203 430 L203 56 C203 21 170 -9 132 -9 C93 -9 63 21 63 56 L63 646 C63 685 94 714 136 714 C163 714 190 699 204 677 C293 523 344 432 436 271 L436 649 C436 684 469 714 507 714 C546 714 576 684 576 649 L576 59 C576 22 546 -9 502 -9 L502 -9 Z M274 831 L355 910 L363 918 C375 930 382 937 404 937 C427 937 453 916 453 888 C453 880 451 870 444 860 L362 778 C347 765 339 757 317 757 C289 757 266 777 266 806 C266 816 268 823 274 831 L274 831 Z " />
<glyph glyph-name="nacute" unicode="&#x144;" horiz-adv-x="549" d="M205 357 L205 55 C205 21 182 -6 136 -6 C90 -6 67 21 67 55 L67 358 C67 391 63 394 59 400 C45 419 42 426 42 439 C42 472 71 497 109 497 C130 497 148 486 162 468 C207 498 254 511 294 511 C420 511 483 433 483 316 L483 55 C483 21 458 -6 414 -6 C370 -6 345 21 345 55 L345 316 C345 366 320 397 280 397 C259 397 234 390 203 376 C204 369 205 363 205 357 L205 357 Z M189 631 L270 710 L278 718 C290 730 297 737 319 737 C342 737 368 716 368 688 C368 680 366 670 359 660 L277 578 C262 565 254 557 232 557 C204 557 181 577 181 606 C181 616 183 623 189 631 L189 631 Z " />
<glyph glyph-name="uni0145" unicode="&#x145;" horiz-adv-x="640" d="M502 -9 C476 -9 448 5 435 26 L203 430 L203 56 C203 21 170 -9 132 -9 C93 -9 63 21 63 56 L63 646 C63 685 94 714 136 714 C163 714 190 699 204 677 C293 523 344 432 436 271 L436 649 C436 684 469 714 507 714 C546 714 576 684 576 649 L576 59 C576 22 546 -9 502 -9 L502 -9 Z M394 -104 C394 -159 334 -238 297 -238 C288 -238 279 -233 279 -221 C279 -200 304 -187 316 -159 C276 -157 247 -150 247 -106 C247 -74 263 -51 320 -51 C378 -51 394 -75 394 -104 L394 -104 Z " />
<glyph glyph-name="uni0146" unicode="&#x146;" horiz-adv-x="549" d="M205 357 L205 55 C205 21 182 -6 136 -6 C90 -6 67 21 67 55 L67 358 C67 391 63 394 59 400 C45 419 42 426 42 439 C42 472 71 497 109 497 C130 497 148 486 162 468 C207 498 254 511 294 511 C420 511 483 433 483 316 L483 55 C483 21 458 -6 414 -6 C370 -6 345 21 345 55 L345 316 C345 366 320 397 280 397 C259 397 234 390 203 376 C204 369 205 363 205 357 L205 357 Z M348 -104 C348 -159 288 -238 251 -238 C242 -238 233 -233 233 -221 C233 -200 258 -187 270 -159 C230 -157 201 -150 201 -106 C201 -74 217 -51 274 -51 C332 -51 348 -75 348 -104 L348 -104 Z " />
<glyph glyph-name="Ncaron" unicode="&#x147;" horiz-adv-x="640" d="M502 -9 C476 -9 448 5 435 26 L203 430 L203 56 C203 21 170 -9 132 -9 C93 -9 63 21 63 56 L63 646 C63 685 94 714 136 714 C163 714 190 699 204 677 C293 523 344 432 436 271 L436 649 C436 684 469 714 507 714 C546 714 576 684 576 649 L576 59 C576 22 546 -9 502 -9 L502 -9 Z M320 851 L378 903 C387 911 406 915 414 915 C440 915 463 894 463 869 C463 852 451 837 436 824 L357 763 C349 756 336 750 320 750 C304 750 291 756 283 763 L204 824 C189 837 177 852 177 869 C177 894 200 915 226 915 C234 915 253 911 262 903 L320 851 L320 851 Z " />
<glyph glyph-name="ncaron" unicode="&#x148;" horiz-adv-x="549" d="M205 357 L205 55 C205 21 182 -6 136 -6 C90 -6 67 21 67 55 L67 358 C67 391 63 394 59 400 C45 419 42 426 42 439 C42 472 71 497 109 497 C130 497 148 486 162 468 C207 498 254 511 294 511 C420 511 483 433 483 316 L483 55 C483 21 458 -6 414 -6 C370 -6 345 21 345 55 L345 316 C345 366 320 397 280 397 C259 397 234 390 203 376 C204 369 205 363 205 357 L205 357 Z M274 651 L332 703 C341 711 360 715 368 715 C394 715 417 694 417 669 C417 652 405 637 390 624 L311 563 C303 556 290 550 274 550 C258 550 245 556 237 563 L158 624 C143 637 131 652 131 669 C131 694 154 715 180 715 C188 715 207 711 216 703 L274 651 L274 651 Z " />
<glyph glyph-name="Omacron" unicode="&#x14c;" horiz-adv-x="610" d="M305 -9 C132 -9 45 108 45 254 L45 452 C45 594 118 714 305 714 C492 714 565 594 565 452 L565 254 C565 108 478 -9 305 -9 L305 -9 Z M305 587 C217 587 185 533 185 452 L185 254 C185 174 223 118 305 118 C387 118 425 174 425 254 L425 452 C425 533 393 587 305 587 L305 587 Z M496 830 C496 801 471 779 440 779 L171 779 C139 779 114 801 114 830 C114 858 139 881 171 881 L440 881 C471 881 496 858 496 830 L496 830 Z " />
<glyph glyph-name="omacron" unicode="&#x14d;" horiz-adv-x="524" d="M262 -7 C120 -7 45 74 45 179 L45 328 C45 433 120 514 262 514 C404 514 479 433 479 328 L479 179 C479 74 404 -7 262 -7 L262 -7 Z M262 111 C314 111 341 137 341 179 L341 329 C341 370 314 396 262 396 C210 396 183 370 183 329 L183 179 C183 137 210 111 262 111 L262 111 Z M453 630 C453 601 428 579 397 579 L128 579 C96 579 71 601 71 630 C71 658 96 681 128 681 L397 681 C428 681 453 658 453 630 L453 630 Z " />
<glyph glyph-name="Obreve" unicode="&#x14e;" horiz-adv-x="610" d="M305 -9 C132 -9 45 108 45 254 L45 452 C45 594 118 714 305 714 C492 714 565 594 565 452 L565 254 C565 108 478 -9 305 -9 L305 -9 Z M305 587 C217 587 185 533 185 452 L185 254 C185 174 223 118 305 118 C387 118 425 174 425 254 L425 452 C425 533 393 587 305 587 L305 587 Z M305 845 C323 845 345 856 364 876 C375 891 392 899 410 899 C437 899 464 881 454 843 C438 785 359 753 305 753 C251 753 174 785 156 843 C146 881 173 899 200 899 C217 899 235 891 245 876 C265 856 287 845 305 845 L305 845 Z " />
<glyph glyph-name="obreve" unicode="&#x14f;" horiz-adv-x="524" d="M262 -7 C120 -7 45 74 45 179 L45 328 C45 433 120 514 262 514 C404 514 479 433 479 328 L479 179 C479 74 404 -7 262 -7 L262 -7 Z M262 111 C314 111 341 137 341 179 L341 329 C341 370 314 396 262 396 C210 396 183 370 183 329 L183 179 C183 137 210 111 262 111 L262 111 Z M262 645 C280 645 302 656 321 676 C332 691 349 699 367 699 C394 699 421 681 411 643 C395 585 316 553 262 553 C208 553 131 585 113 643 C103 681 130 699 157 699 C174 699 192 691 202 676 C222 656 244 645 262 645 L262 645 Z " />
<glyph glyph-name="Ohungarumlaut" unicode="&#x150;" horiz-adv-x="610" d="M305 -9 C132 -9 45 108 45 254 L45 452 C45 594 118 714 305 714 C492 714 565 594 565 452 L565 254 C565 108 478 -9 305 -9 L305 -9 Z M305 587 C217 587 185 533 185 452 L185 254 C185 174 223 118 305 118 C387 118 425 174 425 254 L425 452 C425 533 393 587 305 587 L305 587 Z M175 819 L238 908 C250 925 262 944 289 943 C322 943 358 907 336 875 L271 779 C259 761 247 750 221 750 C188 750 152 787 175 819 L175 819 Z M345 819 L408 908 C420 925 432 944 459 943 C492 943 528 907 506 875 L441 779 C429 761 417 750 391 750 C358 750 322 787 345 819 L345 819 Z " />
<glyph glyph-name="ohungarumlaut" unicode="&#x151;" horiz-adv-x="524" d="M262 -7 C120 -7 45 74 45 179 L45 328 C45 433 120 514 262 514 C404 514 479 433 479 328 L479 179 C479 74 404 -7 262 -7 L262 -7 Z M262 111 C314 111 341 137 341 179 L341 329 C341 370 314 396 262 396 C210 396 183 370 183 329 L183 179 C183 137 210 111 262 111 L262 111 Z M129 619 L192 708 C204 725 216 744 243 743 C276 743 312 707 290 675 L225 579 C213 561 201 550 175 550 C142 550 106 587 129 619 L129 619 Z M299 619 L362 708 C374 725 386 744 413 743 C446 743 482 707 460 675 L395 579 C383 561 371 550 345 550 C312 550 276 587 299 619 L299 619 Z " />
<glyph glyph-name="OE" unicode="&#x152;" horiz-adv-x="756" d="M753 65 C753 29 721 0 683 0 L448 0 C418 0 391 6 373 23 C341 3 302 -9 255 -9 C96 -9 15 100 15 236 L15 470 C15 604 82 714 255 714 C305 714 345 702 377 683 C391 696 410 705 432 705 L673 705 C711 705 743 676 743 640 C743 605 711 578 673 578 L495 578 L495 417 L654 417 C689 417 723 390 723 354 C723 318 693 290 654 290 L495 290 L495 127 L683 127 C720 127 753 99 753 65 L753 65 Z M255 587 C181 587 155 540 155 470 L155 236 C155 167 187 118 255 118 C323 118 355 167 355 236 L355 470 C355 540 329 587 255 587 L255 587 Z " />
<glyph glyph-name="oe" unicode="&#x153;" horiz-adv-x="731" d="M521 181 C502 181 478 183 449 187 L449 164 C449 130 476 108 528 108 C564 108 588 118 620 130 L619 130 C623 132 633 136 646 136 C683 136 711 107 711 78 C711 13 581 -7 522 -7 C457 -7 409 13 377 45 C344 13 294 -7 228 -7 C93 -7 15 75 15 179 L15 328 C15 432 93 514 228 514 C295 514 345 493 379 460 C411 493 461 513 528 513 C652 513 720 445 720 341 C720 241 661 181 521 181 L521 181 Z M232 111 C284 111 311 137 311 179 L311 329 C311 370 284 396 232 396 C180 396 153 370 153 329 L153 179 C153 137 180 111 232 111 L232 111 Z M583 341 C583 380 561 396 522 396 C476 396 449 375 449 341 L449 298 C481 295 510 294 524 294 C574 294 583 317 583 341 L583 341 Z " />
<glyph glyph-name="Racute" unicode="&#x154;" horiz-adv-x="615" d="M561 493 C561 394 508 329 422 301 L559 95 C592 45 543 -8 498 -8 C473 -8 452 3 439 23 L271 286 L203 286 L203 57 C203 22 170 -9 132 -9 C95 -9 63 21 63 57 L63 633 C63 672 98 705 139 705 L313 705 C501 705 561 598 561 493 L561 493 Z M421 493 C421 535 400 578 309 578 L203 578 L203 412 L315 412 C384 412 421 441 421 493 L421 493 Z M222 831 L303 910 L311 918 C323 930 330 937 352 937 C375 937 401 916 401 888 C401 880 399 870 392 860 L310 778 C295 765 287 757 265 757 C237 757 214 777 214 806 C214 816 216 823 222 831 L222 831 Z " />
<glyph glyph-name="racute" unicode="&#x155;" horiz-adv-x="377" d="M299 386 C256 388 238 390 203 376 C204 369 205 363 205 357 L205 55 C205 20 175 -7 136 -7 C97 -7 67 20 67 55 L67 357 C67 380 64 392 56 404 C48 414 42 422 42 437 C42 473 74 497 110 497 C131 497 149 484 163 466 C209 493 255 509 287 509 C350 509 369 483 369 449 C369 410 337 384 299 386 L299 386 Z M158 631 L239 710 L247 718 C259 730 266 737 288 737 C311 737 337 716 337 688 C337 680 335 670 328 660 L246 578 C231 565 223 557 201 557 C173 557 150 577 150 606 C150 616 152 623 158 631 L158 631 Z " />
<glyph glyph-name="uni0156" unicode="&#x156;" horiz-adv-x="615" d="M561 493 C561 394 508 329 422 301 L559 95 C592 45 543 -8 498 -8 C473 -8 452 3 439 23 L271 286 L203 286 L203 57 C203 22 170 -9 132 -9 C95 -9 63 21 63 57 L63 633 C63 672 98 705 139 705 L313 705 C501 705 561 598 561 493 L561 493 Z M421 493 C421 535 400 578 309 578 L203 578 L203 412 L315 412 C384 412 421 441 421 493 L421 493 Z M381 -104 C381 -159 321 -238 284 -238 C275 -238 266 -233 266 -221 C266 -200 291 -187 303 -159 C263 -157 234 -150 234 -106 C234 -74 250 -51 307 -51 C365 -51 381 -75 381 -104 L381 -104 Z " />
<glyph glyph-name="uni0157" unicode="&#x157;" horiz-adv-x="377" d="M299 386 C256 388 238 390 203 376 C204 369 205 363 205 357 L205 55 C205 20 175 -7 136 -7 C97 -7 67 20 67 55 L67 357 C67 380 64 392 56 404 C48 414 42 422 42 437 C42 473 74 497 110 497 C131 497 149 484 163 466 C209 493 255 509 287 509 C350 509 369 483 369 449 C369 410 337 384 299 386 L299 386 Z M209 -104 C209 -159 149 -238 112 -238 C103 -238 94 -233 94 -221 C94 -200 119 -187 131 -159 C91 -157 62 -150 62 -106 C62 -74 78 -51 135 -51 C193 -51 209 -75 209 -104 L209 -104 Z " />
<glyph glyph-name="Rcaron" unicode="&#x158;" horiz-adv-x="615" d="M561 493 C561 394 508 329 422 301 L559 95 C592 45 543 -8 498 -8 C473 -8 452 3 439 23 L271 286 L203 286 L203 57 C203 22 170 -9 132 -9 C95 -9 63 21 63 57 L63 633 C63 672 98 705 139 705 L313 705 C501 705 561 598 561 493 L561 493 Z M421 493 C421 535 400 578 309 578 L203 578 L203 412 L315 412 C384 412 421 441 421 493 L421 493 Z M290 851 L348 903 C357 911 376 915 384 915 C410 915 433 894 433 869 C433 852 421 837 406 824 L327 763 C319 756 306 750 290 750 C274 750 261 756 253 763 L174 824 C159 837 147 852 147 869 C147 894 170 915 196 915 C204 915 223 911 232 903 L290 851 L290 851 Z " />
<glyph glyph-name="rcaron" unicode="&#x159;" horiz-adv-x="377" d="M299 386 C256 388 238 390 203 376 C204 369 205 363 205 357 L205 55 C205 20 175 -7 136 -7 C97 -7 67 20 67 55 L67 357 C67 380 64 392 56 404 C48 414 42 422 42 437 C42 473 74 497 110 497 C131 497 149 484 163 466 C209 493 255 509 287 509 C350 509 369 483 369 449 C369 410 337 384 299 386 L299 386 Z M189 651 L247 703 C256 711 275 715 283 715 C309 715 332 694 332 669 C332 652 320 637 305 624 L226 563 C218 556 205 550 189 550 C173 550 160 556 152 563 L73 624 C58 637 46 652 46 669 C46 694 69 715 95 715 C103 715 122 711 131 703 L189 651 L189 651 Z " />
<glyph glyph-name="Sacute" unicode="&#x15a;" horiz-adv-x="526" d="M350 204 C350 249 327 264 309 272 C288 281 263 290 236 299 C138 329 32 362 32 507 C32 636 122 714 264 714 C323 714 465 699 465 624 C465 591 439 561 395 561 C377 561 363 567 346 572 C327 579 305 587 270 587 C221 587 175 570 175 511 C175 467 200 452 217 444 C243 431 267 423 289 417 C387 386 494 352 494 210 C494 71 388 -9 245 -9 C171 -9 31 17 31 87 C31 119 60 150 97 150 C112 150 128 145 147 138 C171 130 203 118 246 118 C315 118 350 149 350 204 L350 204 Z M213 831 L294 910 L302 918 C314 930 321 937 343 937 C366 937 392 916 392 888 C392 880 390 870 383 860 L301 778 C286 765 278 757 256 757 C228 757 205 777 205 806 C205 816 207 823 213 831 L213 831 Z " />
<glyph glyph-name="sacute" unicode="&#x15b;" horiz-adv-x="446" d="M43 358 C43 450 108 513 236 513 C301 513 398 497 398 428 C398 385 360 377 339 377 C304 377 286 398 237 398 C199 398 179 385 179 362 C179 348 187 338 209 329 C281 298 412 284 412 151 C412 54 343 -7 217 -7 C153 -7 37 9 37 71 C37 100 63 130 102 130 C135 130 166 108 215 108 C251 108 276 120 276 148 C276 166 266 174 255 180 C190 216 43 219 43 358 L43 358 Z M167 631 L248 710 L256 718 C268 730 275 737 297 737 C320 737 346 716 346 688 C346 680 344 670 337 660 L255 578 C240 565 232 557 210 557 C182 557 159 577 159 606 C159 616 161 623 167 631 L167 631 Z " />
<glyph glyph-name="Scircumflex" unicode="&#x15c;" horiz-adv-x="526" d="M350 204 C350 249 327 264 309 272 C288 281 263 290 236 299 C138 329 32 362 32 507 C32 636 122 714 264 714 C323 714 465 699 465 624 C465 591 439 561 395 561 C377 561 363 567 346 572 C327 579 305 587 270 587 C221 587 175 570 175 511 C175 467 200 452 217 444 C243 431 267 423 289 417 C387 386 494 352 494 210 C494 71 388 -9 245 -9 C171 -9 31 17 31 87 C31 119 60 150 97 150 C112 150 128 145 147 138 C171 130 203 118 246 118 C315 118 350 149 350 204 L350 204 Z M263 916 C279 916 291 910 300 903 L379 842 C394 829 405 814 406 797 C406 772 383 751 356 751 C323 751 291 789 263 815 C235 789 203 751 170 751 C143 751 120 772 120 797 C121 814 132 829 147 842 L226 903 C235 910 247 916 263 916 L263 916 Z " />
<glyph glyph-name="scircumflex" unicode="&#x15d;" horiz-adv-x="446" d="M43 358 C43 450 108 513 236 513 C301 513 398 497 398 428 C398 385 360 377 339 377 C304 377 286 398 237 398 C199 398 179 385 179 362 C179 348 187 338 209 329 C281 298 412 284 412 151 C412 54 343 -7 217 -7 C153 -7 37 9 37 71 C37 100 63 130 102 130 C135 130 166 108 215 108 C251 108 276 120 276 148 C276 166 266 174 255 180 C190 216 43 219 43 358 L43 358 Z M223 716 C239 716 251 710 260 703 L339 642 C354 629 365 614 366 597 C366 572 343 551 316 551 C283 551 251 589 223 615 C195 589 163 551 130 551 C103 551 80 572 80 597 C81 614 92 629 107 642 L186 703 C195 710 207 716 223 716 L223 716 Z " />
<glyph glyph-name="Scedilla" unicode="&#x15e;" horiz-adv-x="526" d="M377 -118 C377 -175 331 -216 263 -216 C208 -216 143 -197 143 -157 C143 -139 157 -128 177 -128 C196 -128 224 -137 250 -137 C282 -137 297 -129 297 -115 C297 -100 282 -94 240 -87 C209 -81 193 -82 195 -40 L200 -6 C125 1 31 29 31 87 C31 119 60 150 97 150 C112 150 128 145 147 138 C171 130 203 118 246 118 C315 118 350 149 350 204 C350 249 327 264 309 272 C288 281 263 290 236 299 C138 329 32 362 32 507 C32 636 122 714 264 714 C323 714 465 699 465 624 C465 591 439 561 395 561 C377 561 363 567 346 572 C327 579 305 587 270 587 C221 587 175 570 175 511 C175 467 200 452 217 444 C243 431 267 423 289 417 C387 386 494 352 494 210 C494 83 405 5 280 -7 L277 -33 C349 -39 377 -72 377 -118 L377 -118 Z " />
<glyph glyph-name="scedilla" unicode="&#x15f;" horiz-adv-x="446" d="M337 -118 C337 -175 291 -216 223 -216 C168 -216 103 -197 103 -157 C103 -139 117 -128 137 -128 C156 -128 184 -137 210 -137 C242 -137 257 -129 257 -115 C257 -100 242 -94 200 -87 C169 -81 153 -82 155 -40 L161 -3 C101 4 37 25 37 71 C37 100 63 130 102 130 C135 130 166 108 215 108 C251 108 276 120 276 148 C276 166 266 174 255 180 C190 216 43 219 43 358 C43 450 108 513 236 513 C301 513 398 497 398 428 C398 385 360 377 339 377 C304 377 286 398 237 398 C199 398 179 385 179 362 C179 348 187 338 209 329 C281 298 412 284 412 151 C412 60 351 1 240 -6 L237 -33 C309 -39 337 -72 337 -118 L337 -118 Z " />
<glyph glyph-name="Scaron" unicode="&#x160;" horiz-adv-x="526" d="M350 204 C350 249 327 264 309 272 C288 281 263 290 236 299 C138 329 32 362 32 507 C32 636 122 714 264 714 C323 714 465 699 465 624 C465 591 439 561 395 561 C377 561 363 567 346 572 C327 579 305 587 270 587 C221 587 175 570 175 511 C175 467 200 452 217 444 C243 431 267 423 289 417 C387 386 494 352 494 210 C494 71 388 -9 245 -9 C171 -9 31 17 31 87 C31 119 60 150 97 150 C112 150 128 145 147 138 C171 130 203 118 246 118 C315 118 350 149 350 204 L350 204 Z M263 851 L321 903 C330 911 349 915 357 915 C383 915 406 894 406 869 C406 852 394 837 379 824 L300 763 C292 756 279 750 263 750 C247 750 234 756 226 763 L147 824 C132 837 120 852 120 869 C120 894 143 915 169 915 C177 915 196 911 205 903 L263 851 L263 851 Z " />
<glyph glyph-name="scaron" unicode="&#x161;" horiz-adv-x="446" d="M43 358 C43 450 108 513 236 513 C301 513 398 497 398 428 C398 385 360 377 339 377 C304 377 286 398 237 398 C199 398 179 385 179 362 C179 348 187 338 209 329 C281 298 412 284 412 151 C412 54 343 -7 217 -7 C153 -7 37 9 37 71 C37 100 63 130 102 130 C135 130 166 108 215 108 C251 108 276 120 276 148 C276 166 266 174 255 180 C190 216 43 219 43 358 L43 358 Z M237 651 L295 703 C304 711 323 715 331 715 C357 715 380 694 380 669 C380 652 368 637 353 624 L274 563 C266 556 253 550 237 550 C221 550 208 556 200 563 L121 624 C106 637 94 652 94 669 C94 694 117 715 143 715 C151 715 170 711 179 703 L237 651 L237 651 Z " />
<glyph glyph-name="uni0162" unicode="&#x162;" horiz-adv-x="523" d="M398 -118 C398 -175 352 -216 284 -216 C229 -216 164 -197 164 -157 C164 -139 178 -128 198 -128 C217 -128 245 -137 271 -137 C303 -137 318 -129 318 -115 C318 -100 303 -94 261 -87 C230 -81 214 -82 216 -40 L223 1 C204 13 191 33 191 55 L191 578 L85 578 C45 578 15 607 15 641 C15 669 46 705 85 705 L437 705 C473 705 508 677 508 641 C508 607 475 578 437 578 L331 578 L331 55 C331 35 320 16 303 4 L298 -33 C370 -39 398 -72 398 -118 L398 -118 Z " />
<glyph glyph-name="uni0163" unicode="&#x163;" horiz-adv-x="361" d="M337 -118 C337 -175 291 -216 223 -216 C168 -216 103 -197 103 -157 C103 -139 117 -128 137 -128 C156 -128 184 -137 210 -137 C242 -137 257 -129 257 -115 C257 -100 242 -94 200 -87 C169 -81 153 -82 155 -40 L163 10 C86 37 64 106 64 208 L64 596 C64 630 89 657 133 657 C177 657 202 629 202 596 L202 485 L276 485 C313 485 342 459 342 425 C342 391 313 366 276 366 L202 366 L202 215 C202 141 208 115 256 115 C265 115 271 116 273 116 C336 116 355 99 355 62 C355 4 309 -4 259 -4 C253 -4 247 -3 241 -3 L237 -33 C309 -39 337 -72 337 -118 L337 -118 Z " />
<glyph glyph-name="Tcaron" unicode="&#x164;" horiz-adv-x="523" d="M191 55 L191 578 L85 578 C45 578 15 607 15 641 C15 669 46 705 85 705 L437 705 C473 705 508 677 508 641 C508 607 475 578 437 578 L331 578 L331 55 C331 21 299 -9 261 -9 C222 -9 191 21 191 55 L191 55 Z M261 851 L319 903 C328 911 347 915 355 915 C381 915 404 894 404 869 C404 852 392 837 377 824 L298 763 C290 756 277 750 261 750 C245 750 232 756 224 763 L145 824 C130 837 118 852 118 869 C118 894 141 915 167 915 C175 915 194 911 203 903 L261 851 L261 851 Z " />
<glyph glyph-name="tcaron" unicode="&#x165;" horiz-adv-x="567" d="M64 208 L64 596 C64 630 89 657 133 657 C177 657 202 629 202 596 L202 485 L276 485 C313 485 342 459 342 425 C342 391 313 366 276 366 L202 366 L202 215 C202 141 208 115 256 115 C265 115 271 116 273 116 C336 116 355 99 355 62 C355 4 309 -4 259 -4 C104 -4 64 72 64 208 L64 208 Z M403 484 C406 517 428 529 436 573 C398 581 371 612 371 648 C371 690 408 725 455 725 C499 725 538 693 538 644 C538 584 494 439 444 439 C428 439 398 445 403 484 L403 484 Z " />
<glyph glyph-name="Utilde" unicode="&#x168;" horiz-adv-x="612" d="M557 240 C557 96 464 -9 306 -9 C145 -9 55 97 55 240 L55 648 C55 686 86 714 126 714 C163 714 195 684 195 648 L195 240 C195 168 230 118 306 118 C381 118 416 169 416 240 L416 648 C416 683 446 714 485 714 C526 714 557 683 557 648 L557 240 L557 240 Z M462 843 C462 801 411 770 372 770 C319 770 291 806 261 810 C231 814 229 774 196 774 C175 774 153 790 150 815 C150 861 193 895 238 895 C294 895 319 855 350 855 C381 855 380 891 413 891 C438 891 462 871 462 843 L462 843 Z " />
<glyph glyph-name="utilde" unicode="&#x169;" horiz-adv-x="549" d="M388 37 C341 4 295 -7 250 -7 C129 -7 64 72 64 189 L64 450 C64 484 89 510 133 510 C177 510 202 484 202 450 L202 189 C202 138 223 109 267 109 C288 109 313 116 344 130 C343 137 342 143 342 149 L342 450 C342 484 365 510 411 510 C457 510 480 484 480 450 L480 129 C480 114 486 107 499 94 C509 84 513 74 513 60 C513 20 479 -1 449 -1 C423 -1 403 15 388 37 L388 37 Z M430 643 C430 601 379 570 340 570 C287 570 259 606 229 610 C199 614 197 574 164 574 C143 574 121 590 118 615 C118 661 161 695 206 695 C262 695 287 655 318 655 C349 655 348 691 381 691 C406 691 430 671 430 643 L430 643 Z " />
<glyph glyph-name="Umacron" unicode="&#x16a;" horiz-adv-x="612" d="M557 240 C557 96 464 -9 306 -9 C145 -9 55 97 55 240 L55 648 C55 686 86 714 126 714 C163 714 195 684 195 648 L195 240 C195 168 230 118 306 118 C381 118 416 169 416 240 L416 648 C416 683 446 714 485 714 C526 714 557 683 557 648 L557 240 L557 240 Z M497 830 C497 801 472 779 441 779 L172 779 C140 779 115 801 115 830 C115 858 140 881 172 881 L441 881 C472 881 497 858 497 830 L497 830 Z " />
<glyph glyph-name="umacron" unicode="&#x16b;" horiz-adv-x="549" d="M388 37 C341 4 295 -7 250 -7 C129 -7 64 72 64 189 L64 450 C64 484 89 510 133 510 C177 510 202 484 202 450 L202 189 C202 138 223 109 267 109 C288 109 313 116 344 130 C343 137 342 143 342 149 L342 450 C342 484 365 510 411 510 C457 510 480 484 480 450 L480 129 C480 114 486 107 499 94 C509 84 513 74 513 60 C513 20 479 -1 449 -1 C423 -1 403 15 388 37 L388 37 Z M465 630 C465 601 440 579 409 579 L140 579 C108 579 83 601 83 630 C83 658 108 681 140 681 L409 681 C440 681 465 658 465 630 L465 630 Z " />
<glyph glyph-name="Ubreve" unicode="&#x16c;" horiz-adv-x="612" d="M557 240 C557 96 464 -9 306 -9 C145 -9 55 97 55 240 L55 648 C55 686 86 714 126 714 C163 714 195 684 195 648 L195 240 C195 168 230 118 306 118 C381 118 416 169 416 240 L416 648 C416 683 446 714 485 714 C526 714 557 683 557 648 L557 240 L557 240 Z M306 845 C324 845 346 856 365 876 C376 891 393 899 411 899 C438 899 465 881 455 843 C439 785 360 753 306 753 C252 753 175 785 157 843 C147 881 174 899 201 899 C218 899 236 891 246 876 C266 856 288 845 306 845 L306 845 Z " />
<glyph glyph-name="ubreve" unicode="&#x16d;" horiz-adv-x="549" d="M388 37 C341 4 295 -7 250 -7 C129 -7 64 72 64 189 L64 450 C64 484 89 510 133 510 C177 510 202 484 202 450 L202 189 C202 138 223 109 267 109 C288 109 313 116 344 130 C343 137 342 143 342 149 L342 450 C342 484 365 510 411 510 C457 510 480 484 480 450 L480 129 C480 114 486 107 499 94 C509 84 513 74 513 60 C513 20 479 -1 449 -1 C423 -1 403 15 388 37 L388 37 Z M274 645 C292 645 314 656 333 676 C344 691 361 699 379 699 C406 699 433 681 423 643 C407 585 328 553 274 553 C220 553 143 585 125 643 C115 681 142 699 169 699 C186 699 204 691 214 676 C234 656 256 645 274 645 L274 645 Z " />
<glyph glyph-name="Uring" unicode="&#x16e;" horiz-adv-x="612" d="M557 240 C557 96 464 -9 306 -9 C145 -9 55 97 55 240 L55 648 C55 686 86 714 126 714 C163 714 195 684 195 648 L195 240 C195 168 230 118 306 118 C381 118 416 169 416 240 L416 648 C416 683 446 714 485 714 C526 714 557 683 557 648 L557 240 L557 240 Z M415 844 C415 783 367 735 306 735 C244 735 196 783 196 844 C196 904 244 953 306 953 C367 953 415 904 415 844 L415 844 Z M350 844 C350 868 330 889 306 889 C282 889 262 868 262 844 C262 820 282 800 306 800 C330 800 350 820 350 844 L350 844 Z " />
<glyph glyph-name="uring" unicode="&#x16f;" horiz-adv-x="549" d="M388 37 C341 4 295 -7 250 -7 C129 -7 64 72 64 189 L64 450 C64 484 89 510 133 510 C177 510 202 484 202 450 L202 189 C202 138 223 109 267 109 C288 109 313 116 344 130 C343 137 342 143 342 149 L342 450 C342 484 365 510 411 510 C457 510 480 484 480 450 L480 129 C480 114 486 107 499 94 C509 84 513 74 513 60 C513 20 479 -1 449 -1 C423 -1 403 15 388 37 L388 37 Z M384 644 C384 583 336 535 275 535 C213 535 165 583 165 644 C165 704 213 753 275 753 C336 753 384 704 384 644 L384 644 Z M319 644 C319 668 299 689 275 689 C251 689 231 668 231 644 C231 620 251 600 275 600 C299 600 319 620 319 644 L319 644 Z " />
<glyph glyph-name="Uhungarumlaut" unicode="&#x170;" horiz-adv-x="612" d="M557 240 C557 96 464 -9 306 -9 C145 -9 55 97 55 240 L55 648 C55 686 86 714 126 714 C163 714 195 684 195 648 L195 240 C195 168 230 118 306 118 C381 118 416 169 416 240 L416 648 C416 683 446 714 485 714 C526 714 557 683 557 648 L557 240 L557 240 Z M177 819 L240 908 C252 925 264 944 291 943 C324 943 360 907 338 875 L273 779 C261 761 249 750 223 750 C190 750 154 787 177 819 L177 819 Z M347 819 L410 908 C422 925 434 944 461 943 C494 943 530 907 508 875 L443 779 C431 761 419 750 393 750 C360 750 324 787 347 819 L347 819 Z " />
<glyph glyph-name="uhungarumlaut" unicode="&#x171;" horiz-adv-x="549" d="M388 37 C341 4 295 -7 250 -7 C129 -7 64 72 64 189 L64 450 C64 484 89 510 133 510 C177 510 202 484 202 450 L202 189 C202 138 223 109 267 109 C288 109 313 116 344 130 C343 137 342 143 342 149 L342 450 C342 484 365 510 411 510 C457 510 480 484 480 450 L480 129 C480 114 486 107 499 94 C509 84 513 74 513 60 C513 20 479 -1 449 -1 C423 -1 403 15 388 37 L388 37 Z M138 619 L201 708 C213 725 225 744 252 743 C285 743 321 707 299 675 L234 579 C222 561 210 550 184 550 C151 550 115 587 138 619 L138 619 Z M308 619 L371 708 C383 725 395 744 422 743 C455 743 491 707 469 675 L404 579 C392 561 380 550 354 550 C321 550 285 587 308 619 L308 619 Z " />
<glyph glyph-name="Uogonek" unicode="&#x172;" horiz-adv-x="612" d="M493 -166 C493 -212 436 -219 398 -219 C326 -219 277 -187 277 -117 C277 -84 293 -45 318 -9 L306 -9 C145 -9 55 97 55 240 L55 648 C55 686 86 714 126 714 C163 714 195 684 195 648 L195 240 C195 168 230 118 306 118 C381 118 416 169 416 240 L416 648 C416 683 446 714 485 714 C526 714 557 683 557 648 L557 240 C557 141 513 60 435 20 C413 -15 380 -63 380 -102 C380 -116 388 -127 406 -127 C417 -127 429 -124 439 -123 L448 -123 C473 -123 493 -143 493 -166 L493 -166 Z " />
<glyph glyph-name="uogonek" unicode="&#x173;" horiz-adv-x="549" d="M558 -166 C558 -212 501 -219 463 -219 C391 -219 342 -187 342 -117 C342 -76 367 -27 405 16 C399 22 393 29 388 37 C341 4 295 -7 250 -7 C129 -7 64 72 64 189 L64 450 C64 484 89 510 133 510 C177 510 202 484 202 450 L202 189 C202 138 223 109 267 109 C288 109 313 116 344 130 C343 137 342 143 342 149 L342 450 C342 484 365 510 411 510 C457 510 480 484 480 450 L480 129 C480 114 486 107 499 94 C509 84 513 74 513 60 C513 44 506 31 500 22 C476 -14 445 -55 445 -102 C445 -116 453 -127 471 -127 C482 -127 494 -124 504 -123 L513 -123 C538 -123 558 -143 558 -166 L558 -166 Z " />
<glyph glyph-name="Wcircumflex" unicode="&#x174;" horiz-adv-x="830" d="M495 640 L553 405 C567 350 572 294 582 238 C592 294 598 350 612 405 L676 660 C684 692 709 711 740 711 C774 711 818 692 818 650 C818 648 818 643 816 637 L666 54 C656 21 632 -9 584 -9 C536 -9 511 22 501 55 L442 300 C429 352 424 407 415 460 C406 407 401 352 388 300 L328 53 C319 24 299 -9 246 -9 C205 -9 172 24 163 54 L16 632 C14 642 12 651 12 651 C12 688 52 711 87 711 C116 711 144 696 152 663 L218 405 C232 351 237 294 247 239 C257 292 262 352 275 405 L334 640 C346 687 360 714 415 714 C466 714 484 685 495 640 L495 640 Z M415 916 C431 916 443 910 452 903 L531 842 C546 829 557 814 558 797 C558 772 535 751 508 751 C475 751 443 789 415 815 C387 789 355 751 322 751 C295 751 272 772 272 797 C273 814 284 829 299 842 L378 903 C387 910 399 916 415 916 L415 916 Z " />
<glyph glyph-name="wcircumflex" unicode="&#x175;" horiz-adv-x="695" d="M409 43 L367 203 C356 243 354 284 348 325 C342 284 339 243 329 203 L288 43 C278 7 253 -7 212 -7 C168 -7 145 15 133 53 L17 437 C15 442 15 446 15 450 C15 481 45 510 84 510 C113 510 141 494 149 465 L192 300 C205 250 205 199 212 148 C220 199 222 250 235 300 L275 459 C283 488 309 510 349 510 C388 510 414 488 421 459 L460 300 C472 250 476 198 484 147 C491 198 491 250 504 300 L547 465 C554 490 583 510 612 510 C648 510 680 484 680 449 C680 448 679 442 679 439 L563 52 C551 13 532 -7 484 -7 C450 -7 418 11 409 43 L409 43 Z M347 716 C363 716 375 710 384 703 L463 642 C478 629 489 614 490 597 C490 572 467 551 440 551 C407 551 375 589 347 615 C319 589 287 551 254 551 C227 551 204 572 204 597 C205 614 216 629 231 642 L310 703 C319 710 331 716 347 716 L347 716 Z " />
<glyph glyph-name="Ycircumflex" unicode="&#x176;" horiz-adv-x="530" d="M265 -9 C225 -9 194 21 194 57 L194 276 L18 620 C15 627 12 639 12 649 C12 684 47 714 83 714 C104 714 128 705 140 684 L265 436 L389 684 C401 705 425 714 447 714 C483 714 518 684 518 649 C518 640 514 629 511 620 L336 276 L336 57 C336 22 305 -9 265 -9 L265 -9 Z M265 916 C281 916 293 910 302 903 L381 842 C396 829 407 814 408 797 C408 772 385 751 358 751 C325 751 293 789 265 815 C237 789 205 751 172 751 C145 751 122 772 122 797 C123 814 134 829 149 842 L228 903 C237 910 249 916 265 916 L265 916 Z " />
<glyph glyph-name="ycircumflex" unicode="&#x177;" horiz-adv-x="474" d="M271 300 L325 468 C334 497 363 510 390 510 C425 510 459 485 459 449 C459 442 458 436 456 431 L334 75 C279 -87 241 -203 89 -203 C49 -203 19 -178 19 -143 C19 -113 44 -85 85 -83 C129 -81 151 -49 175 29 L21 426 C17 436 16 445 16 451 C16 485 46 510 85 510 C112 510 137 496 148 468 L211 300 C225 264 232 222 243 185 C252 222 259 264 271 300 L271 300 Z M244 716 C260 716 272 710 281 703 L360 642 C375 629 386 614 387 597 C387 572 364 551 337 551 C304 551 272 589 244 615 C216 589 184 551 151 551 C124 551 101 572 101 597 C102 614 113 629 128 642 L207 703 C216 710 228 716 244 716 L244 716 Z " />
<glyph glyph-name="Ydieresis" unicode="&#x178;" horiz-adv-x="530" d="M265 -9 C225 -9 194 21 194 57 L194 276 L18 620 C15 627 12 639 12 649 C12 684 47 714 83 714 C104 714 128 705 140 684 L265 436 L389 684 C401 705 425 714 447 714 C483 714 518 684 518 649 C518 640 514 629 511 620 L336 276 L336 57 C336 22 305 -9 265 -9 L265 -9 Z M419 830 C419 795 390 767 354 767 C318 767 288 796 288 830 C288 863 318 891 354 891 C390 891 419 864 419 830 L419 830 Z M240 830 C240 795 211 767 174 767 C138 767 110 796 110 830 C110 863 138 891 174 891 C211 891 240 864 240 830 L240 830 Z " />
<glyph glyph-name="Zacute" unicode="&#x179;" horiz-adv-x="524" d="M504 65 C504 29 472 0 434 0 L91 0 C50 0 19 31 19 68 C19 81 28 102 33 112 C131 274 217 412 316 576 L90 576 C51 576 21 604 21 640 C21 675 51 705 90 705 L429 705 C471 705 502 675 502 638 C502 620 495 606 488 595 L203 129 L434 129 C471 129 504 101 504 65 L504 65 Z M226 831 L307 910 L315 918 C327 930 334 937 356 937 C379 937 405 916 405 888 C405 880 403 870 396 860 L314 778 C299 765 291 757 269 757 C241 757 218 777 218 806 C218 816 220 823 226 831 L226 831 Z " />
<glyph glyph-name="zacute" unicode="&#x17a;" horiz-adv-x="434" d="M422 443 C422 430 418 415 408 402 L192 118 L357 118 C395 118 424 92 424 59 C424 26 395 0 357 0 L80 0 C43 0 10 28 10 64 C10 76 12 88 22 101 L239 387 L86 387 C49 387 20 413 20 446 C20 480 49 505 86 505 L351 505 C389 505 422 482 422 443 L422 443 Z M164 631 L245 710 L253 718 C265 730 272 737 294 737 C317 737 343 716 343 688 C343 680 341 670 334 660 L252 578 C237 565 229 557 207 557 C179 557 156 577 156 606 C156 616 158 623 164 631 L164 631 Z " />
<glyph glyph-name="Zdotaccent" unicode="&#x17b;" horiz-adv-x="524" d="M504 65 C504 29 472 0 434 0 L91 0 C50 0 19 31 19 68 C19 81 28 102 33 112 C131 274 217 412 316 576 L90 576 C51 576 21 604 21 640 C21 675 51 705 90 705 L429 705 C471 705 502 675 502 638 C502 620 495 606 488 595 L203 129 L434 129 C471 129 504 101 504 65 L504 65 Z M327 815 C327 780 298 752 261 752 C225 752 197 781 197 815 C197 848 225 876 261 876 C298 876 327 849 327 815 L327 815 Z " />
<glyph glyph-name="zdotaccent" unicode="&#x17c;" horiz-adv-x="434" d="M422 443 C422 430 418 415 408 402 L192 118 L357 118 C395 118 424 92 424 59 C424 26 395 0 357 0 L80 0 C43 0 10 28 10 64 C10 76 12 88 22 101 L239 387 L86 387 C49 387 20 413 20 446 C20 480 49 505 86 505 L351 505 C389 505 422 482 422 443 L422 443 Z M282 615 C282 580 253 552 216 552 C180 552 152 581 152 615 C152 648 180 676 216 676 C253 676 282 649 282 615 L282 615 Z " />
<glyph glyph-name="Zcaron" unicode="&#x17d;" horiz-adv-x="524" d="M504 65 C504 29 472 0 434 0 L91 0 C50 0 19 31 19 68 C19 81 28 102 33 112 C131 274 217 412 316 576 L90 576 C51 576 21 604 21 640 C21 675 51 705 90 705 L429 705 C471 705 502 675 502 638 C502 620 495 606 488 595 L203 129 L434 129 C471 129 504 101 504 65 L504 65 Z M262 851 L320 903 C329 911 348 915 356 915 C382 915 405 894 405 869 C405 852 393 837 378 824 L299 763 C291 756 278 750 262 750 C246 750 233 756 225 763 L146 824 C131 837 119 852 119 869 C119 894 142 915 168 915 C176 915 195 911 204 903 L262 851 L262 851 Z " />
<glyph glyph-name="zcaron" unicode="&#x17e;" horiz-adv-x="424" d="M417 443 C417 430 413 415 403 402 L187 118 L352 118 C390 118 419 92 419 59 C419 26 390 0 352 0 L75 0 C38 0 5 28 5 64 C5 76 7 88 17 101 L234 387 L81 387 C44 387 15 413 15 446 C15 480 44 505 81 505 L346 505 C384 505 417 482 417 443 L417 443 Z M212 651 L270 703 C279 711 298 715 306 715 C332 715 355 694 355 669 C355 652 343 637 328 624 L249 563 C241 556 228 550 212 550 C196 550 183 556 175 563 L96 624 C81 637 69 652 69 669 C69 694 92 715 118 715 C126 715 145 711 154 703 L212 651 L212 651 Z " />
<glyph glyph-name="florin" unicode="&#x192;" horiz-adv-x="532" d="M528 627 C528 565 481 570 452 574 C444 575 433 576 429 576 C409 576 392 561 388 541 L371 455 L420 455 C454 455 484 438 484 397 C484 355 454 340 420 340 L349 340 C326 223 301 102 279 -15 C258 -118 217 -188 104 -188 C41 -188 -7 -186 -7 -129 C-7 -91 21 -69 62 -69 L73 -69 C79 -69 85 -70 91 -70 C120 -70 132 -49 140 -12 C164 108 184 217 208 340 L161 340 C127 340 97 357 97 398 C97 440 127 455 161 455 L231 455 C238 489 246 527 252 560 C268 641 335 693 439 693 C481 693 528 686 528 627 L528 627 Z " />
<glyph glyph-name="uni0218" unicode="&#x218;" horiz-adv-x="526" d="M337 -104 C337 -159 277 -238 240 -238 C231 -238 222 -233 222 -221 C222 -200 247 -187 259 -159 C219 -157 190 -150 190 -106 C190 -74 206 -51 263 -51 C321 -51 337 -75 337 -104 L337 -104 Z M350 204 C350 249 327 264 309 272 C288 281 263 290 236 299 C138 329 32 362 32 507 C32 636 122 714 264 714 C323 714 465 699 465 624 C465 591 439 561 395 561 C377 561 363 567 346 572 C327 579 305 587 270 587 C221 587 175 570 175 511 C175 467 200 452 217 444 C243 431 267 423 289 417 C387 386 494 352 494 210 C494 71 388 -9 245 -9 C171 -9 31 17 31 87 C31 119 60 150 97 150 C112 150 128 145 147 138 C171 130 203 118 246 118 C315 118 350 149 350 204 L350 204 Z " />
<glyph glyph-name="uni0219" unicode="&#x219;" horiz-adv-x="446" d="M43 358 C43 450 108 513 236 513 C301 513 398 497 398 428 C398 385 360 377 339 377 C304 377 286 398 237 398 C199 398 179 385 179 362 C179 348 187 338 209 329 C281 298 412 284 412 151 C412 54 343 -7 217 -7 C153 -7 37 9 37 71 C37 100 63 130 102 130 C135 130 166 108 215 108 C251 108 276 120 276 148 C276 166 266 174 255 180 C190 216 43 219 43 358 L43 358 Z M297 -104 C297 -159 237 -238 200 -238 C191 -238 182 -233 182 -221 C182 -200 207 -187 219 -159 C179 -157 150 -150 150 -106 C150 -74 166 -51 223 -51 C281 -51 297 -75 297 -104 L297 -104 Z " />
<glyph glyph-name="uni021A" unicode="&#x21a;" horiz-adv-x="523" d="M191 55 L191 578 L85 578 C45 578 15 607 15 641 C15 669 46 705 85 705 L437 705 C473 705 508 677 508 641 C508 607 475 578 437 578 L331 578 L331 55 C331 21 299 -9 261 -9 C222 -9 191 21 191 55 L191 55 Z M335 -104 C335 -159 275 -238 238 -238 C229 -238 220 -233 220 -221 C220 -200 245 -187 257 -159 C217 -157 188 -150 188 -106 C188 -74 204 -51 261 -51 C319 -51 335 -75 335 -104 L335 -104 Z " />
<glyph glyph-name="uni021B" unicode="&#x21b;" horiz-adv-x="361" d="M64 208 L64 596 C64 630 89 657 133 657 C177 657 202 629 202 596 L202 485 L276 485 C313 485 342 459 342 425 C342 391 313 366 276 366 L202 366 L202 215 C202 141 208 115 256 115 C265 115 271 116 273 116 C336 116 355 99 355 62 C355 4 309 -4 259 -4 C104 -4 64 72 64 208 L64 208 Z M298 -104 C298 -159 238 -238 201 -238 C192 -238 183 -233 183 -221 C183 -200 208 -187 220 -159 C180 -157 151 -150 151 -106 C151 -74 167 -51 224 -51 C282 -51 298 -75 298 -104 L298 -104 Z " />
<glyph glyph-name="dotlessj" unicode="&#x237;" horiz-adv-x="285" d="M211 463 L211 14 C211 -98 151 -172 44 -186 C36 -187 29 -187 21 -187 C-10 -187 -34 -170 -41 -142 L-41 -143 C-54 -97 -16 -74 11 -69 C48 -61 73 -40 73 10 L73 463 C73 497 103 526 142 526 C181 526 211 497 211 463 L211 463 Z " />
<glyph glyph-name="circumflex" unicode="&#x2c6;" horiz-adv-x="436" d="M227 716 C243 716 255 710 264 703 L343 642 C358 629 369 614 370 597 C370 572 347 551 320 551 C287 551 255 589 227 615 C199 589 167 551 134 551 C107 551 84 572 84 597 C85 614 96 629 111 642 L190 703 C199 710 211 716 227 716 L227 716 Z " />
<glyph glyph-name="caron" unicode="&#x2c7;" horiz-adv-x="431" d="M227 651 L285 703 C294 711 313 715 321 715 C347 715 370 694 370 669 C370 652 358 637 343 624 L264 563 C256 556 243 550 227 550 C211 550 198 556 190 563 L111 624 C96 637 84 652 84 669 C84 694 107 715 133 715 C141 715 160 711 169 703 L227 651 L227 651 Z " />
<glyph glyph-name="breve" unicode="&#x2d8;" horiz-adv-x="407" d="M203 645 C221 645 243 656 262 676 C273 691 290 699 308 699 C335 699 362 681 352 643 C336 585 257 553 203 553 C149 553 72 585 54 643 C44 681 71 699 98 699 C115 699 133 691 143 676 C163 656 185 645 203 645 L203 645 Z " />
<glyph glyph-name="dotaccent" unicode="&#x2d9;" horiz-adv-x="290" d="M210 615 C210 580 181 552 144 552 C108 552 80 581 80 615 C80 648 108 676 144 676 C181 676 210 649 210 615 L210 615 Z " />
<glyph glyph-name="ring" unicode="&#x2da;" horiz-adv-x="611" d="M391 644 C391 583 343 535 282 535 C220 535 172 583 172 644 C172 704 220 753 282 753 C343 753 391 704 391 644 L391 644 Z M326 644 C326 668 306 689 282 689 C258 689 238 668 238 644 C238 620 258 600 282 600 C306 600 326 620 326 644 L326 644 Z " />
<glyph glyph-name="ogonek" unicode="&#x2db;" horiz-adv-x="362" d="M291 -166 C291 -212 234 -219 196 -219 C124 -219 75 -187 75 -117 C75 -81 94 -39 122 0 L223 0 L204 -31 C191 -53 178 -81 178 -102 C178 -116 186 -127 204 -127 C215 -127 227 -124 237 -123 L246 -123 C271 -123 291 -143 291 -166 L291 -166 Z " />
<glyph glyph-name="tilde" unicode="&#x2dc;" horiz-adv-x="415" d="M351 643 C351 601 300 570 261 570 C208 570 180 606 150 610 C120 614 118 574 85 574 C64 574 42 590 39 615 C39 661 82 695 127 695 C183 695 208 655 239 655 C270 655 269 691 302 691 C327 691 351 671 351 643 L351 643 Z " />
<glyph glyph-name="hungarumlaut" unicode="&#x2dd;" horiz-adv-x="450" d="M72 619 L135 708 C147 725 159 744 186 743 C219 743 255 707 233 675 L168 579 C156 561 144 550 118 550 C85 550 49 587 72 619 L72 619 Z M242 619 L305 708 C317 725 329 744 356 743 C389 743 425 707 403 675 L338 579 C326 561 314 550 288 550 C255 550 219 587 242 619 L242 619 Z " />
<glyph glyph-name="uni0400" unicode="&#x400;" horiz-adv-x="514" d="M491 65 C491 29 459 0 421 0 L156 0 C107 0 63 17 63 71 L63 634 C63 669 96 705 140 705 L411 705 C449 705 481 675 481 640 C481 604 449 578 411 578 L203 578 L203 417 L392 417 C427 417 461 390 461 354 C461 318 431 290 392 290 L203 290 L203 127 L421 127 C458 127 491 99 491 65 L491 65 Z M261 910 L342 831 C350 824 350 816 350 806 C350 777 327 757 299 757 C277 757 269 765 254 778 L172 860 C165 870 163 880 163 888 C163 916 189 937 212 937 C234 937 241 930 253 918 L261 910 L261 910 Z " />
<glyph glyph-name="uni0401" unicode="&#x401;" horiz-adv-x="514" d="M436 830 C436 795 407 767 371 767 C335 767 305 796 305 830 C305 863 335 891 371 891 C407 891 436 864 436 830 L436 830 Z M257 830 C257 795 228 767 191 767 C155 767 127 796 127 830 C127 863 155 891 191 891 C228 891 257 864 257 830 L257 830 Z M491 65 C491 29 459 0 421 0 L156 0 C107 0 63 17 63 71 L63 634 C63 669 96 705 140 705 L411 705 C449 705 481 675 481 640 C481 604 449 578 411 578 L203 578 L203 417 L392 417 C427 417 461 390 461 354 C461 318 431 290 392 290 L203 290 L203 127 L421 127 C458 127 491 99 491 65 L491 65 Z " />
<glyph glyph-name="uni0402" unicode="&#x402;" horiz-adv-x="684" d="M151 55 L151 578 L85 578 C45 578 15 609 15 640 C15 671 46 705 85 705 L437 705 C473 705 508 677 508 641 C508 607 475 578 437 578 L291 578 L291 446 C325 459 360 465 391 465 C543 465 631 386 631 229 C631 84 561 -9 446 -9 C382 -9 334 25 334 65 C334 99 364 125 399 125 C420 125 421 118 438 118 C472 118 491 152 491 228 C491 309 457 338 385 338 C357 338 324 330 291 312 L291 55 C291 21 259 -9 221 -9 C182 -9 151 21 151 55 L151 55 Z " />
<glyph glyph-name="uni0403" unicode="&#x403;" horiz-adv-x="503" d="M205 831 L286 910 L294 918 C306 930 313 937 335 937 C358 937 384 916 384 888 C384 880 382 870 375 860 L293 778 C278 765 270 757 248 757 C220 757 197 777 197 806 C197 816 199 823 205 831 L205 831 Z M203 578 L203 56 C203 22 171 -8 133 -8 C94 -8 63 22 63 56 L63 636 C63 670 95 705 138 705 L410 705 C449 705 479 675 479 641 C479 605 449 578 410 578 L203 578 L203 578 Z " />
<glyph glyph-name="uni0404" unicode="&#x404;" horiz-adv-x="522" d="M175 452 L175 417 L331 417 C367 417 399 390 399 354 C399 318 370 289 331 289 L175 289 L175 254 C175 168 205 114 295 114 C327 114 353 122 378 138 L388 144 C401 152 408 159 431 159 C469 159 497 131 497 99 C497 41 396 -8 290 -8 C115 -8 35 96 35 254 L35 452 C35 610 115 714 290 714 C396 714 497 665 497 607 C497 575 469 547 431 547 C408 547 401 554 388 562 L378 568 C353 584 327 592 295 592 C205 592 175 538 175 452 L175 452 Z " />
<glyph glyph-name="uni0405" unicode="&#x405;" horiz-adv-x="526" d="M350 204 C350 249 327 264 309 272 C288 281 263 290 236 299 C138 329 32 362 32 507 C32 636 122 714 264 714 C323 714 465 699 465 624 C465 591 439 561 395 561 C377 561 363 567 346 572 C327 579 305 587 270 587 C221 587 175 570 175 511 C175 467 200 452 217 444 C243 431 267 423 289 417 C387 386 494 352 494 210 C494 71 388 -9 245 -9 C171 -9 31 17 31 87 C31 119 60 150 97 150 C112 150 128 145 147 138 C171 130 203 118 246 118 C315 118 350 149 350 204 L350 204 Z " />
<glyph glyph-name="uni0406" unicode="&#x406;" horiz-adv-x="267" d="M63 55 L63 650 C63 684 94 714 133 714 C171 714 203 684 203 650 L203 55 C203 21 171 -9 133 -9 C94 -9 63 21 63 55 L63 55 Z " />
<glyph glyph-name="uni0407" unicode="&#x407;" horiz-adv-x="267" d="M63 55 L63 650 C63 684 94 714 133 714 C171 714 203 684 203 650 L203 55 C203 21 171 -9 133 -9 C94 -9 63 21 63 55 L63 55 Z M288 830 C288 795 259 767 223 767 C187 767 157 796 157 830 C157 863 187 891 223 891 C259 891 288 864 288 830 L288 830 Z M109 830 C109 795 80 767 43 767 C7 767 -21 796 -21 830 C-21 863 7 891 43 891 C80 891 109 864 109 830 L109 830 Z " />
<glyph glyph-name="uni0408" unicode="&#x408;" horiz-adv-x="425" d="M362 650 L362 235 C362 83 308 -9 130 -9 C92 -9 15 -5 15 60 C15 100 52 123 80 123 C103 123 116 117 141 117 C208 117 222 162 222 235 L222 650 C222 685 252 714 292 714 C329 714 362 684 362 650 L362 650 Z " />
<glyph glyph-name="uni0409" unicode="&#x409;" horiz-adv-x="932" d="M645 339 L581 339 L581 127 L645 127 C739 127 760 182 760 234 C760 306 720 339 645 339 L645 339 Z M250 705 L503 705 C545 705 581 672 581 633 L581 466 L645 466 C800 466 900 383 900 235 C900 112 833 0 645 0 L518 0 C476 0 440 33 440 72 L440 579 L305 579 L276 182 C266 72 221 -7 121 -7 C67 -7 15 -6 15 57 C15 103 48 123 82 123 C90 123 95 120 104 120 L110 120 C126 120 134 140 137 180 L172 633 C172 672 208 705 250 705 L250 705 Z " />
<glyph glyph-name="uni040A" unicode="&#x40a;" horiz-adv-x="888" d="M536 648 L536 466 L601 466 C756 466 856 383 856 235 C856 112 789 0 601 0 L474 0 C432 0 396 33 396 72 L396 289 L203 289 L203 56 C203 21 171 -9 133 -9 C94 -9 63 21 63 56 L63 650 C63 684 94 714 133 714 C171 714 203 684 203 650 L203 417 L396 417 L396 648 C396 684 429 714 466 714 C504 714 536 683 536 648 L536 648 Z M601 339 L536 339 L536 127 L601 127 C695 127 716 182 716 234 C716 306 676 339 601 339 L601 339 Z " />
<glyph glyph-name="uni040B" unicode="&#x40b;" horiz-adv-x="684" d="M508 641 C508 607 475 578 437 578 L291 578 L291 442 C326 458 356 465 397 465 C540 465 631 382 631 234 L631 57 C631 22 599 -9 561 -9 C524 -9 491 21 491 57 L491 233 C491 307 456 338 388 338 C354 338 324 330 291 312 L291 55 C291 21 259 -9 221 -9 C182 -9 151 21 151 55 L151 578 L85 578 C45 578 15 608 15 639 C15 670 46 705 85 705 L437 705 C473 705 508 677 508 641 L508 641 Z " />
<glyph glyph-name="uni040C" unicode="&#x40c;" horiz-adv-x="556" d="M203 650 L203 417 L215 417 L415 685 C430 705 450 714 473 714 C516 714 541 676 541 647 C541 637 539 627 530 613 L333 353 L530 92 C539 78 541 68 541 58 C541 29 516 -9 473 -9 C450 -9 430 0 415 20 L214 289 L203 289 L203 56 C203 21 171 -9 133 -9 C94 -9 63 21 63 56 L63 650 C63 684 94 714 133 714 C171 714 203 684 203 650 L203 650 Z M248 831 L329 910 L337 918 C349 930 356 937 378 937 C401 937 427 916 427 888 C427 880 425 870 418 860 L336 778 C321 765 313 757 291 757 C263 757 240 777 240 806 C240 816 242 823 248 831 L248 831 Z " />
<glyph glyph-name="uni040D" unicode="&#x40d;" horiz-adv-x="629" d="M137 -9 C93 -9 63 22 63 59 L63 649 C63 684 93 714 132 714 C170 714 203 684 203 649 L203 271 C295 432 346 523 435 677 C449 699 476 714 503 714 C545 714 576 685 576 646 L576 56 C576 21 546 -9 507 -9 C469 -9 436 21 436 56 L436 430 L204 26 C191 5 163 -9 137 -9 L137 -9 Z M269 910 L350 831 C358 824 358 816 358 806 C358 777 335 757 307 757 C285 757 277 765 262 778 L180 860 C173 870 171 880 171 888 C171 916 197 937 220 937 C242 937 249 930 261 918 L269 910 L269 910 Z " />
<glyph glyph-name="uni040E" unicode="&#x40e;" horiz-adv-x="543" d="M311 455 L395 672 C405 699 432 714 459 714 C494 714 528 688 528 651 C528 643 525 632 523 628 L362 229 C311 103 260 -4 118 -7 C78 -7 48 19 48 55 C48 86 73 115 114 117 C158 119 180 136 203 182 L19 630 C15 639 15 647 15 653 C15 688 45 714 84 714 C110 714 136 699 147 672 L234 456 C252 412 260 364 273 318 C286 364 294 410 311 455 L311 455 Z M271 845 C289 845 311 856 330 876 C341 891 358 899 376 899 C403 899 430 881 420 843 C404 785 325 753 271 753 C217 753 140 785 122 843 C112 881 139 899 166 899 C183 899 201 891 211 876 C231 856 253 845 271 845 L271 845 Z " />
<glyph glyph-name="uni040F" unicode="&#x40f;" horiz-adv-x="619" d="M239 -103 L239 0 L133 0 C94 0 63 30 63 65 L63 650 C63 685 94 715 133 715 C171 715 203 685 203 650 L203 127 L416 127 L416 650 C416 685 449 715 486 715 C524 715 556 685 556 650 L556 65 C556 30 523 0 486 0 L379 0 L379 -103 C379 -137 347 -167 309 -167 C270 -167 239 -137 239 -103 L239 -103 Z " />
<glyph glyph-name="uni0410" unicode="&#x410;" horiz-adv-x="589" d="M186 139 L153 38 C143 9 111 -9 87 -9 C48 -9 15 17 15 55 C15 60 16 72 18 77 L213 646 C226 685 246 714 294 714 C342 714 362 686 376 646 L571 77 C573 72 574 60 574 55 C574 17 543 -9 502 -9 C476 -9 444 10 434 38 L399 139 L186 139 L186 139 Z M363 253 L312 424 C303 453 298 491 294 522 C290 491 285 453 276 424 L223 253 L363 253 L363 253 Z " />
<glyph glyph-name="uni0411" unicode="&#x411;" horiz-adv-x="571" d="M430 578 L203 578 L203 448 L288 448 C443 448 543 369 543 226 C543 108 476 0 288 0 L141 0 C99 0 63 33 63 72 L63 636 C63 670 95 705 138 705 L430 705 C469 705 499 675 499 641 C499 605 469 578 430 578 L430 578 Z M288 321 L203 321 L203 127 L288 127 C382 127 403 177 403 225 C403 290 363 321 288 321 L288 321 Z " />
<glyph glyph-name="uni0412" unicode="&#x412;" horiz-adv-x="582" d="M203 429 L318 429 C353 429 395 453 395 507 C395 545 377 579 325 579 L203 579 L203 429 L203 429 Z M321 301 L203 301 L203 127 L315 127 C381 127 414 160 414 212 C414 269 374 301 321 301 L321 301 Z M306 0 L141 0 C97 0 63 33 63 72 L63 633 C63 674 99 705 141 705 L310 705 C460 705 535 609 535 509 C535 439 490 396 430 367 C492 342 554 297 554 210 C554 93 460 0 306 0 L306 0 Z " />
<glyph glyph-name="uni0413" unicode="&#x413;" horiz-adv-x="503" d="M203 578 L203 56 C203 22 171 -8 133 -8 C94 -8 63 22 63 56 L63 636 C63 670 95 705 138 705 L410 705 C449 705 479 675 479 641 C479 605 449 578 410 578 L203 578 L203 578 Z " />
<glyph glyph-name="uni0414" unicode="&#x414;" horiz-adv-x="668" d="M282 343 C278 257 264 183 237 127 L445 127 L445 579 L291 579 L282 343 L282 343 Z M86 127 C119 166 137 242 142 345 L157 633 C159 672 193 705 235 705 L507 705 C549 705 585 672 585 633 L585 127 C627 127 651 92 651 53 L651 -75 C651 -111 620 -139 580 -139 C541 -139 511 -111 511 -75 L511 0 L155 0 L155 -75 C155 -111 125 -139 86 -139 C47 -139 17 -111 17 -75 L17 53 C17 92 44 127 86 127 L86 127 Z " />
<glyph glyph-name="uni0415" unicode="&#x415;" horiz-adv-x="514" d="M491 65 C491 29 459 0 421 0 L156 0 C107 0 63 17 63 71 L63 634 C63 669 96 705 140 705 L411 705 C449 705 481 675 481 640 C481 604 449 578 411 578 L203 578 L203 417 L392 417 C427 417 461 390 461 354 C461 318 431 290 392 290 L203 290 L203 127 L421 127 C458 127 491 99 491 65 L491 65 Z " />
<glyph glyph-name="uni0416" unicode="&#x416;" horiz-adv-x="786" d="M463 650 L463 417 L645 684 C661 705 680 714 703 714 C746 714 771 676 771 647 C771 637 769 627 762 615 L587 353 L762 89 C769 77 771 68 771 58 C771 29 746 -9 703 -9 C680 -9 660 0 645 20 L463 288 L463 56 C463 21 431 -9 393 -9 C354 -9 323 21 323 56 L323 288 L141 20 C126 0 106 -9 83 -9 C40 -9 15 29 15 58 C15 68 17 77 24 89 L199 352 L24 615 C17 627 15 637 15 647 C15 676 40 714 83 714 C106 714 125 705 141 684 L323 417 L323 650 C323 684 354 714 393 714 C431 714 463 684 463 650 L463 650 Z " />
<glyph glyph-name="uni0417" unicode="&#x417;" horiz-adv-x="525" d="M494 203 C494 92 399 -9 249 -9 C161 -9 20 26 20 97 C20 130 51 157 85 157 C128 157 162 112 239 112 C314 112 355 154 355 206 C355 273 287 291 210 296 C172 298 133 302 133 360 C133 417 172 419 202 420 C269 422 340 451 340 514 C340 551 316 593 245 593 C218 593 190 587 168 577 C145 567 123 548 95 548 C63 548 31 573 31 606 C31 672 160 714 253 714 C401 714 476 608 476 516 C476 449 437 402 364 365 C444 333 494 284 494 203 L494 203 Z " />
<glyph glyph-name="uni0418" unicode="&#x418;" horiz-adv-x="640" d="M137 -9 C93 -9 63 22 63 59 L63 649 C63 684 93 714 132 714 C170 714 203 684 203 649 L203 271 C295 432 346 523 435 677 C449 699 476 714 503 714 C545 714 576 685 576 646 L576 56 C576 21 546 -9 507 -9 C469 -9 436 21 436 56 L436 430 L204 26 C191 5 163 -9 137 -9 L137 -9 Z " />
<glyph glyph-name="uni0419" unicode="&#x419;" horiz-adv-x="629" d="M314 845 C332 845 354 856 373 876 C384 891 401 899 419 899 C446 899 473 881 463 843 C447 785 368 753 314 753 C260 753 183 785 165 843 C155 881 182 899 209 899 C226 899 244 891 254 876 C274 856 296 845 314 845 L314 845 Z M137 -9 C93 -9 63 22 63 59 L63 649 C63 684 93 714 132 714 C170 714 203 684 203 649 L203 271 C295 432 346 523 435 677 C449 699 476 714 503 714 C545 714 576 685 576 646 L576 56 C576 21 546 -9 507 -9 C469 -9 436 21 436 56 L436 430 L204 26 C191 5 163 -9 137 -9 L137 -9 Z " />
<glyph glyph-name="uni041A" unicode="&#x41a;" horiz-adv-x="556" d="M203 650 L203 417 L215 417 L415 685 C430 705 450 714 473 714 C516 714 541 676 541 647 C541 637 539 627 530 613 L333 353 L530 92 C539 78 541 68 541 58 C541 29 516 -9 473 -9 C450 -9 430 0 415 20 L214 289 L203 289 L203 56 C203 21 171 -9 133 -9 C94 -9 63 21 63 56 L63 650 C63 684 94 714 133 714 C171 714 203 684 203 650 L203 650 Z " />
<glyph glyph-name="uni041B" unicode="&#x41b;" horiz-adv-x="665" d="M137 180 L172 633 C175 672 208 705 250 705 L523 705 C565 705 601 672 601 633 L601 55 C599 20 568 -7 531 -7 C491 -7 461 20 461 56 L461 579 L305 579 L276 182 C266 72 221 -7 121 -7 C67 -7 15 -6 15 57 C15 103 48 123 82 123 C90 123 95 120 104 120 L110 120 C126 120 134 140 137 180 L137 180 Z " />
<glyph glyph-name="uni041C" unicode="&#x41c;" horiz-adv-x="759" d="M698 648 L698 54 C698 20 666 -9 629 -9 C591 -9 558 20 558 54 L558 398 L444 174 C431 148 406 136 378 136 C351 136 326 148 313 174 L199 398 L199 54 C199 20 166 -9 127 -9 C89 -9 59 20 59 54 L59 648 C59 686 90 714 131 714 C163 714 188 701 201 675 L379 322 L557 676 C571 705 598 714 626 714 C667 714 698 684 698 648 L698 648 Z " />
<glyph glyph-name="uni041D" unicode="&#x41d;" horiz-adv-x="620" d="M556 56 C556 21 524 -9 486 -9 C449 -9 416 21 416 56 L416 289 L203 289 L203 56 C203 21 171 -9 133 -9 C94 -9 63 21 63 56 L63 650 C63 684 94 714 133 714 C171 714 203 684 203 650 L203 417 L416 417 L416 650 C416 684 449 714 486 714 C523 714 556 684 556 650 L556 56 L556 56 Z " />
<glyph glyph-name="uni041E" unicode="&#x41e;" horiz-adv-x="610" d="M305 -9 C132 -9 45 108 45 254 L45 452 C45 594 118 714 305 714 C492 714 565 594 565 452 L565 254 C565 108 478 -9 305 -9 L305 -9 Z M305 587 C217 587 185 533 185 452 L185 254 C185 174 223 118 305 118 C387 118 425 174 425 254 L425 452 C425 533 393 587 305 587 L305 587 Z " />
<glyph glyph-name="uni041F" unicode="&#x41f;" horiz-adv-x="619" d="M556 56 C556 21 524 -9 486 -9 C449 -9 416 21 416 56 L416 579 L203 579 L203 56 C203 21 171 -9 133 -9 C94 -9 63 21 63 56 L63 641 C63 676 94 706 133 706 L486 706 C523 706 556 676 556 641 L556 56 L556 56 Z " />
<glyph glyph-name="uni0420" unicode="&#x420;" horiz-adv-x="570" d="M288 240 L203 240 L203 57 C203 22 171 -9 133 -9 C96 -9 63 21 63 57 L63 633 C63 672 99 705 141 705 L288 705 C476 705 543 593 543 471 C543 323 443 240 288 240 L288 240 Z M203 578 L203 367 L288 367 C363 367 403 400 403 472 C403 524 382 578 288 578 L203 578 L203 578 Z " />
<glyph glyph-name="uni0421" unicode="&#x421;" horiz-adv-x="522" d="M175 452 L175 254 C175 168 205 114 295 114 C327 114 353 122 378 138 L388 144 C401 152 408 159 431 159 C469 159 497 131 497 99 C497 41 396 -8 290 -8 C115 -8 35 96 35 254 L35 452 C35 610 115 714 290 714 C396 714 497 665 497 607 C497 575 469 547 431 547 C408 547 401 554 388 562 L378 568 C353 584 327 592 295 592 C205 592 175 538 175 452 L175 452 Z " />
<glyph glyph-name="uni0422" unicode="&#x422;" horiz-adv-x="523" d="M191 55 L191 578 L85 578 C45 578 15 607 15 641 C15 669 46 705 85 705 L437 705 C473 705 508 677 508 641 C508 607 475 578 437 578 L331 578 L331 55 C331 21 299 -9 261 -9 C222 -9 191 21 191 55 L191 55 Z " />
<glyph glyph-name="uni0423" unicode="&#x423;" horiz-adv-x="543" d="M311 455 L395 672 C405 699 432 714 459 714 C494 714 528 688 528 651 C528 643 525 632 523 628 L362 229 C311 103 260 -4 118 -7 C78 -7 48 19 48 55 C48 86 73 115 114 117 C158 119 180 136 203 182 L19 630 C15 639 15 647 15 653 C15 688 45 714 84 714 C110 714 136 699 147 672 L234 456 C252 412 260 364 273 318 C286 364 294 410 311 455 L311 455 Z " />
<glyph glyph-name="uni0424" unicode="&#x424;" horiz-adv-x="790" d="M325 55 L325 147 L290 147 C135 147 35 230 35 379 C35 501 102 614 290 614 L325 614 L325 650 C325 684 360 714 395 714 C437 714 465 684 465 650 L465 614 L500 614 C688 614 755 501 755 379 C755 230 655 147 500 147 L465 147 L465 55 C465 21 433 -9 395 -9 C356 -9 325 21 325 55 L325 55 Z M500 487 L465 487 L465 275 L500 275 C575 275 615 308 615 380 C615 432 594 487 500 487 L500 487 Z M290 275 L325 275 L325 487 L290 487 C196 487 175 432 175 380 C175 308 215 275 290 275 L290 275 Z " />
<glyph glyph-name="uni0425" unicode="&#x425;" horiz-adv-x="554" d="M277 251 L144 31 L144 32 C133 14 115 -9 80 -9 C44 -9 12 23 12 56 C12 67 17 82 22 90 L195 366 L36 617 C31 627 28 640 28 651 C28 683 59 714 95 714 C126 714 150 692 164 668 L277 482 L390 668 C403 687 425 714 460 714 C495 714 526 685 526 650 C526 640 522 628 517 617 L359 366 L532 90 C537 82 542 67 542 56 C542 23 509 -9 475 -9 C440 -9 422 12 410 31 L277 251 L277 251 Z " />
<glyph glyph-name="uni0426" unicode="&#x426;" horiz-adv-x="644" d="M556 649 L556 127 L566 127 C603 127 636 97 636 63 L636 -92 C636 -127 603 -157 566 -157 C529 -157 496 -127 496 -92 L496 0 L133 0 C94 0 63 30 63 65 L63 649 C63 684 94 714 133 714 C171 714 203 684 203 649 L203 127 L416 127 L416 649 C416 684 449 714 486 714 C524 714 556 684 556 649 L556 649 Z " />
<glyph glyph-name="uni0427" unicode="&#x427;" horiz-adv-x="587" d="M383 57 L383 263 C348 245 315 240 279 240 C132 240 43 323 43 471 L43 648 C43 683 74 714 113 714 C150 714 183 684 183 648 L183 472 C183 398 218 367 285 367 C319 367 350 375 383 392 L383 648 C383 683 414 714 453 714 C490 714 523 684 523 648 L523 57 C523 21 490 -9 453 -9 C414 -9 383 22 383 57 L383 57 Z " />
<glyph glyph-name="uni0428" unicode="&#x428;" horiz-adv-x="800" d="M736 649 L736 65 C736 30 703 0 666 0 L133 0 C94 0 63 30 63 65 L63 649 C63 684 94 714 133 714 C171 714 203 684 203 649 L203 127 L329 127 L329 650 C329 684 360 714 399 714 C437 714 469 684 469 650 L469 127 L596 127 L596 649 C596 684 629 714 666 714 C704 714 736 684 736 649 L736 649 Z " />
<glyph glyph-name="uni0429" unicode="&#x429;" horiz-adv-x="824" d="M133 0 C94 0 63 30 63 65 L63 649 C63 684 94 714 133 714 C171 714 203 684 203 649 L203 127 L329 127 L329 650 C329 684 360 714 399 714 C437 714 469 684 469 650 L469 127 L596 127 L596 649 C596 684 629 714 666 714 C704 714 736 684 736 649 L736 127 L746 127 C783 127 816 97 816 63 L816 -82 C816 -117 784 -147 746 -147 C709 -147 676 -117 676 -82 L676 0 L133 0 L133 0 Z " />
<glyph glyph-name="uni042A" unicode="&#x42a;" horiz-adv-x="704" d="M182 72 L182 578 L85 578 C46 578 16 605 16 641 C16 675 46 705 85 705 L247 705 C290 705 322 670 322 636 L322 466 L407 466 C562 466 662 383 662 235 C662 112 595 0 407 0 L260 0 C218 0 182 33 182 72 L182 72 Z M407 339 L322 339 L322 127 L407 127 C501 127 522 182 522 234 C522 306 482 339 407 339 L407 339 Z " />
<glyph glyph-name="uni042B" unicode="&#x42b;" horiz-adv-x="785" d="M581 55 L581 650 C581 684 612 714 651 714 C689 714 721 684 721 650 L721 55 C721 21 689 -9 651 -9 C612 -9 581 21 581 55 L581 55 Z M203 648 L203 466 L278 466 C433 466 533 383 533 235 C533 112 466 0 278 0 L141 0 C99 0 63 33 63 72 L63 648 C63 684 96 714 133 714 C171 714 203 683 203 648 L203 648 Z M278 339 L203 339 L203 127 L278 127 C372 127 393 182 393 234 C393 306 353 339 278 339 L278 339 Z " />
<glyph glyph-name="uni042C" unicode="&#x42c;" horiz-adv-x="585" d="M203 648 L203 466 L288 466 C443 466 543 383 543 235 C543 112 476 0 288 0 L141 0 C99 0 63 33 63 72 L63 648 C63 684 96 714 133 714 C171 714 203 683 203 648 L203 648 Z M288 339 L203 339 L203 127 L288 127 C382 127 403 182 403 234 C403 306 363 339 288 339 L288 339 Z " />
<glyph glyph-name="uni042D" unicode="&#x42d;" horiz-adv-x="538" d="M357 452 C357 538 327 592 237 592 C205 592 179 584 154 568 L144 562 C131 554 124 547 101 547 C63 547 35 575 35 607 C35 665 136 714 242 714 C417 714 497 610 497 452 L497 254 C497 96 417 -8 242 -8 C136 -8 35 41 35 99 C35 131 63 159 101 159 C124 159 131 152 144 144 L154 138 C179 122 205 114 237 114 C327 114 357 168 357 254 L357 289 L201 289 C162 289 133 318 133 354 C133 390 165 417 201 417 L357 417 L357 452 L357 452 Z " />
<glyph glyph-name="uni042E" unicode="&#x42e;" horiz-adv-x="838" d="M543 -9 C377 -9 293 104 293 245 L293 290 L203 290 L203 56 C203 21 171 -9 133 -9 C94 -9 63 21 63 56 L63 650 C63 684 94 714 133 714 C171 714 203 684 203 650 L203 417 L293 417 L293 461 C293 599 363 714 543 714 C723 714 793 599 793 461 L793 245 C793 104 709 -9 543 -9 L543 -9 Z M543 587 C462 587 433 536 433 461 L433 245 C433 170 468 118 543 118 C618 118 653 170 653 245 L653 461 C653 536 624 587 543 587 L543 587 Z " />
<glyph glyph-name="uni042F" unicode="&#x42f;" horiz-adv-x="601" d="M60 493 C60 598 120 705 308 705 L462 705 C503 705 538 672 538 633 L538 57 C538 21 508 -9 469 -9 C431 -9 398 22 398 57 L398 286 L349 286 L182 23 C169 3 148 -8 123 -8 C96 -8 50 19 50 54 C50 65 54 83 62 95 L198 301 C112 329 60 394 60 493 L60 493 Z M200 493 C200 441 234 412 296 412 L398 412 L398 578 L302 578 C219 578 200 535 200 493 L200 493 Z " />
<glyph glyph-name="uni0430" unicode="&#x430;" horiz-adv-x="522" d="M450 306 L450 120 C450 90 465 93 482 86 C497 80 505 69 505 48 C505 16 486 -4 433 -4 C396 -4 371 6 348 38 C311 8 269 -7 213 -7 C97 -7 35 56 35 151 L35 154 C35 256 101 307 233 307 C260 307 286 305 312 297 L312 329 C312 376 287 398 236 398 C208 398 191 391 171 382 C163 379 152 372 133 372 C91 372 75 405 75 430 C75 489 163 513 246 513 C391 513 450 441 450 306 L450 306 Z M241 210 C183 210 172 183 172 153 L172 150 C172 117 191 104 234 104 C260 104 286 110 312 130 L312 202 C287 207 261 210 241 210 L241 210 Z " />
<glyph glyph-name="uni0431" unicode="&#x431;" horiz-adv-x="505" d="M35 179 L35 453 C35 582 102 681 259 697 C265 698 313 701 354 719 C358 721 368 725 382 725 C418 725 446 699 446 665 C446 589 304 586 266 582 C235 579 173 565 173 460 C199 479 231 488 266 488 C395 488 469 407 469 302 L469 179 C469 74 394 -7 252 -7 C110 -7 35 74 35 179 L35 179 Z M252 111 C304 111 331 137 331 179 L331 303 C331 344 308 370 256 370 C208 370 176 348 173 309 L173 179 C173 137 200 111 252 111 L252 111 Z " />
<glyph glyph-name="uni0432" unicode="&#x432;" horiz-adv-x="508" d="M462 365 C462 318 438 283 370 256 C442 228 472 193 472 140 C472 61 407 0 276 0 L132 0 C93 0 63 29 63 62 L63 443 C63 476 93 505 132 505 L266 505 C398 505 462 443 462 365 L462 365 Z M335 156 C335 181 324 209 265 209 L201 209 L201 104 L274 104 C314 104 335 120 335 156 L335 156 Z M201 401 L201 302 L266 302 C316 302 325 326 325 349 C325 385 304 401 264 401 L201 401 L201 401 Z " />
<glyph glyph-name="uni0433" unicode="&#x433;" horiz-adv-x="432" d="M201 389 L201 55 C201 20 171 -7 132 -7 C93 -7 63 20 63 55 L63 447 C63 480 92 505 129 505 L354 505 C389 505 420 480 420 447 C420 414 391 389 354 389 L201 389 L201 389 Z " />
<glyph glyph-name="uni0434" unicode="&#x434;" horiz-adv-x="578" d="M190 505 L440 505 C486 505 499 465 499 443 L499 113 L506 113 C552 113 565 73 565 51 L565 -78 C565 -113 535 -140 496 -140 C457 -140 427 -113 427 -78 L427 0 L151 0 L151 -78 C151 -113 121 -140 82 -140 C43 -140 13 -113 13 -78 L13 51 C13 71 24 113 72 113 C103 138 119 190 123 263 L132 445 C133 475 157 505 190 505 L190 505 Z M256 261 C253 204 243 153 225 113 L361 113 L361 392 L261 392 L256 261 L256 261 Z " />
<glyph glyph-name="uni0435" unicode="&#x435;" horiz-adv-x="485" d="M260 191 C234 191 212 193 183 197 L183 164 C183 130 209 108 263 108 C295 108 321 116 353 130 C357 132 366 136 383 136 C431 136 445 104 445 81 C445 11 317 -7 253 -7 C121 -7 45 69 45 168 L45 335 C45 436 119 513 258 513 C389 513 454 444 454 343 C454 247 395 191 260 191 L260 191 Z M317 350 C317 390 296 406 257 406 C209 406 183 381 183 341 L183 298 C215 295 245 294 255 294 C293 294 317 307 317 350 L317 350 Z " />
<glyph glyph-name="uni0436" unicode="&#x436;" horiz-adv-x="648" d="M393 55 C393 20 363 -7 324 -7 C285 -7 255 20 255 55 L255 189 L139 21 C125 1 106 -7 82 -7 C44 -7 17 14 15 48 C15 59 19 75 26 85 L140 251 L25 418 C16 430 15 443 15 453 C17 487 45 509 82 509 C107 509 126 500 140 480 L252 316 L255 316 L255 449 C255 482 285 510 324 510 C363 510 393 482 393 449 L393 316 L395 316 L508 478 C523 499 543 509 566 509 C604 509 631 487 633 453 C633 442 629 427 622 417 L507 251 L622 85 C629 75 633 59 633 48 C631 14 603 -7 566 -7 C541 -7 522 3 508 22 L393 189 L393 55 L393 55 Z " />
<glyph glyph-name="uni0437" unicode="&#x437;" horiz-adv-x="448" d="M404 370 C404 320 380 285 321 258 C387 234 414 199 414 144 C414 57 347 -7 214 -7 C152 -7 29 7 29 75 C29 102 49 134 82 134 C97 134 117 128 123 125 C150 112 170 103 211 103 C251 103 278 112 278 153 C278 171 273 198 189 203 C154 205 112 208 112 256 C112 304 155 304 186 307 C264 315 268 348 268 361 C268 388 249 403 207 403 C152 403 138 377 103 377 C66 377 39 406 39 436 C39 494 142 513 212 513 C339 513 404 451 404 370 L404 370 Z " />
<glyph glyph-name="uni0438" unicode="&#x438;" horiz-adv-x="570" d="M137 -9 C93 -9 63 21 63 57 L63 448 C63 482 92 511 131 511 C169 511 201 482 201 448 L201 219 L368 477 C381 499 407 511 434 511 C477 511 506 483 506 445 L506 55 C506 21 476 -9 437 -9 C398 -9 368 21 368 55 L368 280 L202 24 C187 4 163 -9 137 -9 L137 -9 Z " />
<glyph glyph-name="uni0439" unicode="&#x439;" horiz-adv-x="570" d="M137 -9 C93 -9 63 21 63 57 L63 448 C63 482 92 511 131 511 C169 511 201 482 201 448 L201 219 L368 477 C381 499 407 511 434 511 C477 511 506 483 506 445 L506 55 C506 21 476 -9 437 -9 C398 -9 368 21 368 55 L368 280 L202 24 C187 4 163 -9 137 -9 L137 -9 Z M285 645 C303 645 325 656 344 676 C355 691 372 699 390 699 C417 699 444 681 434 643 C418 585 339 553 285 553 C231 553 154 585 136 643 C126 681 153 699 180 699 C197 699 215 691 225 676 C245 656 267 645 285 645 L285 645 Z " />
<glyph glyph-name="uni043A" unicode="&#x43a;" horiz-adv-x="476" d="M201 186 L201 55 C201 20 171 -7 132 -7 C93 -7 63 20 63 55 L63 449 C63 482 93 510 132 510 C171 510 201 482 201 449 L201 316 L215 316 L337 481 C351 500 369 509 394 509 C431 509 459 487 461 453 C461 442 457 427 450 417 L324 251 L450 85 C457 75 461 60 461 49 C459 15 431 -7 394 -7 C369 -7 351 2 337 21 L215 186 L201 186 L201 186 Z " />
<glyph glyph-name="uni043B" unicode="&#x43b;" horiz-adv-x="578" d="M122 169 L148 445 C151 475 173 505 206 505 L456 505 C502 505 515 465 515 443 L515 55 C515 20 485 -7 446 -7 C407 -7 377 20 377 55 L377 392 L275 392 L256 171 C246 65 205 -4 106 -4 C60 -4 15 7 15 54 C15 97 50 120 82 114 C87 113 91 112 95 112 C111 112 119 131 122 169 L122 169 Z " />
<glyph glyph-name="uni043C" unicode="&#x43c;" horiz-adv-x="680" d="M340 74 L338 74 C310 74 287 88 274 110 L200 249 L200 55 C200 21 168 -7 131 -7 C93 -7 63 21 63 55 L63 446 C63 483 94 510 135 510 C167 510 187 496 201 473 L339 238 L477 473 C491 496 511 510 543 510 C584 510 615 483 615 446 L615 55 C615 21 583 -7 547 -7 C508 -7 478 21 478 55 L478 249 L404 110 C391 88 368 74 340 74 L340 74 Z " />
<glyph glyph-name="uni043D" unicode="&#x43d;" horiz-adv-x="554" d="M201 55 C201 20 171 -7 132 -7 C93 -7 63 20 63 55 L63 449 C63 482 93 510 132 510 C171 510 201 482 201 449 L201 316 L353 316 L353 449 C353 482 383 510 422 510 C461 510 491 482 491 449 L491 55 C491 20 461 -7 422 -7 C383 -7 353 20 353 55 L353 204 L201 204 L201 55 L201 55 Z " />
<glyph glyph-name="uni043E" unicode="&#x43e;" horiz-adv-x="524" d="M262 -7 C120 -7 45 74 45 179 L45 328 C45 433 120 514 262 514 C404 514 479 433 479 328 L479 179 C479 74 404 -7 262 -7 L262 -7 Z M262 111 C314 111 341 137 341 179 L341 329 C341 370 314 396 262 396 C210 396 183 370 183 329 L183 179 C183 137 210 111 262 111 L262 111 Z " />
<glyph glyph-name="uni043F" unicode="&#x43f;" horiz-adv-x="544" d="M132 505 L412 505 C451 505 481 478 481 443 L481 55 C481 20 451 -7 412 -7 C373 -7 343 20 343 55 L343 392 L201 392 L201 55 C201 20 171 -7 132 -7 C93 -7 63 20 63 55 L63 443 C63 478 93 505 132 505 L132 505 Z " />
<glyph glyph-name="uni0440" unicode="&#x440;" horiz-adv-x="528" d="M292 -6 C265 -6 241 -3 205 14 L205 -151 C205 -185 180 -212 136 -212 C92 -212 67 -184 67 -151 L67 357 C67 380 64 392 56 404 C48 414 42 422 42 436 C42 473 76 497 108 497 C129 497 146 486 160 469 C208 496 248 513 301 513 C416 513 483 433 483 317 L483 201 C483 83 436 -6 292 -6 L292 -6 Z M205 357 L205 121 C235 112 260 108 278 108 C327 108 345 138 345 201 L345 317 C345 369 323 397 280 397 C259 397 234 390 203 376 C204 369 205 363 205 357 L205 357 Z " />
<glyph glyph-name="uni0441" unicode="&#x441;" horiz-adv-x="443" d="M45 184 L45 319 C45 426 109 510 252 510 C311 510 423 496 423 423 C423 399 411 372 361 372 C351 372 342 373 328 378 C307 386 291 395 260 395 C205 395 183 366 183 319 L183 184 C183 137 205 108 260 108 C291 108 308 117 328 125 C338 129 345 131 359 131 C411 131 423 103 423 80 C423 8 311 -7 251 -7 C110 -7 45 77 45 184 L45 184 Z " />
<glyph glyph-name="uni0442" unicode="&#x442;" horiz-adv-x="448" d="M293 385 L293 55 C293 20 263 -7 224 -7 C185 -7 155 20 155 55 L155 385 L81 385 C44 385 15 411 15 445 C15 479 44 505 81 505 L367 505 C404 505 433 479 433 445 C433 411 404 385 367 385 L293 385 L293 385 Z " />
<glyph glyph-name="uni0443" unicode="&#x443;" horiz-adv-x="474" d="M271 300 L325 468 C334 497 363 510 390 510 C425 510 459 485 459 449 C459 442 458 436 456 431 L334 75 C279 -87 241 -203 89 -203 C49 -203 19 -178 19 -143 C19 -113 44 -85 85 -83 C129 -81 151 -49 175 29 L21 426 C17 436 16 445 16 451 C16 485 46 510 85 510 C112 510 137 496 148 468 L211 300 C225 264 232 222 243 185 C252 222 259 264 271 300 L271 300 Z " />
<glyph glyph-name="uni0444" unicode="&#x444;" horiz-adv-x="664" d="M262 -150 L262 -5 C118 6 45 100 45 223 L45 291 C45 408 118 500 262 511 L262 660 C262 693 292 722 331 722 C370 722 400 695 400 660 L400 511 C545 501 619 409 619 291 L619 223 C619 100 545 5 400 -5 L400 -150 C400 -185 370 -212 331 -212 C292 -212 262 -185 262 -150 L262 -150 Z M491 292 C491 346 461 383 400 392 L400 114 C461 124 491 164 491 223 L491 292 L491 292 Z M173 223 C173 165 202 126 262 114 L262 391 C202 381 173 345 173 292 L173 223 L173 223 Z " />
<glyph glyph-name="uni0445" unicode="&#x445;" horiz-adv-x="471" d="M317 257 L446 87 C454 77 456 66 456 56 C456 22 428 -7 386 -7 C354 -7 341 4 323 29 C288 79 271 99 235 150 C204 108 172 65 142 23 C127 3 109 -7 85 -7 C46 -7 15 18 15 55 C15 65 18 76 25 85 C70 146 110 196 155 257 C115 310 75 361 35 416 C27 425 23 439 23 448 C23 481 53 510 92 510 C131 510 147 486 161 467 L237 364 L317 475 C332 496 347 510 379 510 C411 510 447 484 447 450 C447 441 445 428 437 418 L317 257 L317 257 Z " />
<glyph glyph-name="uni0446" unicode="&#x446;" horiz-adv-x="569" d="M491 113 C528 111 557 85 557 51 L557 -83 C557 -118 527 -145 488 -145 C449 -145 419 -118 419 -83 L419 0 L132 0 C93 0 63 27 63 62 L63 449 C63 484 93 510 132 510 C171 510 201 484 201 449 L201 113 L353 113 L353 449 C353 484 383 510 422 510 C461 510 491 484 491 449 L491 113 L491 113 Z " />
<glyph glyph-name="uni0447" unicode="&#x447;" horiz-adv-x="518" d="M183 449 L183 323 C183 299 191 276 241 276 C254 276 283 279 316 284 L316 449 C316 482 346 510 385 510 C424 510 454 482 454 449 L454 55 C454 20 424 -7 385 -7 C346 -7 316 20 316 55 L316 175 C288 165 263 164 244 164 C104 164 45 223 45 323 L45 449 C45 482 75 510 114 510 C153 510 183 482 183 449 L183 449 Z " />
<glyph glyph-name="uni0448" unicode="&#x448;" horiz-adv-x="745" d="M612 0 L132 0 C93 0 63 27 63 62 L63 449 C63 484 93 510 132 510 C171 510 201 484 201 449 L201 113 L303 113 L303 449 C303 482 333 510 372 510 C411 510 441 482 441 449 L441 113 L543 113 L543 449 C543 484 573 510 612 510 C651 510 681 484 681 449 L681 62 C681 27 651 0 612 0 L612 0 Z " />
<glyph glyph-name="uni0449" unicode="&#x449;" horiz-adv-x="758" d="M609 0 L132 0 C93 0 63 27 63 62 L63 449 C63 484 93 510 132 510 C171 510 201 484 201 449 L201 113 L303 113 L303 449 C303 482 333 510 372 510 C411 510 441 482 441 449 L441 113 L543 113 L543 449 C543 484 573 510 612 510 C651 510 681 484 681 449 L681 113 C717 112 747 86 747 51 L747 -83 C747 -118 717 -145 678 -145 C639 -145 609 -118 609 -83 L609 0 L609 0 Z " />
<glyph glyph-name="uni044A" unicode="&#x44a;" horiz-adv-x="583" d="M134 389 L81 389 C44 389 15 414 15 447 C15 480 46 505 81 505 L206 505 C243 505 272 480 272 447 L272 321 L354 321 C495 321 553 262 553 158 C553 64 491 0 367 0 L203 0 C164 0 134 29 134 62 L134 389 L134 389 Z M354 208 L272 208 L272 114 L365 114 C398 114 416 129 416 161 C416 184 407 208 354 208 L354 208 Z " />
<glyph glyph-name="uni044B" unicode="&#x44b;" horiz-adv-x="724" d="M660 55 C660 20 630 -7 591 -7 C552 -7 522 20 522 55 L522 449 C522 482 552 510 591 510 C630 510 660 482 660 449 L660 55 L660 55 Z M201 449 L201 321 L283 321 C424 321 482 262 482 158 C482 64 420 0 296 0 L132 0 C93 0 63 29 63 62 L63 449 C63 482 93 510 132 510 C171 510 201 482 201 449 L201 449 Z M283 208 L201 208 L201 114 L294 114 C327 114 345 129 345 161 C345 184 336 208 283 208 L283 208 Z " />
<glyph glyph-name="uni044C" unicode="&#x44c;" horiz-adv-x="512" d="M201 449 L201 321 L283 321 C424 321 482 262 482 158 C482 64 420 0 296 0 L132 0 C93 0 63 29 63 62 L63 449 C63 482 93 510 132 510 C171 510 201 482 201 449 L201 449 Z M283 208 L201 208 L201 114 L294 114 C327 114 345 129 345 161 C345 184 336 208 283 208 L283 208 Z " />
<glyph glyph-name="uni044D" unicode="&#x44d;" horiz-adv-x="433" d="M397 310 L397 193 C397 80 337 -7 198 -7 C138 -7 19 12 19 74 C19 105 47 131 83 131 C90 131 99 130 111 126 C134 117 156 108 190 108 C239 108 259 139 259 193 L259 196 L136 196 C99 196 70 221 70 254 C70 287 99 312 136 312 L259 312 C258 365 238 395 190 395 C156 395 134 386 111 377 C99 374 90 372 83 372 C47 372 19 399 19 429 C19 492 138 510 198 510 C337 510 397 423 397 310 L397 310 Z " />
<glyph glyph-name="uni044E" unicode="&#x44e;" horiz-adv-x="741" d="M201 55 C201 20 171 -7 132 -7 C93 -7 63 20 63 55 L63 449 C63 482 93 510 132 510 C171 510 201 482 201 449 L201 316 L281 316 L281 327 C281 432 354 513 493 513 C632 513 705 432 705 327 L705 179 C705 74 632 -7 493 -7 C354 -7 281 74 281 179 L281 204 L201 204 L201 55 L201 55 Z M493 111 C542 111 567 137 567 179 L567 328 C567 369 542 395 493 395 C444 395 419 369 419 328 L419 179 C419 137 444 111 493 111 L493 111 Z " />
<glyph glyph-name="uni044F" unicode="&#x44f;" horiz-adv-x="527" d="M394 -7 C355 -7 325 21 325 55 L325 184 L283 184 L164 21 C149 2 131 -7 107 -7 C69 -7 42 14 40 48 C40 59 44 75 51 85 L138 201 C72 225 44 275 44 347 C44 441 109 505 240 505 L394 505 C433 505 463 476 463 443 L463 55 C463 21 433 -7 394 -7 L394 -7 Z M181 344 C181 321 192 297 253 297 L325 297 L325 391 L242 391 C202 391 181 376 181 344 L181 344 Z " />
<glyph glyph-name="uni0450" unicode="&#x450;" horiz-adv-x="485" d="M260 191 C234 191 212 193 183 197 L183 164 C183 130 209 108 263 108 C295 108 321 116 353 130 C357 132 366 136 383 136 C431 136 445 104 445 81 C445 11 317 -7 253 -7 C121 -7 45 69 45 168 L45 335 C45 436 119 513 258 513 C389 513 454 444 454 343 C454 247 395 191 260 191 L260 191 Z M317 350 C317 390 296 406 257 406 C209 406 183 381 183 341 L183 298 C215 295 245 294 255 294 C293 294 317 307 317 350 L317 350 Z M241 710 L322 631 C330 624 330 616 330 606 C330 577 307 557 279 557 C257 557 249 565 234 578 L152 660 C145 670 143 680 143 688 C143 716 169 737 192 737 C214 737 221 730 233 718 L241 710 L241 710 Z " />
<glyph glyph-name="uni0451" unicode="&#x451;" horiz-adv-x="485" d="M260 191 C234 191 212 193 183 197 L183 164 C183 130 209 108 263 108 C295 108 321 116 353 130 C357 132 366 136 383 136 C431 136 445 104 445 81 C445 11 317 -7 253 -7 C121 -7 45 69 45 168 L45 335 C45 436 119 513 258 513 C389 513 454 444 454 343 C454 247 395 191 260 191 L260 191 Z M317 350 C317 390 296 406 257 406 C209 406 183 381 183 341 L183 298 C215 295 245 294 255 294 C293 294 317 307 317 350 L317 350 Z M397 630 C397 595 368 567 332 567 C296 567 266 596 266 630 C266 663 296 691 332 691 C368 691 397 664 397 630 L397 630 Z M218 630 C218 595 189 567 152 567 C116 567 88 596 88 630 C88 663 116 691 152 691 C189 691 218 664 218 630 L218 630 Z " />
<glyph glyph-name="uni0452" unicode="&#x452;" horiz-adv-x="622" d="M419 40 L419 280 C419 339 403 367 362 367 C334 367 299 355 276 334 L276 55 C276 20 247 -7 208 -7 C169 -7 139 20 139 55 L139 549 L72 549 C40 549 15 571 15 598 C15 625 40 648 72 648 L139 648 L139 665 C139 697 168 727 207 727 C246 727 276 700 276 665 L276 648 L341 648 C372 648 397 625 397 598 C397 572 372 549 341 549 L276 549 L276 463 C304 478 337 486 371 486 C499 486 557 402 557 281 L557 73 C557 -83 497 -179 367 -201 C336 -201 312 -184 305 -159 C292 -114 330 -94 357 -87 C395 -77 419 -38 419 40 L419 40 Z " />
<glyph glyph-name="uni0453" unicode="&#x453;" horiz-adv-x="432" d="M201 389 L201 55 C201 20 171 -7 132 -7 C93 -7 63 20 63 55 L63 447 C63 480 92 505 129 505 L354 505 C389 505 420 480 420 447 C420 414 391 389 354 389 L201 389 L201 389 Z M184 631 L265 710 L273 718 C285 730 292 737 314 737 C337 737 363 716 363 688 C363 680 361 670 354 660 L272 578 C257 565 249 557 227 557 C199 557 176 577 176 606 C176 616 178 623 184 631 L184 631 Z " />
<glyph glyph-name="uni0454" unicode="&#x454;" horiz-adv-x="443" d="M45 184 L45 319 C45 426 109 510 252 510 C311 510 423 496 423 423 C423 399 411 372 361 372 C351 372 342 373 328 378 C307 386 291 395 260 395 C205 395 183 366 183 319 L183 312 L306 312 C343 312 372 287 372 254 C372 221 343 196 306 196 L183 196 L183 184 C183 137 205 108 260 108 C291 108 308 117 328 125 C338 129 345 131 359 131 C411 131 423 103 423 80 C423 8 311 -7 251 -7 C110 -7 45 77 45 184 L45 184 Z " />
<glyph glyph-name="uni0455" unicode="&#x455;" horiz-adv-x="446" d="M43 358 C43 450 108 513 236 513 C301 513 398 497 398 428 C398 385 360 377 339 377 C304 377 286 398 237 398 C199 398 179 385 179 362 C179 348 187 338 209 329 C281 298 412 284 412 151 C412 54 343 -7 217 -7 C153 -7 37 9 37 71 C37 100 63 130 102 130 C135 130 166 108 215 108 C251 108 276 120 276 148 C276 166 266 174 255 180 C190 216 43 219 43 358 L43 358 Z " />
<glyph glyph-name="uni0456" unicode="&#x456;" horiz-adv-x="285" d="M220 644 C220 605 186 574 142 574 C98 574 64 606 64 644 C64 683 98 714 142 714 C186 714 220 682 220 644 L220 644 Z M211 449 L211 55 C211 20 181 -7 142 -7 C103 -7 73 20 73 55 L73 449 C73 482 103 510 142 510 C181 510 211 482 211 449 L211 449 Z " />
<glyph glyph-name="uni0457" unicode="&#x457;" horiz-adv-x="285" d="M211 55 C211 20 181 -7 142 -7 C103 -7 73 20 73 55 L73 449 C73 482 103 510 142 510 C181 510 211 482 211 449 L211 55 L211 55 Z M297 630 C297 595 268 567 232 567 C196 567 166 596 166 630 C166 663 196 691 232 691 C268 691 297 664 297 630 L297 630 Z M118 630 C118 595 89 567 52 567 C16 567 -12 596 -12 630 C-12 663 16 691 52 691 C89 691 118 664 118 630 L118 630 Z " />
<glyph glyph-name="uni0458" unicode="&#x458;" horiz-adv-x="285" d="M220 644 C220 605 186 574 142 574 C98 574 64 606 64 644 C64 683 98 714 142 714 C186 714 220 682 220 644 L220 644 Z M211 449 L211 -7 C211 -122 138 -201 21 -201 C-10 -201 -34 -184 -41 -159 C-54 -114 -16 -92 11 -87 C48 -80 73 -58 73 -10 L73 449 C73 482 103 510 142 510 C181 510 211 482 211 449 L211 449 Z " />
<glyph glyph-name="uni0459" unicode="&#x459;" horiz-adv-x="786" d="M557 208 L495 208 L495 114 L568 114 C601 114 619 129 619 161 C619 184 610 208 557 208 L557 208 Z M495 443 L495 321 L557 321 C698 321 756 262 756 158 C756 64 694 0 570 0 L426 0 C387 0 357 29 357 62 L357 392 L275 392 L256 171 C246 65 205 -4 106 -4 C60 -4 15 -3 15 54 C15 97 49 114 82 114 C86 114 91 113 95 113 C111 113 119 132 122 169 L148 445 C151 475 173 505 206 505 L436 505 C482 505 495 465 495 443 L495 443 Z " />
<glyph glyph-name="uni045A" unicode="&#x45a;" horiz-adv-x="762" d="M201 55 C201 20 171 -7 132 -7 C93 -7 63 20 63 55 L63 449 C63 482 93 510 132 510 C171 510 201 482 201 449 L201 316 L333 316 L333 449 C333 482 363 510 402 510 C441 510 471 482 471 449 L471 316 L533 316 C674 316 732 259 732 158 C732 64 670 0 546 0 L402 0 C363 0 333 29 333 62 L333 204 L201 204 L201 55 L201 55 Z M533 204 L471 204 L471 114 L544 114 C577 114 595 129 595 161 C595 181 586 204 533 204 L533 204 Z " />
<glyph glyph-name="uni045B" unicode="&#x45b;" horiz-adv-x="622" d="M397 598 C397 572 372 549 341 549 L276 549 L276 469 C304 480 337 486 371 486 C499 486 557 414 557 311 L557 55 C557 20 525 -7 488 -7 C449 -7 419 20 419 55 L419 310 C419 348 403 367 362 367 C334 367 299 355 276 334 L276 55 C276 20 247 -7 208 -7 C169 -7 139 20 139 55 L139 549 L72 549 C40 549 15 571 15 598 C15 625 40 648 72 648 L139 648 L139 665 C139 697 168 727 207 727 C246 727 276 700 276 665 L276 648 L341 648 C372 648 397 625 397 598 L397 598 Z " />
<glyph glyph-name="uni045C" unicode="&#x45c;" horiz-adv-x="476" d="M201 186 L201 55 C201 20 171 -7 132 -7 C93 -7 63 20 63 55 L63 449 C63 482 93 510 132 510 C171 510 201 482 201 449 L201 316 L215 316 L337 481 C351 500 369 509 394 509 C431 509 459 487 461 453 C461 442 457 427 450 417 L324 251 L450 85 C457 75 461 60 461 49 C459 15 431 -7 394 -7 C369 -7 351 2 337 21 L215 186 L201 186 L201 186 Z M203 631 L284 710 L292 718 C304 730 311 737 333 737 C356 737 382 716 382 688 C382 680 380 670 373 660 L291 578 C276 565 268 557 246 557 C218 557 195 577 195 606 C195 616 197 623 203 631 L203 631 Z " />
<glyph glyph-name="uni045D" unicode="&#x45d;" horiz-adv-x="570" d="M137 -9 C93 -9 63 21 63 57 L63 448 C63 482 92 511 131 511 C169 511 201 482 201 448 L201 219 L368 477 C381 499 407 511 434 511 C477 511 506 483 506 445 L506 55 C506 21 476 -9 437 -9 C398 -9 368 21 368 55 L368 280 L202 24 C187 4 163 -9 137 -9 L137 -9 Z M259 710 L340 631 C348 624 348 616 348 606 C348 577 325 557 297 557 C275 557 267 565 252 578 L170 660 C163 670 161 680 161 688 C161 716 187 737 210 737 C232 737 239 730 251 718 L259 710 L259 710 Z " />
<glyph glyph-name="uni045E" unicode="&#x45e;" horiz-adv-x="474" d="M271 300 L325 468 C334 497 363 510 390 510 C425 510 459 485 459 449 C459 442 458 436 456 431 L334 75 C279 -87 241 -203 89 -203 C49 -203 19 -178 19 -143 C19 -113 44 -85 85 -83 C129 -81 151 -49 175 29 L21 426 C17 436 16 445 16 451 C16 485 46 510 85 510 C112 510 137 496 148 468 L211 300 C225 264 232 222 243 185 C252 222 259 264 271 300 L271 300 Z M237 645 C255 645 277 656 296 676 C307 691 324 699 342 699 C369 699 396 681 386 643 C370 585 291 553 237 553 C183 553 106 585 88 643 C78 681 105 699 132 699 C149 699 167 691 177 676 C197 656 219 645 237 645 L237 645 Z " />
<glyph glyph-name="uni045F" unicode="&#x45f;" horiz-adv-x="544" d="M412 0 L341 0 L341 -83 C341 -118 311 -145 272 -145 C233 -145 203 -118 203 -83 L203 0 L132 0 C93 0 63 27 63 62 L63 450 C63 485 93 512 132 512 C171 512 201 485 201 450 L201 113 L343 113 L343 450 C343 485 373 512 412 512 C451 512 481 485 481 450 L481 62 C481 27 451 0 412 0 L412 0 Z " />
<glyph glyph-name="uni0462" unicode="&#x462;" horiz-adv-x="684" d="M291 696 L291 660 L447 660 C478 660 508 636 508 606 C508 576 480 553 447 553 L291 553 L291 448 L376 448 C531 448 631 369 631 226 C631 108 564 0 376 0 L229 0 C187 0 151 33 151 72 L151 553 L75 553 C41 553 15 579 15 605 C15 631 42 660 75 660 L151 660 L151 696 C151 730 182 760 221 760 C259 760 291 730 291 696 L291 696 Z M291 127 L376 127 C470 127 491 177 491 225 C491 290 451 321 376 321 L291 321 L291 127 L291 127 Z " />
<glyph glyph-name="uni0463" unicode="&#x463;" horiz-adv-x="622" d="M277 656 L277 604 L341 604 C372 604 397 581 397 554 C397 528 372 505 341 505 L277 505 L277 366 L349 366 C496 366 558 299 558 187 C558 74 493 0 362 0 L208 0 C169 0 139 29 139 62 L139 505 L72 505 C40 505 15 527 15 555 C15 582 40 604 72 604 L139 604 L139 656 C139 691 169 718 208 718 C247 718 277 691 277 656 L277 656 Z M349 253 L277 253 L277 114 L360 114 C400 114 421 137 421 186 C421 218 410 253 349 253 L349 253 Z " />
<glyph glyph-name="uni0490" unicode="&#x490;" horiz-adv-x="503" d="M63 636 C63 670 95 705 138 705 L339 705 L339 772 C339 806 370 837 409 837 C447 837 479 806 479 772 L479 642 C479 606 449 579 410 579 L203 579 L203 56 C203 22 171 -8 133 -8 C94 -8 63 22 63 56 L63 636 L63 636 Z " />
<glyph glyph-name="uni0491" unicode="&#x491;" horiz-adv-x="450" d="M423 575 L423 450 C423 416 393 389 354 389 L201 389 L201 55 C201 20 171 -7 132 -7 C93 -7 63 20 63 55 L63 447 C63 480 92 505 129 505 L285 505 L285 575 C285 610 315 637 354 637 C393 637 423 610 423 575 L423 575 Z " />
<glyph glyph-name="Wgrave" unicode="&#x1e80;" horiz-adv-x="830" d="M495 640 L553 405 C567 350 572 294 582 238 C592 294 598 350 612 405 L676 660 C684 692 709 711 740 711 C774 711 818 692 818 650 C818 648 818 643 816 637 L666 54 C656 21 632 -9 584 -9 C536 -9 511 22 501 55 L442 300 C429 352 424 407 415 460 C406 407 401 352 388 300 L328 53 C319 24 299 -9 246 -9 C205 -9 172 24 163 54 L16 632 C14 642 12 651 12 651 C12 688 52 711 87 711 C116 711 144 696 152 663 L218 405 C232 351 237 294 247 239 C257 292 262 352 275 405 L334 640 C346 687 360 714 415 714 C466 714 484 685 495 640 L495 640 Z M419 910 L500 831 C508 824 508 816 508 806 C508 777 485 757 457 757 C435 757 427 765 412 778 L330 860 C323 870 321 880 321 888 C321 916 347 937 370 937 C392 937 399 930 411 918 L419 910 L419 910 Z " />
<glyph glyph-name="wgrave" unicode="&#x1e81;" horiz-adv-x="695" d="M409 43 L367 203 C356 243 354 284 348 325 C342 284 339 243 329 203 L288 43 C278 7 253 -7 212 -7 C168 -7 145 15 133 53 L17 437 C15 442 15 446 15 450 C15 481 45 510 84 510 C113 510 141 494 149 465 L192 300 C205 250 205 199 212 148 C220 199 222 250 235 300 L275 459 C283 488 309 510 349 510 C388 510 414 488 421 459 L460 300 C472 250 476 198 484 147 C491 198 491 250 504 300 L547 465 C554 490 583 510 612 510 C648 510 680 484 680 449 C680 448 679 442 679 439 L563 52 C551 13 532 -7 484 -7 C450 -7 418 11 409 43 L409 43 Z M352 710 L433 631 C441 624 441 616 441 606 C441 577 418 557 390 557 C368 557 360 565 345 578 L263 660 C256 670 254 680 254 688 C254 716 280 737 303 737 C325 737 332 730 344 718 L352 710 L352 710 Z " />
</font>
</svg>
