<?xml version="1.0" standalone="no"?>
<!DOCTYPE svg PUBLIC "-//W3C//DTD SVG 1.1//EN" "http://www.w3.org/Graphics/SVG/1.1/DTD/svg11.dtd" >
<svg xmlns="http://www.w3.org/2000/svg" xmlns:xlink="http://www.w3.org/1999/xlink" version="1.1">
<metadata></metadata>
<defs>
<font id="gidoleregular" horiz-adv-x="1064" >
<font-face units-per-em="2048" ascent="1638" descent="-410" />
<missing-glyph horiz-adv-x="512" />
<glyph horiz-adv-x="0" />
<glyph horiz-adv-x="682" />
<glyph unicode=" "  horiz-adv-x="512" />
<glyph unicode="&#x09;" horiz-adv-x="512" />
<glyph unicode="&#xa0;" horiz-adv-x="512" />
<glyph unicode="!" horiz-adv-x="532" d="M162 92q0 46 29 75.5t75 29.5t75.5 -29.5t29.5 -75.5t-29.5 -75t-75.5 -29t-75 29t-29 75zM190 967v397h152v-397q0 -164 -5 -319t-10 -228l-5 -74h-111q-21 253 -21 621z" />
<glyph unicode="&#x22;" horiz-adv-x="741" d="M102 1272q0 47 29.5 75.5t75.5 28.5t75 -28.5t29 -75.5q0 -31 -28 -111l-82 -229h-92l59 242q-29 9 -47.5 36t-18.5 62zM430 1272q0 47 29.5 75.5t75.5 28.5t75 -28.5t29 -75.5q0 -28 -29 -111l-82 -229h-92l60 242q-29 9 -47.5 36t-18.5 62z" />
<glyph unicode="#" horiz-adv-x="1249" d="M113 389v117h190l74 356h-193v117h217l82 385h131l-82 -385h308l82 385h131l-82 -385h166v-117h-191l-74 -356h193v-117h-217l-82 -389h-131l82 389h-307l-82 -389h-131l82 389h-166zM434 506h307l74 356h-307z" />
<glyph unicode="$" horiz-adv-x="1087" d="M90 129l90 115q130 -95 299 -111v522q-160 40 -248 113q-129 109 -129 270q0 72 32 137.5t87 110.5q57 45 128.5 65.5t129.5 22.5v133h111v-133q187 -13 338 -106l-82 -119q-112 66 -256 82v-455q180 -48 276 -137q119 -114 119 -270q0 -84 -37 -160t-102 -127 q-105 -82 -256 -92v-133h-111v133q-219 16 -389 139zM254 1038q0 -95 78 -161q54 -46 147 -72v426q-99 -3 -162 -55q-35 -31 -49 -70t-14 -68zM590 133q111 13 172 72q72 69 72 164q0 36 -16.5 82t-55.5 84q-35 34 -70 51.5t-102 40.5v-494z" />
<glyph unicode="%" horiz-adv-x="1417" d="M123 1067q0 54 2 82t15 69t40 74q32 38 81.5 61t107.5 23q118 0 188 -84q27 -33 40 -74t15 -69t2 -82q0 -53 -2 -80.5t-15 -68.5t-40 -74q-70 -84 -188 -84q-58 0 -107.5 23t-81.5 61q-27 33 -40 74t-15 68.5t-2 80.5zM246 1067q0 -44 0.5 -61t6 -40t17.5 -40 q35 -47 99 -47q63 0 98 47q17 24 21 53t4 88q0 42 -1 61.5t-6.5 42t-17.5 39.5q-35 47 -98 47q-64 0 -99 -47q-12 -17 -17.5 -40.5t-6 -40.5t-0.5 -62zM258 0l737 1364h152l-737 -1364h-152zM803 295q0 54 2 82t15 69t40 74q32 38 81.5 61t107.5 23q118 0 188 -84 q27 -33 40 -74t15 -69t2 -82q0 -53 -2 -80.5t-15 -68.5t-40 -74q-70 -84 -188 -84q-58 0 -107.5 23t-81.5 61q-27 33 -40 74t-15 68.5t-2 80.5zM926 295q0 -44 0.5 -61t6 -40t17.5 -40q36 -48 99 -48q62 0 98 48q12 17 17.5 40t6 40t0.5 61q0 45 -0.5 62t-6 40.5t-17.5 40.5 q-35 47 -98 47q-64 0 -99 -47q-12 -17 -17.5 -40.5t-6 -40.5t-0.5 -62z" />
<glyph unicode="&#x26;" horiz-adv-x="1320" d="M123 381q0 109 49.5 193t134.5 133q-75 46 -117.5 121.5t-42.5 175.5q0 158 109 265t289 107q187 0 327 -110l-84 -117q-108 84 -243 84q-114 0 -180 -65t-66 -164q0 -61 25.5 -111.5t74.5 -79.5q32 -19 73.5 -27.5t77 -10t112.5 -1.5h141v205h151v-205h211v-143h-211 v-363q0 -67 19 -98q24 -39 82 -39q54 0 121 37l63 -129q-94 -51 -184 -51q-136 0 -201 104q-125 -104 -309 -104q-183 0 -302.5 111t-119.5 282zM274 381q0 -103 70 -176.5t201 -73.5q154 0 258 94v406h-141q-80 0 -116.5 -1.5t-81 -10.5t-77.5 -29q-53 -31 -83 -86 t-30 -123z" />
<glyph unicode="'" horiz-adv-x="413" d="M102 1272q0 47 29.5 75.5t75.5 28.5t75 -28.5t29 -75.5q0 -31 -28 -111l-82 -229h-92l59 242q-29 9 -47.5 36t-18.5 62z" />
<glyph unicode="(" horiz-adv-x="655" d="M164 610q0 348 14.5 498.5t79.5 273.5q42 81 109.5 145.5t152.5 100.5l49 -104q-132 -59 -200 -191q-57 -108 -69.5 -247.5t-12.5 -475.5q0 -337 12.5 -477t69.5 -248q67 -131 200 -190l-49 -105q-85 36 -152.5 100.5t-109.5 145.5q-65 122 -79.5 274t-14.5 500z" />
<glyph unicode=")" horiz-adv-x="655" d="M86 -305q134 59 201 190q57 108 69.5 248t12.5 477q0 336 -12.5 475.5t-69.5 247.5q-67 132 -201 191l49 104q85 -36 152.5 -100.5t109.5 -145.5q65 -123 80 -275t15 -497q0 -346 -15 -498.5t-80 -275.5q-42 -81 -109.5 -145.5t-152.5 -100.5z" />
<glyph unicode="*" horiz-adv-x="720" d="M102 1143l33 102l178 -65l-6 186h107l-6 -186l178 63l32 -102l-180 -51l115 -148l-86 -63l-107 153l-106 -153l-84 61l113 150z" />
<glyph unicode="+" d="M164 453v118h307v310h123v-310h307v-118h-307v-310h-123v310h-307z" />
<glyph unicode="," horiz-adv-x="413" d="M102 92q0 47 29.5 76t75.5 29t75 -29t29 -76q0 -30 -28 -110l-82 -230h-92l59 242q-29 9 -47.5 36t-18.5 62z" />
<glyph unicode="-" horiz-adv-x="757" d="M164 453v118h430v-118h-430z" />
<glyph unicode="." horiz-adv-x="413" d="M102 92q0 46 29.5 75.5t75.5 29.5t75 -29.5t29 -75.5t-29 -75t-75 -29t-75.5 29t-29.5 75z" />
<glyph unicode="/" horiz-adv-x="700" d="M41 -295l491 1811h127l-491 -1811h-127z" />
<glyph unicode="0" horiz-adv-x="1093" d="M133 682q0 245 10 336.5t54 169.5q49 87 139 137.5t211 50.5t211 -50.5t139 -137.5q44 -78 54 -169.5t10 -336.5t-10 -336.5t-54 -169.5q-49 -87 -139 -137.5t-211 -50.5t-211 50.5t-139 137.5q-44 78 -54 169.5t-10 336.5zM285 682q0 -220 6 -298.5t35 -131.5 q65 -121 221 -121t221 121q29 53 35 131.5t6 298.5t-6 298.5t-35 131.5q-65 121 -221 121t-221 -121q-29 -53 -35 -131.5t-6 -298.5z" />
<glyph unicode="1" horiz-adv-x="739" d="M164 1243l239 121h132v-1364h-152v1190l-152 -80z" />
<glyph unicode="2" horiz-adv-x="1036" d="M123 0v102l481 654q65 88 91 138t26 110q0 99 -65.5 164t-180.5 65q-138 0 -244 -86l-81 121q141 108 325 108q175 0 286 -105.5t111 -266.5q0 -87 -32.5 -155t-102.5 -163l-399 -543h575v-143h-790z" />
<glyph unicode="3" horiz-adv-x="989" d="M102 115l93 112q103 -96 260 -96q131 0 200.5 73.5t69.5 176.5q0 68 -30 123t-83 86q-48 28 -103 34.5t-171 6.5v143q77 0 112 1.5t76.5 10t73.5 27.5q49 29 74.5 79.5t25.5 111.5q0 99 -65.5 164t-179.5 65q-136 0 -244 -84l-84 117q140 110 328 110q180 0 288.5 -107 t108.5 -265q0 -100 -42.5 -175.5t-117.5 -121.5q85 -49 135 -133t50 -193q0 -171 -119.5 -282t-302.5 -111q-102 0 -194.5 34t-158.5 93z" />
<glyph unicode="4" horiz-adv-x="1075" d="M113 338v102l411 924h152l-395 -887h421v348h144v-348h117v-139h-117v-338h-144v338h-589z" />
<glyph unicode="5" horiz-adv-x="1007" d="M131 119l92 112q49 -47 118.5 -73.5t141.5 -26.5q123 0 197 76t74 199q0 122 -74.5 198t-196.5 76q-110 0 -180 -53l-135 71v666h653v-143h-506v-437q76 39 168 39q185 0 303.5 -116.5t118.5 -300.5t-118.5 -301t-303.5 -117q-201 0 -352 131z" />
<glyph unicode="6" horiz-adv-x="1024" d="M102 420q0 77 21.5 145.5t73.5 177.5l297 621h165l-256 -535q54 23 109 23q182 0 296 -123.5t114 -308.5t-114 -308.5t-296 -123.5t-296 123.5t-114 308.5zM254 420q0 -134 71.5 -211.5t186.5 -77.5t186.5 77.5t71.5 211.5t-71.5 211.5t-186.5 77.5t-186.5 -77.5 t-71.5 -211.5z" />
<glyph unicode="7" horiz-adv-x="1024" d="M113 1221v143h798v-102l-536 -1262h-162l518 1221h-618z" />
<glyph unicode="8" horiz-adv-x="1069" d="M113 381q0 104 48 188.5t136 137.5q-77 50 -118.5 127t-41.5 170q0 161 113 266.5t285 105.5t284.5 -105.5t112.5 -266.5q0 -93 -41.5 -170t-118.5 -127q88 -53 136 -137.5t48 -188.5q0 -170 -119.5 -281.5t-301.5 -111.5t-302 111.5t-120 281.5zM264 381 q0 -114 73.5 -182t197.5 -68t197 68t73 182t-73 182t-197 68t-197.5 -68t-73.5 -182zM289 1004q0 -104 67 -167t179 -63t178.5 62.5t66.5 167.5q0 104 -66.5 166.5t-178.5 62.5t-179 -62.5t-67 -166.5z" />
<glyph unicode="9" horiz-adv-x="1024" d="M102 944q0 185 114 308.5t296 123.5t296 -123.5t114 -308.5q0 -77 -21.5 -145.5t-73.5 -177.5l-297 -621h-165l256 535q-54 -23 -109 -23q-182 0 -296 123.5t-114 308.5zM254 944q0 -134 71.5 -211.5t186.5 -77.5t186.5 77.5t71.5 211.5t-71.5 211.5t-186.5 77.5 t-186.5 -77.5t-71.5 -211.5z" />
<glyph unicode=":" horiz-adv-x="413" d="M102 92q0 46 29.5 75.5t75.5 29.5t75 -29.5t29 -75.5t-29 -75t-75 -29t-75.5 29t-29.5 75zM102 684q0 46 29.5 75t75.5 29t75 -29t29 -75t-29 -75t-75 -29t-75.5 29t-29.5 75z" />
<glyph unicode=";" horiz-adv-x="413" d="M102 92q0 47 29.5 76t75.5 29t75 -29t29 -76q0 -30 -28 -110l-82 -230h-92l59 242q-29 9 -47.5 36t-18.5 62zM102 684q0 46 29.5 75t75.5 29t75 -29t29 -75t-29 -75t-75 -29t-75.5 29t-29.5 75z" />
<glyph unicode="&#x3c;" d="M164 459v106l698 348l58 -106l-598 -295l598 -295l-58 -106z" />
<glyph unicode="=" d="M164 313v119h737v-119h-737zM164 592v119h737v-119h-737z" />
<glyph unicode="&#x3e;" d="M145 217l598 295l-598 295l58 106l698 -348v-106l-698 -348z" />
<glyph unicode="?" horiz-adv-x="950" d="M102 1266q140 110 328 110q180 0 288.5 -107t108.5 -265q0 -108 -45 -179t-125 -125q-38 -26 -54 -37.5t-42.5 -36t-38 -47t-21.5 -58t-12 -79.5l-4 -96h-110q-4 76 -4 113q0 86 23.5 151.5t57.5 103.5t83 68q71 43 106 95t35 127q0 99 -66 164t-180 65q-136 0 -244 -84z M326 92q0 46 29 75.5t75 29.5t75.5 -29.5t29.5 -75.5t-29.5 -75t-75.5 -29t-75 29t-29 75z" />
<glyph unicode="@" horiz-adv-x="1751" d="M154 201v209q0 69 0.5 101.5t6 89.5t17 92t33.5 78t55 79q36 39 82.5 66t86 40t100.5 20t96.5 8t103.5 1q75 0 110 -1.5t84 -8.5t85.5 -24t75.5 -46q31 -23 53.5 -49.5t36 -58t21.5 -57t11.5 -65.5t4 -63.5t0.5 -68.5v-543h-144v117q-39 -61 -106.5 -95t-143.5 -34 q-124 0 -213 69q-52 40 -84 102.5t-32 133.5q0 75 33.5 135t86.5 98q44 32 103.5 49t95 19t92.5 2h168q0 39 -1.5 59.5t-8.5 52t-24 56t-46 47.5q-41 33 -89.5 40t-168.5 7q-63 0 -94 -0.5t-80.5 -5.5t-79 -15t-62.5 -29.5t-57 -47.5q-27 -31 -42.5 -66t-22 -87t-7.5 -86.5 t-1 -110.5v-209q0 -76 1 -111t7.5 -87t22 -87t42.5 -66q24 -29 57 -48t62 -29t78 -15t80 -5.5t94 -0.5h285q63 0 94 0.5t80 5.5t78 15t62 29t57 48q27 31 42.5 66t22 87t7.5 87t1 111v280q0 79 -1 117t-4.5 105t-13.5 108t-27 93.5t-45 95.5t-66 81q-33 33 -71.5 58 t-73.5 41.5t-84.5 27.5t-84 16.5t-92.5 8.5t-91 3.5t-97 0.5h-133v127h133q83 0 126 -1t117.5 -6t124 -17.5t110.5 -33.5t113.5 -56t100.5 -83q41 -41 72 -88.5t51.5 -89.5t34.5 -100t21 -98t10.5 -105.5t4 -100t0.5 -104.5v-280q0 -69 -0.5 -101.5t-6 -89.5t-17 -92.5 t-33.5 -78.5t-55 -79q-36 -39 -82.5 -66t-85.5 -40t-99.5 -20t-96.5 -8t-103 -1h-285q-67 0 -103 1t-96.5 8t-99.5 20t-85.5 40t-82.5 66q-33 36 -55 79t-33.5 78.5t-17 92.5t-6 89.5t-0.5 101.5zM637 293q0 -35 16.5 -69.5t44.5 -57.5q51 -43 136 -43q64 0 114.5 26.5 t79.5 69.5q21 32 31.5 74.5t12 72t1.5 85.5v18h-168q-47 0 -72.5 -1.5t-63 -11t-64.5 -28.5q-68 -50 -68 -135z" />
<glyph unicode="A" horiz-adv-x="1114" d="M31 0l465 1364h122l465 -1364h-159l-109 338h-516l-109 -338h-159zM344 481h426l-213 670z" />
<glyph unicode="B" horiz-adv-x="1105" d="M154 0v1364h305q71 0 106.5 -1.5t87.5 -8.5t91.5 -24t76.5 -46q63 -49 97 -124t34 -163q0 -192 -149 -284q90 -46 140 -130.5t50 -195.5q0 -168 -108 -276q-32 -32 -72 -54t-73.5 -33t-85.5 -16.5t-83.5 -6.5t-91.5 -1h-325zM305 143h174q67 0 99.5 1.5t76 7.5t72 21.5 t53.5 41.5q62 66 62 172t-62 172q-25 26 -53.5 41.5t-72 21.5t-76 7.5t-99.5 1.5h-174v-488zM305 774h154q67 0 99 1.5t75 8t70.5 22t48.5 42.5q49 60 49 149q0 90 -49 150q-21 27 -48.5 42.5t-70.5 22t-75 8t-99 1.5h-154v-447z" />
<glyph unicode="C" horiz-adv-x="1093" d="M133 682q0 93 1 140t6 114.5t15.5 107.5t30.5 86t50 84q57 73 149 117.5t209 44.5q107 0 200.5 -37.5t157.5 -99.5l-92 -113q-103 107 -266 107q-156 0 -236 -103q-51 -64 -62 -152t-11 -296q0 -113 1 -160t7.5 -112t21.5 -102t41 -72q82 -105 238 -105q87 0 161.5 33 t121.5 88l104 -102q-66 -72 -168 -117t-219 -45q-118 0 -210.5 44t-150.5 120q-25 32 -42.5 65t-28 75.5t-17 75.5t-9 93.5t-3 99.5t-0.5 121z" />
<glyph unicode="D" horiz-adv-x="1146" d="M154 0v1364h223q72 0 109.5 -1t100.5 -8t105 -21t91.5 -42t90.5 -69t68 -90t41.5 -92t21.5 -112t8 -114t1 -133t-1 -133t-8 -114t-21.5 -112t-41.5 -92t-68 -90t-90.5 -69t-91.5 -42t-105 -21t-100.5 -8t-109.5 -1h-223zM305 143h72q78 0 118.5 2t96.5 10.5t96.5 29 t75.5 55.5q29 29 48 65t29 68t14.5 90t5.5 97t1 122t-1 122t-5.5 97t-14.5 90t-29 68t-48 65q-35 35 -75.5 55.5t-96.5 29t-96.5 10.5t-118.5 2h-72v-1078z" />
<glyph unicode="E" horiz-adv-x="1044" d="M154 0v1364h757v-143h-606v-447h483v-143h-483v-488h606v-143h-757z" />
<glyph unicode="F" horiz-adv-x="1013" d="M154 0v1364h737v-143h-586v-447h483v-143h-483v-631h-151z" />
<glyph unicode="G" horiz-adv-x="1187" d="M133 682q0 93 1 140t6 114.5t15.5 107.5t30.5 86t50 84q57 73 149 117.5t209 44.5q107 0 200.5 -37.5t157.5 -99.5l-92 -113q-103 107 -266 107q-156 0 -236 -103q-51 -64 -62 -152t-11 -296q0 -113 1 -160t7.5 -112t21.5 -102t41 -72q82 -105 238 -105q155 0 237 105 q43 56 56.5 132.5t15.5 219.5h-282v143h434q0 -113 -1 -167.5t-6 -127.5t-15.5 -114t-29.5 -86t-49 -84q-58 -76 -150 -120t-210 -44t-210.5 44t-150.5 120q-25 32 -42.5 65t-28 75.5t-17 75.5t-9 93.5t-3 99.5t-0.5 121z" />
<glyph unicode="H" horiz-adv-x="1208" d="M154 0v1364h151v-590h598v590h152v-1364h-152v631h-598v-631h-151z" />
<glyph unicode="I" horiz-adv-x="458" d="M154 0v1364h151v-1364h-151z" />
<glyph unicode="J" horiz-adv-x="913" d="M72 88l92 115q84 -72 207 -72q113 0 180 70q25 26 39 57t20 81t7 84t1 112v829h152v-829q0 -81 -1.5 -122t-9 -99t-25.5 -101t-48 -82q-112 -143 -315 -143q-170 0 -299 100z" />
<glyph unicode="K" horiz-adv-x="1157" d="M154 0v1364h151v-762l551 762h178l-475 -653l516 -711h-182l-438 604l-150 -211v-393h-151z" />
<glyph unicode="L" horiz-adv-x="983" d="M154 0v1364h151v-1221h565v-143h-716z" />
<glyph unicode="M" horiz-adv-x="1433" d="M154 0v1364h133l430 -846l428 846h135v-1364h-152v1028l-346 -690h-131l-346 686v-1024h-151z" />
<glyph unicode="N" horiz-adv-x="1208" d="M154 0v1364h133l616 -1063v1063h152v-1364h-133l-617 1063v-1063h-151z" />
<glyph unicode="O" horiz-adv-x="1196" d="M133 682q0 149 2.5 215t19 142.5t52.5 134.5q58 95 160.5 148.5t230.5 53.5t230.5 -53.5t160.5 -148.5q51 -83 62.5 -180.5t11.5 -311.5q0 -149 -2.5 -215t-19 -142.5t-52.5 -134.5q-58 -95 -160.5 -148.5t-230.5 -53.5t-230.5 53.5t-160.5 148.5q-51 83 -62.5 180.5 t-11.5 311.5zM285 682q0 -130 2 -188.5t14 -124t37 -107.5q37 -62 105.5 -96.5t154.5 -34.5t154.5 34.5t105.5 96.5q25 42 37 107.5t14 124t2 188.5t-2 188.5t-14 124t-37 107.5q-37 62 -105.5 96.5t-154.5 34.5t-154.5 -34.5t-105.5 -96.5q-25 -42 -37 -107.5t-14 -124 t-2 -188.5z" />
<glyph unicode="P" horiz-adv-x="1075" d="M154 0v1364h243q64 0 97.5 -1t89 -6.5t92 -17t80.5 -33.5t80 -55q70 -63 103.5 -150t33.5 -177t-33.5 -177.5t-103.5 -150.5q-36 -33 -80 -55t-80.5 -33.5t-92 -17t-89 -6.5t-97.5 -1h-92v-483h-151zM305 627h92q61 0 87 0.5t70.5 4t68.5 10.5t53.5 21t52.5 35 q92 82 92 226q0 143 -92 225q-29 26 -61.5 41.5t-80.5 21.5t-82.5 7.5t-107.5 1.5h-92v-594z" />
<glyph unicode="Q" horiz-adv-x="1196" d="M133 682q0 149 2.5 215t19 142.5t52.5 134.5q58 95 160.5 148.5t230.5 53.5t230.5 -53.5t160.5 -148.5q51 -83 62.5 -180.5t11.5 -311.5q0 -149 -2.5 -215t-19 -142.5t-52.5 -134.5q-43 -69 -115 -120l216 -144l-76 -121l-291 197q-55 -14 -125 -14q-128 0 -230.5 53.5 t-160.5 148.5q-51 83 -62.5 180.5t-11.5 311.5zM285 682q0 -130 2 -188.5t14 -124t37 -107.5q37 -62 105.5 -96.5t154.5 -34.5t154.5 34.5t105.5 96.5q25 42 37 107.5t14 124t2 188.5t-2 188.5t-14 124t-37 107.5q-37 62 -105.5 96.5t-154.5 34.5t-154.5 -34.5t-105.5 -96.5 q-25 -42 -37 -107.5t-14 -124t-2 -188.5z" />
<glyph unicode="R" horiz-adv-x="1105" d="M154 -2v1366h272q64 0 97 -1t88 -6.5t91 -17t78.5 -33.5t77.5 -55q125 -118 125 -307q0 -130 -61 -228.5t-160 -144.5l242 -571h-164l-222 530q-45 -6 -192 -6h-121v-526h-151zM305 668h121q75 0 108 1t80.5 7.5t78.5 21.5t59 41q79 73 79 205t-79 205q-28 26 -59.5 41.5 t-78 21.5t-81 7.5t-107.5 1.5h-121v-553z" />
<glyph unicode="S" horiz-adv-x="1044" d="M98 127l86 117q136 -113 322 -113q143 0 214 71.5t71 166.5q0 48 -24.5 97.5t-66.5 84.5q-20 17 -43 30.5t-62.5 27.5t-56 19.5t-71.5 22.5q-56 17 -81 25.5t-72.5 33t-86.5 56.5q-55 45 -91 115t-36 145q0 151 110 250.5t296 99.5q102 0 199 -30t169 -84l-77 -123 q-56 44 -132.5 69t-158.5 25q-127 0 -190.5 -60t-63.5 -143q0 -96 82 -162q52 -44 196 -86q67 -20 97.5 -30t85 -37.5t94.5 -61.5q58 -49 96.5 -124.5t38.5 -159.5q0 -71 -27.5 -138t-80 -122t-137.5 -88t-191 -33q-232 0 -408 139z" />
<glyph unicode="T" horiz-adv-x="1085" d="M82 1221v143h922v-143h-386v-1221h-151v1221h-385z" />
<glyph unicode="U" horiz-adv-x="1134" d="M143 571v793h152v-793q0 -80 1 -118t7.5 -90.5t21.5 -87t40 -62.5q73 -82 202 -82q130 0 203 82q25 28 40 62.5t21.5 87t7.5 90.5t1 118v793h151v-793q0 -90 -2 -135t-11 -110.5t-32 -114t-61 -92.5q-55 -63 -138.5 -97t-179.5 -34t-179 34t-138 97q-38 44 -61 92.5 t-32.5 113.5t-11.5 111.5t-2 134.5z" />
<glyph unicode="V" horiz-adv-x="1122" d="M51 1364h158l352 -1147l352 1147h158l-438 -1364h-144z" />
<glyph unicode="W" horiz-adv-x="1454" d="M61 1364h154l221 -1085l240 747h106l244 -747l217 1085h150l-289 -1364h-121l-256 788l-256 -788h-121z" />
<glyph unicode="X" horiz-adv-x="1105" d="M82 0l377 692l-367 672h170l291 -549l291 549h170l-367 -672l377 -692h-170l-301 569l-301 -569h-170z" />
<glyph unicode="Y" horiz-adv-x="1044" d="M41 1364h166l315 -686l316 686h166l-406 -852v-512h-152v512z" />
<glyph unicode="Z" horiz-adv-x="1085" d="M123 0v102l639 1119h-619v143h799v-102l-641 -1119h662v-143h-840z" />
<glyph unicode="[" horiz-adv-x="591" d="M174 -379v1976h315v-114h-192v-1747h192v-115h-315z" />
<glyph unicode="\" horiz-adv-x="700" d="M41 1516h127l491 -1811h-127z" />
<glyph unicode="]" horiz-adv-x="591" d="M102 -264h193v1747h-193v114h316v-1976h-316v115z" />
<glyph unicode="^" horiz-adv-x="753" d="M102 1118l195 246h160l194 -246h-135l-139 156l-139 -156h-136z" />
<glyph unicode="_" horiz-adv-x="901" d="M72 0h757v-119h-757v119z" />
<glyph unicode="`" horiz-adv-x="518" d="M102 1364h160l154 -246h-135z" />
<glyph unicode="a" horiz-adv-x="907" d="M72 289q0 77 33.5 138t87.5 99q44 32 103 49t94.5 19t92.5 2h168q0 44 -1.5 70t-13 66t-34.5 65q-53 59 -166 59q-130 0 -268 -53l-43 129q158 59 311 59q183 0 277 -108q38 -42 57.5 -102.5t22 -98.5t2.5 -100v-582h-144v117q-39 -61 -106.5 -95t-143.5 -34 q-124 0 -213 69q-51 40 -83.5 102t-32.5 130zM215 295q0 -78 61 -129q51 -43 136 -43q64 0 114.5 26.5t79.5 69.5q21 32 31.5 75t12 76t1.5 99h-168q-47 0 -72.5 -1.5t-62.5 -11.5t-65 -30q-68 -50 -68 -131z" />
<glyph unicode="b" horiz-adv-x="983" d="M133 0v1364h143v-498q41 59 106 92t140 33q88 0 159.5 -32.5t117.5 -88.5q33 -40 53 -84.5t28 -100t9.5 -92.5t1.5 -104t-1.5 -103.5t-9.5 -92t-28 -100t-53 -84.5q-46 -56 -117.5 -88.5t-159.5 -32.5q-75 0 -140 33t-106 92v-113h-143zM276 489q0 -72 2.5 -113t16.5 -94 t43 -87q62 -72 174 -72t174 72q29 34 43 87t16.5 94t2.5 113q0 54 -1.5 85t-6.5 75t-18.5 76.5t-35.5 58.5q-62 72 -174 72t-174 -72q-22 -26 -35.5 -58.5t-18.5 -76.5t-6.5 -75t-1.5 -85z" />
<glyph unicode="c" horiz-adv-x="856" d="M92 498q0 56 2 90t10 90t29 103.5t55 86.5q105 123 293 123q152 0 279 -78l-68 -118q-95 61 -211 61q-118 0 -182 -74q-29 -34 -44 -90t-17 -93.5t-2 -100.5q0 -73 2 -112t17 -97.5t46 -93.5q62 -72 180 -72q123 0 221 67l72 -116q-134 -86 -293 -86q-185 0 -291 121 q-35 39 -56.5 87t-29.5 107t-10 95.5t-2 99.5z" />
<glyph unicode="d" horiz-adv-x="983" d="M92 489q0 67 1.5 104t9.5 92.5t28 100t53 84.5q46 56 117.5 88.5t159.5 32.5q75 0 140 -33t106 -92v498h143v-1364h-143v113q-41 -59 -106 -92t-140 -33q-88 0 -159.5 32.5t-117.5 88.5q-33 40 -53 84.5t-28 100t-9.5 92t-1.5 103.5zM236 489q0 -55 1 -85t6.5 -74 t18.5 -76.5t35 -58.5q62 -72 174 -72t174 72q29 34 43 87t16.5 94t2.5 113q0 54 -1.5 85t-6.5 75t-18.5 76.5t-35.5 58.5q-62 72 -174 72t-174 -72q-22 -26 -35 -58.5t-18.5 -77t-6.5 -74t-1 -85.5z" />
<glyph unicode="e" horiz-adv-x="935" d="M92 489q0 53 0.5 81t5.5 76.5t14.5 81t28 71.5t45.5 71q47 56 121 88.5t164 32.5t164 -32.5t121 -88.5q59 -70 76.5 -156.5t17.5 -224.5v-40h-614q0 -180 61 -252q64 -74 195 -74q142 0 260 65l57 -122q-147 -78 -317 -78q-199 0 -306 123q-33 39 -54 84.5t-28.5 102 t-9.5 92.5t-2 99zM236 575h471q0 131 -56 203q-61 78 -180 78t-180 -78q-55 -70 -55 -203z" />
<glyph unicode="f" horiz-adv-x="720" d="M72 852v127h164v16q0 74 1.5 109t12.5 79.5t33 78.5q35 53 93.5 83.5t131.5 30.5q67 0 151 -26l-36 -129q-72 20 -115 20q-68 0 -100 -47q-20 -29 -24.5 -68t-4.5 -147h225v-127h-225v-852h-143v852h-164z" />
<glyph unicode="g" horiz-adv-x="983" d="M92 489q0 67 1.5 104t9.5 92.5t28 100t53 84.5q46 56 117.5 88.5t159.5 32.5q75 0 140 -33t106 -92v113h143v-887q0 -70 -1.5 -106t-10 -87.5t-28.5 -90.5t-54 -76q-109 -119 -305 -119q-163 0 -299 74l59 123q114 -62 240 -62q139 0 206 84q34 42 42 95.5t8 164.5v21 q-41 -59 -106 -92t-140 -33q-88 0 -159.5 32.5t-117.5 88.5q-33 40 -53 84.5t-28 100t-9.5 92t-1.5 103.5zM236 489q0 -55 1 -85t6.5 -74t18.5 -76.5t35 -58.5q62 -72 174 -72t174 72q29 34 43 87t16.5 94t2.5 113q0 54 -1.5 85t-6.5 75t-18.5 76.5t-35.5 58.5 q-62 72 -174 72t-174 -72q-22 -26 -35 -58.5t-18.5 -77t-6.5 -74t-1 -85.5z" />
<glyph unicode="h" horiz-adv-x="962" d="M133 0v1364h143v-487q36 52 95.5 83t130.5 31q84 0 148.5 -30t105.5 -74q34 -36 54 -76t28.5 -92.5t10 -88.5t1.5 -106v-524h-143v524q0 79 -2.5 118t-16 83t-41.5 72q-59 59 -155 59q-97 0 -156 -59q-40 -40 -50 -98.5t-10 -174.5v-524h-143z" />
<glyph unicode="i" horiz-adv-x="409" d="M109 1233q0 42 27 69t69 27t69 -27t27 -69t-27 -69t-69 -27t-69 27t-27 69zM133 0v979h143v-979h-143z" />
<glyph unicode="j" horiz-adv-x="409" d="M-111 -356l52 125q47 -21 88 -21q57 0 84 39q14 20 17 53t3 131v1008h143v-1028q0 -70 -2 -102.5t-14 -74t-37 -73.5q-71 -88 -194 -88q-69 0 -140 31zM109 1233q0 42 27 69t69 27t69 -27t27 -69t-27 -69t-69 -27t-69 27t-27 69z" />
<glyph unicode="k" horiz-adv-x="929" d="M133 0v1364h143v-895l383 510h168l-342 -444l373 -535h-166l-301 436l-115 -153v-283h-143z" />
<glyph unicode="l" horiz-adv-x="409" d="M133 0v1364h143v-1364h-143z" />
<glyph unicode="m" horiz-adv-x="1454" d="M133 0v979h143v-94q76 106 205 106q187 0 269 -164q36 72 108.5 118t155.5 46q132 0 227 -88q36 -34 57.5 -75t30 -97t10.5 -94t2 -113v-524h-143v524q0 81 -1.5 117t-10 75t-27.5 66q-51 74 -155 74q-105 0 -156 -74q-27 -39 -33 -90t-6 -168v-524h-143v524 q0 81 -1.5 117t-10 75t-27.5 66q-51 74 -156 74t-156 -74q-27 -39 -33 -90t-6 -168v-524h-143z" />
<glyph unicode="n" horiz-adv-x="962" d="M133 0v979h143v-102q36 52 95.5 83t130.5 31q84 0 148.5 -30t105.5 -74q34 -36 54 -76t28.5 -92.5t10 -88.5t1.5 -106v-524h-143v524q0 79 -2.5 118t-16 83t-41.5 72q-59 59 -155 59q-97 0 -156 -59q-40 -40 -50 -98.5t-10 -174.5v-524h-143z" />
<glyph unicode="o" horiz-adv-x="962" d="M92 489q0 76 2 119t16 103t42 106q50 82 135.5 128t193.5 46t194 -46t136 -128q28 -46 41.5 -106.5t15.5 -102t2 -119.5q0 -77 -2 -118.5t-15.5 -102t-41.5 -106.5q-50 -82 -136 -128t-194 -46t-193.5 46t-135.5 128q-28 46 -42 106t-16 102.5t-2 118.5zM236 489 q0 -68 1.5 -104t12 -84t31.5 -80q66 -98 200 -98q135 0 201 98q21 32 31.5 80t12 84t1.5 104q0 69 -1.5 104.5t-12 84t-31.5 80.5q-66 98 -201 98q-134 0 -200 -98q-21 -32 -31.5 -80.5t-12 -84t-1.5 -104.5z" />
<glyph unicode="p" horiz-adv-x="983" d="M133 -375v1354h143v-113q41 59 106 92t140 33q88 0 159.5 -32.5t117.5 -88.5q33 -40 53 -84.5t28 -100t9.5 -92.5t1.5 -104t-1.5 -103.5t-9.5 -92t-28 -100t-53 -84.5q-46 -56 -117.5 -88.5t-159.5 -32.5q-75 0 -140 33t-106 92v-488h-143zM276 489q0 -72 2.5 -113 t16.5 -94t43 -87q62 -72 174 -72t174 72q29 34 43 87t16.5 94t2.5 113q0 54 -1.5 85t-6.5 75t-18.5 76.5t-35.5 58.5q-62 72 -174 72t-174 -72q-22 -26 -35.5 -58.5t-18.5 -76.5t-6.5 -75t-1.5 -85z" />
<glyph unicode="q" horiz-adv-x="983" d="M92 489q0 67 1.5 104t9.5 92.5t28 100t53 84.5q46 56 117.5 88.5t159.5 32.5q75 0 140 -33t106 -92v113h143v-1354h-143v488q-41 -59 -106 -92t-140 -33q-88 0 -159.5 32.5t-117.5 88.5q-33 40 -53 84.5t-28 100t-9.5 92t-1.5 103.5zM236 489q0 -55 1 -85t6.5 -74 t18.5 -76.5t35 -58.5q62 -72 174 -72t174 72q29 34 43 87t16.5 94t2.5 113q0 54 -1.5 85t-6.5 75t-18.5 76.5t-35.5 58.5q-62 72 -174 72t-174 -72q-22 -26 -35 -58.5t-18.5 -77t-6.5 -74t-1 -85.5z" />
<glyph unicode="r" horiz-adv-x="712" d="M133 0v979h143v-113q41 59 106 92t140 33q64 0 125 -20l-37 -131q-43 16 -98 16q-112 0 -174 -72q-22 -26 -35.5 -58.5t-18.5 -76.5t-6.5 -75t-1.5 -85v-489h-143z" />
<glyph unicode="s" horiz-adv-x="835" d="M78 59l57 123q127 -59 273 -59q97 0 149 39q53 39 53 104q0 68 -57 111q-47 35 -162 59q-134 28 -201 80q-49 37 -78.5 91.5t-29.5 117.5q0 66 31.5 119.5t79.5 87.5q85 59 215 59q156 0 299 -67l-54 -125q-120 57 -245 57q-72 0 -123 -29q-60 -34 -60 -102 q0 -60 51 -100q28 -23 61.5 -34.5t96.5 -25.5q133 -29 199 -76q53 -38 87 -95t34 -128q0 -66 -30.5 -121.5t-80.5 -91.5q-91 -65 -235 -65q-179 0 -330 71z" />
<glyph unicode="t" horiz-adv-x="727" d="M72 852v127h164v231h143v-231h225v-127h-225v-504q0 -105 3 -135.5t19 -52.5q26 -37 82 -37t123 39l60 -123q-93 -51 -183 -51q-126 0 -196 90q-24 31 -35.5 72.5t-13.5 74.5t-2 103v524h-164z" />
<glyph unicode="u" horiz-adv-x="942" d="M113 455v524h143v-524q0 -80 2 -118t15.5 -82.5t41.5 -72.5q59 -59 156 -59t156 59q28 28 41.5 72.5t15.5 82.5t2 118v524h143v-524q0 -70 -2 -106t-10 -88.5t-29 -92.5t-55 -76q-100 -104 -262 -104t-262 104q-34 36 -55 76t-29 92.5t-10 88.5t-2 106z" />
<glyph unicode="v" horiz-adv-x="880" d="M31 979h151l260 -793l258 793h150l-340 -979h-139z" />
<glyph unicode="w" horiz-adv-x="1331" d="M41 979h147l181 -752l241 752h113l244 -752l178 752h145l-250 -979h-131l-243 760l-244 -760h-131z" />
<glyph unicode="x" horiz-adv-x="925" d="M82 0l301 494l-295 485h162l213 -373l217 373h158l-295 -485l301 -494h-162l-219 383l-223 -383h-158z" />
<glyph unicode="y" horiz-adv-x="884" d="M31 979h151l264 -811l254 811h148l-453 -1354h-149l127 369z" />
<glyph unicode="z" horiz-adv-x="901" d="M123 0v102l479 742h-479v135h655v-102l-479 -742h479v-135h-655z" />
<glyph unicode="{" horiz-adv-x="688" d="M123 555v111q86 29 131 114q43 81 43 201q0 38 -4 113t-4 112q0 158 63 267q66 113 193 157l41 -106q-81 -28 -127 -109q-47 -84 -47 -209q0 -37 4 -112t4 -113q0 -130 -41 -223q-41 -90 -113 -148q73 -59 113 -147q41 -93 41 -223q0 -38 -4 -114t-4 -114q0 -125 47 -209 q45 -80 127 -108l-41 -107q-62 21 -112 62.5t-81 95.5q-63 109 -63 266q0 38 4 114t4 114q0 119 -43 200q-46 86 -131 115z" />
<glyph unicode="|" horiz-adv-x="471" d="M174 -297v1813h123v-1813h-123z" />
<glyph unicode="}" horiz-adv-x="688" d="M102 -305q82 28 127 108q47 84 47 209q0 38 -4 114t-4 114q0 130 41 223q40 88 113 147q-72 58 -113 148q-41 93 -41 223q0 38 4 113t4 112q0 125 -47 209q-46 81 -127 109l41 106q127 -44 193 -157q63 -109 63 -267q0 -37 -4 -112t-4 -113q0 -120 43 -201 q45 -85 131 -114v-111q-85 -29 -131 -115q-43 -81 -43 -200q0 -38 4 -114t4 -114q0 -157 -63 -266q-31 -54 -81 -95.5t-112 -62.5z" />
<glyph unicode="~" d="M111 457q18 78 83 130t152 52q17 0 35 -2.5t32 -5t32 -9t28 -10t27 -12t23 -12t22.5 -13t19.5 -10.5q97 -57 154 -57q42 0 73 24.5t39 59.5l123 -25q-18 -78 -83 -130t-152 -52q-17 0 -35 2.5t-32 5t-32 9t-28 10t-27 12t-23 12t-22.5 13t-19.5 10.5q-97 57 -154 57 q-42 0 -73.5 -24.5t-39.5 -59.5z" />
<glyph unicode="&#xa1;" horiz-adv-x="532" d="M162 897q0 46 29 75t75 29t75.5 -29t29.5 -75t-29.5 -75t-75.5 -29t-75 29t-29 75zM190 23q0 164 5 319t11 228l5 73h111q20 -252 20 -620v-398h-152v398z" />
<glyph unicode="&#xa2;" horiz-adv-x="921" d="M113 414v149q0 44 2 71t10 72.5t29.5 86t56.5 77.5q97 104 260 117v166h102v-166q127 -9 244 -69l-59 -123q-84 44 -185 57v-727q107 13 189 59l67 -118q-119 -64 -256 -76v-166h-102v166q-164 13 -260 116q-35 37 -56.5 78.5t-29.5 87.5t-10 73t-2 69zM256 414 q0 -43 2 -71t16.5 -72.5t42.5 -73.5q56 -59 154 -72v727q-99 -8 -162 -82q-25 -31 -37 -70.5t-14 -65t-2 -71.5v-149z" />
<glyph unicode="&#xa3;" horiz-adv-x="1122" d="M123 0v102q73 106 98 212t25 284h-123v125h123v168q0 67 1.5 101t8.5 84t25 88.5t47 74.5q53 65 135.5 101t181.5 36q163 0 275 -86l-82 -119q-77 62 -193 62q-126 0 -192 -76q-38 -43 -47 -98t-9 -168v-168h459v-125h-459q0 -154 -15.5 -254.5t-62.5 -200.5h680v-143 h-876z" />
<glyph unicode="&#xa4;" horiz-adv-x="1282" d="M123 178l129 129q-86 122 -86 285t86 285l-129 129l104 104l129 -133q132 86 285 86t285 -86l129 133l104 -104l-129 -129q86 -122 86 -285t-86 -285l129 -129l-104 -104l-129 129q-125 -82 -285 -82t-285 82l-129 -129zM317 592q0 -155 86.5 -241.5t237.5 -86.5 t237.5 86.5t86.5 241.5t-86.5 241.5t-237.5 86.5t-237.5 -86.5t-86.5 -241.5z" />
<glyph unicode="&#xa5;" horiz-adv-x="1169" d="M102 1364h162l320 -655l325 655h158l-254 -496h160v-114h-221l-72 -142h272v-114h-293v-498h-151v498h-293v114h272l-71 142h-221v114h159z" />
<glyph unicode="&#xa6;" horiz-adv-x="475" d="M174 0v541h127v-541h-127zM174 827v537h127v-537h-127z" />
<glyph unicode="&#xa7;" horiz-adv-x="958" d="M129 74l70 119q140 -70 270 -70q97 0 155 38.5t58 112.5q0 34 -11.5 59.5t-29 42t-49.5 30.5t-61 22t-76 18q-37 8 -64 15t-69 21.5t-71.5 34.5t-58.5 48.5t-44 69t-15 90.5q0 125 98 195q-98 70 -98 194q0 71 32 124.5t84 82.5t107.5 43t112.5 14q158 0 315 -69 l-61 -123q-126 57 -254 57q-89 0 -141 -33t-52 -96q0 -27 10 -48t26 -35.5t44.5 -26.5t56.5 -20t70 -17q50 -10 85 -19.5t88 -33t86 -53t58 -81t25 -116.5q0 -118 -82 -193q82 -79 82 -197q0 -60 -22 -109.5t-58 -81.5t-83.5 -54t-95.5 -31.5t-97 -9.5q-165 0 -340 86z M276 725q0 -27 10 -48t26 -35.5t44.5 -26.5t56.5 -20t70 -17q84 -14 160 -46q39 48 39 132q0 34 -11.5 59.5t-29 42t-49.5 30.5t-61 22t-76 18q-65 11 -121 32q-58 -49 -58 -143z" />
<glyph unicode="&#xa8;" horiz-adv-x="765" d="M102 1223q0 43 27 69.5t70 26.5t69.5 -26.5t26.5 -69.5t-26.5 -70t-69.5 -27t-70 27t-27 70zM471 1223q0 43 26.5 69.5t69.5 26.5t70 -26.5t27 -69.5t-27 -70t-70 -27t-69.5 27t-26.5 70z" />
<glyph unicode="&#xa9;" horiz-adv-x="1679" d="M154 197v594q0 69 0.5 101.5t6 89.5t17 92t33.5 78t55 79q36 39 82.5 66t85.5 40t99.5 20t96.5 8t103 1h213q67 0 103 -1t96.5 -8t99.5 -20t85.5 -40t82.5 -66q41 -44 65 -93t34 -113t12 -107t2 -127v-594q0 -67 -1 -101t-6.5 -90.5t-17 -92t-33.5 -78.5t-55 -79 q-36 -39 -82.5 -66t-85.5 -40t-99.5 -20t-96.5 -8t-103 -1h-213q-67 0 -103 1t-96.5 8t-99.5 20t-85.5 40t-82.5 66q-33 36 -55 79t-33.5 78.5t-17 92.5t-6 89.5t-0.5 101.5zM289 197q0 -76 1 -111t7.5 -87t22 -87t42.5 -66q24 -29 57 -48t62 -29t78 -15t80 -5.5t94 -0.5 h213q63 0 94 0.5t80 5.5t78 15t62 29t57 48q27 31 42.5 66.5t22 86.5t8 87.5t1.5 110.5v594q0 74 -1.5 110.5t-8 87t-22 86t-42.5 66.5q-24 29 -57 48t-62 29t-78 15t-80 5.5t-94 0.5h-213q-63 0 -94 -0.5t-80 -5.5t-78 -15t-62 -29t-57 -48q-27 -31 -42.5 -66t-22 -87 t-7.5 -86.5t-1 -110.5v-594zM516 401v174q0 61 1.5 92t8.5 76.5t24.5 79.5t47.5 66q93 100 256 100q149 0 256 -82l-80 -112q-71 59 -176 59q-97 0 -149 -55q-31 -34 -38.5 -78.5t-7.5 -145.5v-174q0 -103 6.5 -145t36.5 -76q48 -57 152 -57q116 0 188 65l88 -104 q-107 -96 -276 -96q-161 0 -256 98q-24 25 -40 54.5t-24.5 54t-12.5 64.5t-4.5 65t-0.5 77z" />
<glyph unicode="&#xaa;" horiz-adv-x="948" d="M82 825q0 68 31.5 128t87.5 102q46 35 110.5 52t108 19t129.5 2h133q0 115 -45 177q-63 84 -191 84q-108 0 -264 -64l-51 125q173 74 315 74q202 0 308 -142q34 -45 50.5 -108t18.5 -109t2 -141v-492h-143v105q-45 -55 -113.5 -86t-142.5 -31q-128 0 -221 68 q-55 40 -89 102.5t-34 134.5zM225 825q0 -78 68 -129q55 -41 143 -41q67 0 120 25t83 68q20 29 30 70t11.5 75.5t1.5 107.5h-133q-76 0 -111.5 -1.5t-77.5 -12.5t-71 -33q-64 -49 -64 -129z" />
<glyph unicode="&#xab;" horiz-adv-x="991" d="M102 512l320 408l98 -74l-264 -334l264 -334l-98 -74zM471 512l320 408l98 -74l-264 -334l264 -334l-98 -74z" />
<glyph unicode="&#xac;" d="M164 453v118l737 2v-430h-123v310h-614z" />
<glyph unicode="&#xad;" horiz-adv-x="757" d="M164 453v118h430v-118h-430z" />
<glyph unicode="&#xae;" horiz-adv-x="1679" d="M154 201v587q0 69 0.5 101.5t6 89.5t17 92.5t33.5 78.5t55 79q36 39 82.5 66t85.5 40t99.5 20t96.5 8t103 1h213q67 0 103 -1t96.5 -8t99.5 -20t85.5 -40t82.5 -66q33 -36 55 -79t33.5 -78.5t17 -92t6.5 -90.5t1 -101v-587q0 -67 -1 -101t-6.5 -90.5t-17 -92t-33.5 -78.5 t-55 -79q-36 -39 -82.5 -66t-85.5 -40t-99.5 -20t-96.5 -8t-103 -1h-213q-67 0 -103 1t-96.5 8t-99.5 20t-85.5 40t-82.5 66q-33 36 -55 79t-33.5 78.5t-17 92.5t-6 89.5t-0.5 101.5zM289 201q0 -76 1 -111t7.5 -87t22 -87t42.5 -66q24 -29 57 -48t62 -29t78 -15t80 -5.5 t94 -0.5h213q63 0 94 0.5t80 5.5t78 15t62 29t57 48q27 31 42.5 66.5t22 86.5t8 87.5t1.5 110.5v587q0 74 -1.5 110.5t-8 87.5t-22 86.5t-42.5 66.5q-24 29 -57 48t-62 29t-78 15t-80 5.5t-94 0.5h-213q-63 0 -94 -0.5t-80 -5.5t-78 -15t-62 -29t-57 -48q-27 -31 -42.5 -66 t-22 -87t-7.5 -87t-1 -111v-587zM537 0v979h268q44 0 73 -2.5t80 -20.5t91 -53q46 -40 73 -102.5t27 -132.5q0 -93 -41 -163.5t-109 -109.5l170 -395h-153l-154 356q-20 -2 -57 -2h-125v-354h-143zM680 489h125q31 0 49 1.5t46.5 10.5t49.5 27q56 49 56 140q0 88 -56 137 q-21 18 -49.5 27t-46.5 10.5t-49 1.5h-125v-355z" />
<glyph unicode="&#xaf;" horiz-adv-x="757" d="M102 1139v114h553v-114h-553z" />
<glyph unicode="&#xb0;" horiz-adv-x="663" d="M102 1149q0 103 63.5 166t166.5 63t166 -63t63 -166t-63 -166t-166 -63t-166.5 63t-63.5 166zM213 1149q0 -54 33 -86.5t86 -32.5q54 0 86.5 32.5t32.5 86.5t-32.5 86.5t-86.5 32.5q-53 0 -86 -32.5t-33 -86.5z" />
<glyph unicode="&#xb1;" d="M164 195v118h737v-118h-737zM164 602v119h307v186h123v-186h307v-119h-307v-186h-123v186h-307z" />
<glyph unicode="&#xb2;" horiz-adv-x="772" d="M102 532v113l330 430q54 70 69 99t15 71q0 71 -47 111q-39 33 -113 33q-87 0 -147 -48l-84 109q100 74 231 74q120 0 203 -64q100 -80 100 -213q0 -65 -22 -114t-86 -134l-256 -331h375v-136h-568z" />
<glyph unicode="&#xb3;" horiz-adv-x="745" d="M82 604l88 105q61 -54 162 -54q81 0 127 37q51 44 51 117q0 76 -53 123q-26 23 -62 30t-119 7h-18v135h18q77 0 110 6.5t58 26.5q50 43 50 112q0 67 -50 107q-45 33 -112 33q-90 0 -150 -48l-84 109q102 74 234 74q125 0 207 -66q98 -80 98 -209q0 -128 -105 -209 q60 -42 90.5 -102.5t30.5 -128.5q0 -69 -28 -125t-74 -92q-86 -72 -219 -72q-149 0 -250 84z" />
<glyph unicode="&#xb4;" horiz-adv-x="688" d="M102 934l316 430h168l-338 -430h-146z" />
<glyph unicode="&#xb5;" horiz-adv-x="993" d="M133 -375v1354h143v-504q0 -121 9.5 -179t48.5 -103q61 -70 168 -70t168 70q27 32 40 76t15 82.5t2 123.5v504h143v-504q0 -73 -1.5 -109.5t-9 -88.5t-26 -91t-49.5 -77q-48 -59 -120 -90t-152 -31q-67 0 -130 28t-106 82v-473h-143z" />
<glyph unicode="&#xb6;" horiz-adv-x="1075" d="M123 924q0 90 33.5 177t103.5 150q36 33 79.5 55t80 33.5t92 17t89 6.5t97.5 1h224v-1364h-152v1221l-213 -4v-1217h-151v512q-82 26 -146 84q-70 63 -103.5 150.5t-33.5 177.5z" />
<glyph unicode="&#xb7;" horiz-adv-x="536" d="M164 512q0 46 29 75t75 29t75.5 -29t29.5 -75t-29.5 -75t-75.5 -29t-75 29t-29 75z" />
<glyph unicode="&#xb8;" horiz-adv-x="550" d="M102 -365l33 103q46 -19 84 -19q43 0 74 15q41 23 41 61q0 36 -33 53q-18 9 -51 9h-76l45 143h90l-22 -76q29 0 41.5 -0.5t33.5 -6.5t39 -19q48 -36 48 -101q0 -75 -64 -131q-63 -53 -166 -53q-63 0 -117 22z" />
<glyph unicode="&#xb9;" horiz-adv-x="657" d="M143 1403l213 108h117v-979h-143v811l-125 -63z" />
<glyph unicode="&#xba;" horiz-adv-x="1003" d="M113 1022q0 82 2 124.5t18.5 109t50.5 114.5q52 76 136.5 115t181.5 39t181 -39t136 -115q34 -48 50.5 -114t19 -110t2.5 -124t-2.5 -124t-19 -110t-50.5 -114q-52 -76 -136 -115t-181 -39t-181.5 39t-136.5 115q-34 48 -50.5 114.5t-18.5 109t-2 124.5zM256 1022 q0 -72 1.5 -109t13.5 -86.5t36 -83.5q63 -88 195 -88q131 0 194 88q24 34 36 83t14 87t2 109q0 70 -2 108.5t-14 87t-36 82.5q-64 89 -194 89q-62 0 -113 -23t-82 -66q-24 -34 -36 -83t-13.5 -86t-1.5 -109z" />
<glyph unicode="&#xbb;" horiz-adv-x="991" d="M102 178l265 334l-265 334l99 74l319 -408l-319 -408zM471 178l264 334l-264 334l98 74l320 -408l-320 -408z" />
<glyph unicode="&#xbc;" horiz-adv-x="1699" d="M143 1255l213 109h117v-979h-143v811l-125 -63zM410 0l737 1366h131l-737 -1366h-131zM956 225v109l316 645h149l-303 -619h262v232h144v-232h84v-135h-84v-225h-144v225h-424z" />
<glyph unicode="&#xbd;" horiz-adv-x="1830" d="M143 1255l213 109h117v-979h-143v811l-125 -63zM410 0l737 1366h131l-737 -1366h-131zM1161 0v113l330 430q54 70 69 99t15 71q0 70 -47 110q-39 33 -113 33q-88 0 -147 -47l-84 109q98 73 231 73q122 0 203 -63q100 -80 100 -213q0 -65 -22 -114t-86 -134l-256 -332h375 v-135h-568z" />
<glyph unicode="&#xbe;" horiz-adv-x="1802" d="M82 457l88 104q59 -53 162 -53q81 0 127 37q51 44 51 117q0 75 -53 122q-26 23 -62 30t-119 7h-18v135h18q77 0 110 6.5t58 26.5q50 43 50 113q0 66 -50 106q-45 33 -112 33q-91 0 -150 -47l-84 109q100 73 234 73q126 0 207 -65q98 -80 98 -209q0 -128 -105 -209 q60 -42 90.5 -102.5t30.5 -128.5q0 -69 -28.5 -125.5t-73.5 -92.5q-84 -71 -219 -71q-149 0 -250 84zM512 0l737 1366h131l-737 -1366h-131zM1059 225v109l315 645h150l-303 -619h262v232h143v-232h84v-135h-84v-225h-143v225h-424z" />
<glyph unicode="&#xbf;" horiz-adv-x="663" d="M0 -14q0 74 24 134t59 97t87 72q38 26 54 37.5t42.5 36t38 47t21.5 58t12 79.5l4 96h111q4 -76 4 -113q0 -86 -23.5 -151.5t-57.5 -103.5t-83 -68q-71 -44 -106 -95t-35 -126q0 -99 66 -164.5t179 -65.5q136 0 244 84l84 -116q-141 -111 -328 -111q-180 0 -288.5 107.5 t-108.5 265.5zM293 897q0 46 29 75t75 29t75.5 -29t29.5 -75t-29.5 -75t-75.5 -29t-75 29t-29 75z" />
<glyph unicode="&#xc0;" horiz-adv-x="1114" d="M31 0l465 1364h122l465 -1364h-159l-109 338h-516l-109 -338h-159zM338 1749h160l153 -246h-135zM344 481h426l-213 670z" />
<glyph unicode="&#xc1;" horiz-adv-x="1114" d="M31 0l465 1364h122l465 -1364h-159l-109 338h-516l-109 -338h-159zM344 481h426l-213 670zM463 1503l153 246h160l-178 -246h-135z" />
<glyph unicode="&#xc2;" horiz-adv-x="1114" d="M31 0l465 1364h122l465 -1364h-159l-109 338h-516l-109 -338h-159zM283 1503l194 246h160l194 -246h-135l-139 156l-139 -156h-135zM344 481h426l-213 670z" />
<glyph unicode="&#xc3;" horiz-adv-x="1114" d="M31 0l465 1364h122l465 -1364h-159l-109 338h-516l-109 -338h-159zM254 1524q0 73 52.5 122.5t127.5 49.5q62 0 150 -45q6 -3 22 -10.5t24.5 -11.5t22.5 -7.5t27 -3.5q28 0 46.5 18t18.5 47h115q0 -73 -52.5 -122.5t-127.5 -49.5q-62 0 -150 45q-6 3 -22 10.5t-24.5 11.5 t-22.5 7.5t-27 3.5q-28 0 -46.5 -18t-18.5 -47h-115zM344 481h426l-213 670z" />
<glyph unicode="&#xc4;" horiz-adv-x="1114" d="M31 0l465 1364h122l465 -1364h-159l-109 338h-516l-109 -338h-159zM276 1610q0 43 27 69.5t70 26.5t69.5 -26.5t26.5 -69.5t-26.5 -70t-69.5 -27t-70 27t-27 70zM344 481h426l-213 670zM645 1610q0 43 26.5 69.5t69.5 26.5t70 -26.5t27 -69.5t-27 -70t-70 -27t-69.5 27 t-26.5 70z" />
<glyph unicode="&#xc5;" horiz-adv-x="1114" d="M31 0l465 1364h122l465 -1364h-159l-109 338h-516l-109 -338h-159zM344 481h426l-213 670zM379 1626q0 81 49.5 129.5t128.5 48.5q80 0 129 -48.5t49 -129.5q0 -80 -49.5 -129t-128.5 -49q-78 0 -128 49.5t-50 128.5zM467 1626q0 -42 24.5 -68t65.5 -26t66.5 26.5 t25.5 67.5q0 42 -25.5 69t-66.5 27t-65.5 -27t-24.5 -69z" />
<glyph unicode="&#xc6;" horiz-adv-x="1622" d="M72 0l725 1364h671v-143h-458v-449h411v-141h-411v-490h479v-141h-625v338h-452l-179 -338h-161zM485 481h379v721z" />
<glyph unicode="&#xc7;" horiz-adv-x="1099" d="M133 571v222q0 70 1 107.5t8.5 98.5t22 101t43.5 86.5t71 83.5q121 106 315 106q98 0 193 -30t169 -89l-90 -114q-113 90 -272 90q-132 0 -209 -66q-29 -25 -48.5 -57.5t-30 -61.5t-15.5 -78t-5.5 -80.5t-0.5 -96.5v-222q0 -82 1.5 -121t10.5 -93t30 -90.5t56 -67.5 q77 -68 211 -68q86 0 161.5 28t127.5 74l94 -112q-143 -119 -342 -131l-19 -66q29 0 42 -0.5t34 -6.5t39 -19q47 -35 47 -101q0 -76 -63 -131q-63 -53 -166 -53q-63 0 -117 22l33 103q46 -19 84 -19q43 0 74 15q41 23 41 61q0 36 -33 53q-18 9 -51 9h-76l41 133 q-160 13 -264 102q-43 37 -72 83.5t-44 86.5t-22.5 101t-8.5 99t-1 109z" />
<glyph unicode="&#xc8;" horiz-adv-x="1044" d="M154 0v1364h757v-143h-606v-447h483v-143h-483v-488h606v-143h-757zM276 1745h160l154 -246h-135z" />
<glyph unicode="&#xc9;" horiz-adv-x="1044" d="M154 0v1364h757v-143h-606v-447h483v-143h-483v-488h606v-143h-757z" />
<glyph unicode="&#xca;" horiz-adv-x="1044" d="M154 0v1364h757v-143h-606v-447h483v-143h-483v-488h606v-143h-757zM248 1499l194 246h160l195 -246h-135l-140 156l-139 -156h-135z" />
<glyph unicode="&#xcb;" horiz-adv-x="1044" d="M154 0v1364h757v-143h-606v-447h483v-143h-483v-488h606v-143h-757zM242 1595q0 43 26.5 70t69.5 27t69.5 -27t26.5 -70t-26.5 -69.5t-69.5 -26.5t-69.5 26.5t-26.5 69.5zM610 1595q0 43 27 70t70 27t69.5 -27t26.5 -70t-26.5 -69.5t-69.5 -26.5t-70 26.5t-27 69.5z" />
<glyph unicode="&#xcc;" horiz-adv-x="458" d="M10 1749h160l154 -246h-136zM154 0v1364h151v-1364h-151z" />
<glyph unicode="&#xcd;" horiz-adv-x="458" d="M135 1503l154 246h160l-179 -246h-135zM154 0v1364h151v-1364h-151z" />
<glyph unicode="&#xce;" horiz-adv-x="458" d="M-45 1503l195 246h159l195 -246h-135l-140 156l-139 -156h-135zM154 0v1364h151v-1364h-151z" />
<glyph unicode="&#xcf;" horiz-adv-x="458" d="M-51 1610q0 43 26.5 69.5t69.5 26.5t69.5 -26.5t26.5 -69.5t-26.5 -70t-69.5 -27t-69.5 27t-26.5 70zM154 0v1364h151v-1364h-151zM317 1610q0 43 27 69.5t70 26.5t69.5 -26.5t26.5 -69.5t-26.5 -70t-69.5 -27t-70 27t-27 70z" />
<glyph unicode="&#xd0;" horiz-adv-x="1253" d="M113 631v143h147v590h223q72 0 109.5 -1t101 -8t105 -21t91.5 -42t91 -69q34 -34 58.5 -70.5t39.5 -82.5t23.5 -82t12.5 -96.5t4.5 -97.5t0.5 -112t-0.5 -112t-4.5 -97.5t-12.5 -96.5t-23.5 -82t-39.5 -82.5t-58.5 -70.5q-41 -41 -91 -69t-91.5 -42t-105 -21t-101 -8 t-109.5 -1h-223v631h-147zM412 143h71q78 0 118.5 2t96.5 10.5t96.5 29t75.5 55.5q67 67 83 158t16 284t-16 284t-83 158q-35 35 -75.5 55.5t-96.5 29t-96.5 10.5t-118.5 2h-71v-447h241v-143h-241v-488z" />
<glyph unicode="&#xd1;" horiz-adv-x="1208" d="M154 0v1364h133l616 -1063v1063h152v-1364h-133l-617 1063v-1063h-151zM301 1524q0 73 52.5 122.5t127.5 49.5q62 0 150 -45q6 -3 22 -10.5t24.5 -11.5t22.5 -7.5t27 -3.5q28 0 47 18t19 47h114q0 -73 -52.5 -122.5t-127.5 -49.5q-61 0 -149 45q-6 3 -22.5 11t-25 11.5 t-22.5 7t-27 3.5q-28 0 -46.5 -18t-18.5 -47h-115z" />
<glyph unicode="&#xd2;" horiz-adv-x="1196" d="M133 682q0 149 2.5 215t19 142.5t52.5 134.5q58 95 160.5 148.5t230.5 53.5t230.5 -53.5t160.5 -148.5q51 -83 62.5 -180.5t11.5 -311.5q0 -149 -2.5 -215t-19 -142.5t-52.5 -134.5q-58 -95 -160.5 -148.5t-230.5 -53.5t-230.5 53.5t-160.5 148.5q-51 83 -62.5 180.5 t-11.5 311.5zM285 682q0 -130 2 -188.5t14 -124t37 -107.5q37 -62 105.5 -96.5t154.5 -34.5t154.5 34.5t105.5 96.5q25 42 37 107.5t14 124t2 188.5t-2 188.5t-14 124t-37 107.5q-37 62 -105.5 96.5t-154.5 34.5t-154.5 -34.5t-105.5 -96.5q-25 -42 -37 -107.5t-14 -124 t-2 -188.5zM395 1749h160l154 -246h-136z" />
<glyph unicode="&#xd3;" horiz-adv-x="1196" d="M133 682q0 149 2.5 215t19 142.5t52.5 134.5q58 95 160.5 148.5t230.5 53.5t230.5 -53.5t160.5 -148.5q51 -83 62.5 -180.5t11.5 -311.5q0 -149 -2.5 -215t-19 -142.5t-52.5 -134.5q-58 -95 -160.5 -148.5t-230.5 -53.5t-230.5 53.5t-160.5 148.5q-51 83 -62.5 180.5 t-11.5 311.5zM285 682q0 -130 2 -188.5t14 -124t37 -107.5q37 -62 105.5 -96.5t154.5 -34.5t154.5 34.5t105.5 96.5q25 42 37 107.5t14 124t2 188.5t-2 188.5t-14 124t-37 107.5q-37 62 -105.5 96.5t-154.5 34.5t-154.5 -34.5t-105.5 -96.5q-25 -42 -37 -107.5t-14 -124 t-2 -188.5zM520 1503l154 246h160l-179 -246h-135z" />
<glyph unicode="&#xd4;" horiz-adv-x="1196" d="M133 682q0 149 2.5 215t19 142.5t52.5 134.5q58 95 160.5 148.5t230.5 53.5t230.5 -53.5t160.5 -148.5q51 -83 62.5 -180.5t11.5 -311.5q0 -149 -2.5 -215t-19 -142.5t-52.5 -134.5q-58 -95 -160.5 -148.5t-230.5 -53.5t-230.5 53.5t-160.5 148.5q-51 83 -62.5 180.5 t-11.5 311.5zM285 682q0 -130 2 -188.5t14 -124t37 -107.5q37 -62 105.5 -96.5t154.5 -34.5t154.5 34.5t105.5 96.5q25 42 37 107.5t14 124t2 188.5t-2 188.5t-14 124t-37 107.5q-37 62 -105.5 96.5t-154.5 34.5t-154.5 -34.5t-105.5 -96.5q-25 -42 -37 -107.5t-14 -124 t-2 -188.5zM340 1503l195 246h159l195 -246h-135l-140 156l-139 -156h-135z" />
<glyph unicode="&#xd5;" horiz-adv-x="1196" d="M133 682q0 149 2.5 215t19 142.5t52.5 134.5q58 95 160.5 148.5t230.5 53.5t230.5 -53.5t160.5 -148.5q51 -83 62.5 -180.5t11.5 -311.5q0 -149 -2.5 -215t-19 -142.5t-52.5 -134.5q-58 -95 -160.5 -148.5t-230.5 -53.5t-230.5 53.5t-160.5 148.5q-51 83 -62.5 180.5 t-11.5 311.5zM285 682q0 -130 2 -188.5t14 -124t37 -107.5q37 -62 105.5 -96.5t154.5 -34.5t154.5 34.5t105.5 96.5q25 42 37 107.5t14 124t2 188.5t-2 188.5t-14 124t-37 107.5q-37 62 -105.5 96.5t-154.5 34.5t-154.5 -34.5t-105.5 -96.5q-25 -42 -37 -107.5t-14 -124 t-2 -188.5zM311 1524q0 73 52.5 122.5t128.5 49.5q61 0 149 -45q6 -3 22 -10.5t24.5 -11.5t22.5 -7.5t27 -3.5q28 0 47 18t19 47h115q0 -73 -52.5 -122.5t-128.5 -49.5q-61 0 -149 45q-6 3 -22 10.5t-24.5 11.5t-22.5 7.5t-27 3.5q-28 0 -47 -18t-19 -47h-115z" />
<glyph unicode="&#xd6;" horiz-adv-x="1196" d="M133 682q0 149 2.5 215t19 142.5t52.5 134.5q58 95 160.5 148.5t230.5 53.5t230.5 -53.5t160.5 -148.5q51 -83 62.5 -180.5t11.5 -311.5q0 -149 -2.5 -215t-19 -142.5t-52.5 -134.5q-58 -95 -160.5 -148.5t-230.5 -53.5t-230.5 53.5t-160.5 148.5q-51 83 -62.5 180.5 t-11.5 311.5zM285 682q0 -130 2 -188.5t14 -124t37 -107.5q37 -62 105.5 -96.5t154.5 -34.5t154.5 34.5t105.5 96.5q25 42 37 107.5t14 124t2 188.5t-2 188.5t-14 124t-37 107.5q-37 62 -105.5 96.5t-154.5 34.5t-154.5 -34.5t-105.5 -96.5q-25 -42 -37 -107.5t-14 -124 t-2 -188.5zM334 1610q0 43 26.5 69.5t69.5 26.5t69.5 -26.5t26.5 -69.5t-26.5 -70t-69.5 -27t-69.5 27t-26.5 70zM702 1610q0 43 27 69.5t70 26.5t69.5 -26.5t26.5 -69.5t-26.5 -70t-69.5 -27t-70 27t-27 70z" />
<glyph unicode="&#xd7;" d="M213 279l236 233l-236 233l86 86l233 -235l234 235l86 -86l-236 -233l236 -233l-86 -86l-234 235l-233 -235z" />
<glyph unicode="&#xd8;" horiz-adv-x="1228" d="M123 -41l117 197q-38 47 -61 99t-32.5 118t-11.5 112.5t-2 132.5v127q0 88 2 134t11.5 113.5t33 119.5t62.5 100q66 81 163.5 122.5t208.5 41.5q168 0 293 -88l70 117h129l-117 -197q38 -47 61 -99t32.5 -118.5t11.5 -113t2 -132.5v-127q0 -88 -2 -133.5t-11.5 -113 t-33 -119.5t-62.5 -100q-66 -81 -164 -122.5t-209 -41.5q-167 0 -292 88l-70 -117h-129zM285 618q0 -85 1.5 -127.5t10 -98t25.5 -95.5l512 864q-84 72 -220 72q-76 0 -141.5 -27.5t-107.5 -77.5q-29 -34 -46 -72.5t-24 -94.5t-8.5 -95.5t-1.5 -120.5v-127zM393 203 q81 -72 221 -72q76 0 142 27.5t108 77.5q29 34 46 72.5t24 94t8.5 95t1.5 120.5v127q0 88 -1.5 130.5t-10.5 97t-27 94.5z" />
<glyph unicode="&#xd9;" horiz-adv-x="1134" d="M143 571v793h152v-793q0 -80 1 -118t7.5 -90.5t21.5 -87t40 -62.5q73 -82 202 -82q130 0 203 82q25 28 40 62.5t21.5 87t7.5 90.5t1 118v793h151v-793q0 -90 -2 -135t-11 -110.5t-32 -114t-61 -92.5q-55 -63 -138.5 -97t-179.5 -34t-179 34t-138 97q-38 44 -61 92.5 t-32.5 113.5t-11.5 111.5t-2 134.5zM348 1749h160l154 -246h-136z" />
<glyph unicode="&#xda;" horiz-adv-x="1134" d="M143 571v793h152v-793q0 -80 1 -118t7.5 -90.5t21.5 -87t40 -62.5q73 -82 202 -82q130 0 203 82q25 28 40 62.5t21.5 87t7.5 90.5t1 118v793h151v-793q0 -90 -2 -135t-11 -110.5t-32 -114t-61 -92.5q-55 -63 -138.5 -97t-179.5 -34t-179 34t-138 97q-38 44 -61 92.5 t-32.5 113.5t-11.5 111.5t-2 134.5zM473 1503l154 246h159l-178 -246h-135z" />
<glyph unicode="&#xdb;" horiz-adv-x="1134" d="M143 571v793h152v-793q0 -80 1 -118t7.5 -90.5t21.5 -87t40 -62.5q73 -82 202 -82q130 0 203 82q25 28 40 62.5t21.5 87t7.5 90.5t1 118v793h151v-793q0 -90 -2 -135t-11 -110.5t-32 -114t-61 -92.5q-55 -63 -138.5 -97t-179.5 -34t-179 34t-138 97q-38 44 -61 92.5 t-32.5 113.5t-11.5 111.5t-2 134.5zM293 1503l194 246h160l195 -246h-135l-140 156l-139 -156h-135z" />
<glyph unicode="&#xdc;" horiz-adv-x="1134" d="M143 571v793h152v-793q0 -80 1 -118t7.5 -90.5t21.5 -87t40 -62.5q73 -82 202 -82q130 0 203 82q25 28 40 62.5t21.5 87t7.5 90.5t1 118v793h151v-793q0 -90 -2 -135t-11 -110.5t-32 -114t-61 -92.5q-55 -63 -138.5 -97t-179.5 -34t-179 34t-138 97q-38 44 -61 92.5 t-32.5 113.5t-11.5 111.5t-2 134.5zM287 1610q0 43 26.5 69.5t69.5 26.5t69.5 -26.5t26.5 -69.5t-26.5 -70t-69.5 -27t-69.5 27t-26.5 70zM655 1610q0 43 27 69.5t70 26.5t69.5 -26.5t26.5 -69.5t-26.5 -70t-69.5 -27t-70 27t-27 70z" />
<glyph unicode="&#xdd;" horiz-adv-x="1044" d="M41 1364h166l315 -686l316 686h166l-406 -852v-512h-152v512zM428 1503l154 246h159l-178 -246h-135z" />
<glyph unicode="&#xde;" d="M154 0v1364h151v-225h72q64 0 97.5 -1t89 -6.5t92 -17t80 -33.5t79.5 -55q70 -63 103.5 -150.5t33.5 -177.5t-33.5 -177t-103.5 -150q-36 -33 -79.5 -55t-80 -33.5t-92 -17t-89 -6.5t-97.5 -1h-72v-258h-151zM305 401h72q73 0 107.5 1.5t82.5 7.5t80.5 21.5t61.5 41.5 q92 82 92 225q0 144 -92 226q-23 21 -52.5 35t-53.5 21t-68.5 10.5t-70.5 4t-87 0.5h-72v-594z" />
<glyph unicode="&#xdf;" horiz-adv-x="1034" d="M133 0v952q0 58 1.5 89t8.5 78t24 83.5t46 67.5q98 108 258 108q118 0 209 -63q59 -41 96 -109.5t37 -152.5q0 -73 -28 -139.5t-74 -112.5q110 -45 163 -129q27 -42 40.5 -92t15.5 -83t2 -87q0 -60 -2.5 -96.5t-22.5 -96t-59 -104.5q-49 -58 -125.5 -91.5t-171.5 -33.5 q-70 0 -145 20l36 131q56 -16 109 -16q120 0 182 72q26 30 38.5 68.5t14.5 66t2 80.5t-1.5 79.5t-13 63t-34.5 65.5q-21 27 -49.5 43.5t-71 23t-72 8t-87.5 1.5v135q88 0 149.5 66t61.5 158q0 97 -72 151q-55 39 -127 39q-99 0 -152 -63q-21 -24 -30.5 -59t-11 -66.5 t-1.5 -102.5v-952h-143z" />
<glyph unicode="&#xe0;" horiz-adv-x="907" d="M72 289q0 77 33.5 138t87.5 99q44 32 103 49t94.5 19t92.5 2h168q0 44 -1.5 70t-13 66t-34.5 65q-53 59 -166 59q-130 0 -268 -53l-43 129q158 59 311 59q183 0 277 -108q38 -42 57.5 -102.5t22 -98.5t2.5 -100v-582h-144v117q-39 -61 -106.5 -95t-143.5 -34 q-124 0 -213 69q-51 40 -83.5 102t-32.5 130zM215 295q0 -78 61 -129q51 -43 136 -43q64 0 114.5 26.5t79.5 69.5q21 32 31.5 75t12 76t1.5 99h-168q-47 0 -72.5 -1.5t-62.5 -11.5t-65 -30q-68 -50 -68 -131zM217 1364h160l153 -246h-135z" />
<glyph unicode="&#xe1;" horiz-adv-x="907" d="M72 289q0 77 33.5 138t87.5 99q44 32 103 49t94.5 19t92.5 2h168q0 44 -1.5 70t-13 66t-34.5 65q-53 59 -166 59q-130 0 -268 -53l-43 129q158 59 311 59q183 0 277 -108q38 -42 57.5 -102.5t22 -98.5t2.5 -100v-582h-144v117q-39 -61 -106.5 -95t-143.5 -34 q-124 0 -213 69q-51 40 -83.5 102t-32.5 130zM215 295q0 -78 61 -129q51 -43 136 -43q64 0 114.5 26.5t79.5 69.5q21 32 31.5 75t12 76t1.5 99h-168q-47 0 -72.5 -1.5t-62.5 -11.5t-65 -30q-68 -50 -68 -131zM342 1118l154 246h159l-178 -246h-135z" />
<glyph unicode="&#xe2;" horiz-adv-x="907" d="M72 289q0 77 33.5 138t87.5 99q44 32 103 49t94.5 19t92.5 2h168q0 44 -1.5 70t-13 66t-34.5 65q-53 59 -166 59q-130 0 -268 -53l-43 129q158 59 311 59q183 0 277 -108q38 -42 57.5 -102.5t22 -98.5t2.5 -100v-582h-144v117q-39 -61 -106.5 -95t-143.5 -34 q-124 0 -213 69q-51 40 -83.5 102t-32.5 130zM162 1118l194 246h160l195 -246h-136l-139 156l-139 -156h-135zM215 295q0 -78 61 -129q51 -43 136 -43q64 0 114.5 26.5t79.5 69.5q21 32 31.5 75t12 76t1.5 99h-168q-47 0 -72.5 -1.5t-62.5 -11.5t-65 -30q-68 -50 -68 -131z " />
<glyph unicode="&#xe3;" horiz-adv-x="907" d="M72 289q0 77 33.5 138t87.5 99q44 32 103 49t94.5 19t92.5 2h168q0 44 -1.5 70t-13 66t-34.5 65q-53 59 -166 59q-130 0 -268 -53l-43 129q158 59 311 59q183 0 277 -108q38 -42 57.5 -102.5t22 -98.5t2.5 -100v-582h-144v117q-39 -61 -106.5 -95t-143.5 -34 q-124 0 -213 69q-51 40 -83.5 102t-32.5 130zM133 1139q0 73 52.5 122.5t127.5 49.5q62 0 150 -45q6 -3 22 -10.5t24.5 -11.5t22.5 -7.5t27 -3.5q28 0 47 18t19 47h114q0 -73 -52.5 -122.5t-127.5 -49.5q-61 0 -149 45q-6 3 -22.5 11t-25 11.5t-22.5 7t-27 3.5 q-28 0 -46.5 -18t-18.5 -47h-115zM215 295q0 -78 61 -129q51 -43 136 -43q64 0 114.5 26.5t79.5 69.5q21 32 31.5 75t12 76t1.5 99h-168q-47 0 -72.5 -1.5t-62.5 -11.5t-65 -30q-68 -50 -68 -131z" />
<glyph unicode="&#xe4;" horiz-adv-x="907" d="M72 289q0 77 33.5 138t87.5 99q44 32 103 49t94.5 19t92.5 2h168q0 44 -1.5 70t-13 66t-34.5 65q-53 59 -166 59q-130 0 -268 -53l-43 129q158 59 311 59q183 0 277 -108q38 -42 57.5 -102.5t22 -98.5t2.5 -100v-582h-144v117q-39 -61 -106.5 -95t-143.5 -34 q-124 0 -213 69q-51 40 -83.5 102t-32.5 130zM156 1225q0 43 26.5 69.5t69.5 26.5t69.5 -26.5t26.5 -69.5t-26.5 -70t-69.5 -27t-69.5 27t-26.5 70zM215 295q0 -78 61 -129q51 -43 136 -43q64 0 114.5 26.5t79.5 69.5q21 32 31.5 75t12 76t1.5 99h-168q-47 0 -72.5 -1.5 t-62.5 -11.5t-65 -30q-68 -50 -68 -131zM524 1225q0 43 27 69.5t70 26.5t69.5 -26.5t26.5 -69.5t-26.5 -70t-69.5 -27t-70 27t-27 70z" />
<glyph unicode="&#xe5;" horiz-adv-x="907" d="M72 289q0 77 33.5 138t87.5 99q44 32 103 49t94.5 19t92.5 2h168q0 44 -1.5 70t-13 66t-34.5 65q-53 59 -166 59q-130 0 -268 -53l-43 129q158 59 311 59q183 0 277 -108q38 -42 57.5 -102.5t22 -98.5t2.5 -100v-582h-144v117q-39 -61 -106.5 -95t-143.5 -34 q-124 0 -213 69q-51 40 -83.5 102t-32.5 130zM215 295q0 -78 61 -129q51 -43 136 -43q64 0 114.5 26.5t79.5 69.5q21 32 31.5 75t12 76t1.5 99h-168q-47 0 -72.5 -1.5t-62.5 -11.5t-65 -30q-68 -50 -68 -131zM258 1241q0 81 49.5 129.5t128.5 48.5q80 0 129 -48.5t49 -129.5 q0 -79 -49 -128.5t-129 -49.5q-78 0 -128 49.5t-50 128.5zM346 1241q0 -42 24.5 -68t65.5 -26t66.5 26.5t25.5 67.5q0 42 -25.5 69t-66.5 27t-65.5 -27t-24.5 -69z" />
<glyph unicode="&#xe6;" horiz-adv-x="1409" d="M82 295q0 75 29 133t77 94q40 30 94.5 44.5t95.5 17t118 2.5h104v4q0 59 -1.5 86.5t-10 60.5t-27.5 56q-51 63 -155 63t-220 -55l-57 125q143 65 277 65q188 0 272 -131q43 63 113.5 98t156.5 35q88 0 160 -35t113 -92q27 -35 43.5 -71.5t23 -86t7.5 -81.5t1 -99v-69 h-553v-13q0 -76 1.5 -109.5t11.5 -72t32 -65.5q59 -76 181 -76q108 0 207 55l67 -119q-135 -71 -274 -71q-199 0 -293 139q-45 -67 -117.5 -103t-163.5 -36q-130 0 -215 75q-98 84 -98 232zM225 295q0 -77 39 -119q47 -53 131 -53q46 0 89 17.5t69 47.5q32 38 39.5 85.5 t7.5 152.5v33h-104q-96 0 -138 -5t-73 -26q-60 -42 -60 -133zM743 586h410q0 45 -1.5 69.5t-11.5 60.5t-30 64q-26 35 -68.5 56.5t-93.5 21.5t-93.5 -21.5t-68.5 -56.5q-20 -28 -30 -64t-11.5 -60.5t-1.5 -69.5z" />
<glyph unicode="&#xe7;" horiz-adv-x="890" d="M113 498q0 57 2 91t10 89.5t29 102.5t55 87q49 57 124.5 90t168.5 33q160 0 293 -84l-70 -119q-104 68 -223 68q-118 0 -183 -74q-29 -34 -44 -90.5t-17 -94t-2 -99.5q0 -72 2 -112.5t17.5 -98t46.5 -92.5q62 -72 180 -72q124 0 231 74l76 -115q-122 -83 -266 -92 l-19 -66q29 0 42 -0.5t34 -6.5t39 -19q47 -35 47 -101q0 -76 -63 -131q-63 -53 -166 -53q-63 0 -117 22l33 103q46 -19 84 -19q42 0 73 15q41 23 41 61q0 36 -32 53q-18 9 -52 9h-75l41 133q-151 14 -242 119q-35 39 -56.5 87t-29.5 106.5t-10 95t-2 100.5z" />
<glyph unicode="&#xe8;" horiz-adv-x="935" d="M92 489q0 53 0.5 81t5.5 76.5t14.5 81t28 71.5t45.5 71q47 56 121 88.5t164 32.5t164 -32.5t121 -88.5q59 -70 76.5 -156.5t17.5 -224.5v-40h-614q0 -180 61 -252q64 -74 195 -74q142 0 260 65l57 -122q-147 -78 -317 -78q-199 0 -306 123q-33 39 -54 84.5t-28.5 102 t-9.5 92.5t-2 99zM236 575h471q0 131 -56 203q-61 78 -180 78t-180 -78q-55 -70 -55 -203zM252 1364h160l153 -246h-135z" />
<glyph unicode="&#xe9;" horiz-adv-x="935" d="M92 489q0 53 0.5 81t5.5 76.5t14.5 81t28 71.5t45.5 71q47 56 121 88.5t164 32.5t164 -32.5t121 -88.5q59 -70 76.5 -156.5t17.5 -224.5v-40h-614q0 -180 61 -252q64 -74 195 -74q142 0 260 65l57 -122q-147 -78 -317 -78q-199 0 -306 123q-33 39 -54 84.5t-28.5 102 t-9.5 92.5t-2 99zM236 575h471q0 131 -56 203q-61 78 -180 78t-180 -78q-55 -70 -55 -203zM377 1118l153 246h160l-178 -246h-135z" />
<glyph unicode="&#xea;" horiz-adv-x="935" d="M92 489q0 53 0.5 81t5.5 76.5t14.5 81t28 71.5t45.5 71q47 56 121 88.5t164 32.5t164 -32.5t121 -88.5q59 -70 76.5 -156.5t17.5 -224.5v-40h-614q0 -180 61 -252q64 -74 195 -74q142 0 260 65l57 -122q-147 -78 -317 -78q-199 0 -306 123q-33 39 -54 84.5t-28.5 102 t-9.5 92.5t-2 99zM197 1118l194 246h160l194 -246h-135l-139 156l-139 -156h-135zM236 575h471q0 131 -56 203q-61 78 -180 78t-180 -78q-55 -70 -55 -203z" />
<glyph unicode="&#xeb;" horiz-adv-x="935" d="M92 489q0 53 0.5 81t5.5 76.5t14.5 81t28 71.5t45.5 71q47 56 121 88.5t164 32.5t164 -32.5t121 -88.5q59 -70 76.5 -156.5t17.5 -224.5v-40h-614q0 -180 61 -252q64 -74 195 -74q142 0 260 65l57 -122q-147 -78 -317 -78q-199 0 -306 123q-33 39 -54 84.5t-28.5 102 t-9.5 92.5t-2 99zM190 1225q0 43 27 69.5t70 26.5t69.5 -26.5t26.5 -69.5t-26.5 -70t-69.5 -27t-70 27t-27 70zM236 575h471q0 131 -56 203q-61 78 -180 78t-180 -78q-55 -70 -55 -203zM559 1225q0 43 26.5 69.5t69.5 26.5t70 -26.5t27 -69.5t-27 -70t-70 -27t-69.5 27 t-26.5 70z" />
<glyph unicode="&#xec;" horiz-adv-x="409" d="M-14 1362h159l154 -246h-135zM133 0v979h143v-979h-143z" />
<glyph unicode="&#xed;" horiz-adv-x="409" d="M111 1116l153 246h160l-178 -246h-135zM133 0v979h143v-979h-143z" />
<glyph unicode="&#xee;" horiz-adv-x="409" d="M-70 1116l195 246h160l194 -246h-135l-139 156l-139 -156h-136zM133 0v979h143v-979h-143z" />
<glyph unicode="&#xef;" horiz-adv-x="409" d="M-76 1223q0 43 26.5 69.5t69.5 26.5t70 -26.5t27 -69.5t-27 -70t-70 -27t-69.5 27t-26.5 70zM133 0v979h143v-979h-143zM293 1223q0 43 26.5 69.5t69.5 26.5t69.5 -26.5t26.5 -69.5t-26.5 -70t-69.5 -27t-69.5 27t-26.5 70z" />
<glyph unicode="&#xf0;" horiz-adv-x="1003" d="M113 489q0 71 2 108.5t10 93t29 99t55 84.5q46 54 116.5 85.5t155.5 31.5q132 0 224 -92q-35 171 -140 307l-178 -98l-53 94l153 84q-77 65 -161 94l36 101q133 -44 236 -133l182 100l54 -94l-156 -84q99 -132 145.5 -318.5t46.5 -462.5q0 -67 -1.5 -103.5t-9.5 -92 t-28.5 -100t-54.5 -84.5q-103 -121 -284 -121q-182 0 -285 121q-34 40 -54.5 84.5t-28.5 100t-9.5 92t-1.5 103.5zM256 489q0 -55 1 -85t6.5 -74t18.5 -76.5t35 -58.5q62 -72 175 -72q112 0 174 72q22 26 35 58.5t18.5 76.5t6.5 74t1 85q0 59 -1 87.5t-6.5 74.5t-19.5 78.5 t-38 58.5q-61 68 -170 68t-170 -68q-31 -35 -46.5 -89t-17.5 -94t-2 -116z" />
<glyph unicode="&#xf1;" horiz-adv-x="962" d="M133 0v979h143v-102q36 52 95.5 83t130.5 31q84 0 148.5 -30t105.5 -74q34 -36 54 -76t28.5 -92.5t10 -88.5t1.5 -106v-524h-143v524q0 79 -2.5 118t-16 83t-41.5 72q-59 59 -155 59q-97 0 -156 -59q-40 -40 -50 -98.5t-10 -174.5v-524h-143zM199 1139q0 73 52.5 122.5 t127.5 49.5q61 0 149 -45q6 -3 22.5 -11t25 -11.5t22.5 -7t27 -3.5q28 0 46.5 18t18.5 47h115q0 -73 -52.5 -122.5t-127.5 -49.5q-62 0 -150 45q-6 3 -22 10.5t-24.5 11.5t-22.5 7.5t-27 3.5q-28 0 -47 -18t-19 -47h-114z" />
<glyph unicode="&#xf2;" horiz-adv-x="962" d="M92 489q0 76 2 119t16 103t42 106q50 82 135.5 128t193.5 46t194 -46t136 -128q28 -46 41.5 -106.5t15.5 -102t2 -119.5q0 -77 -2 -118.5t-15.5 -102t-41.5 -106.5q-50 -82 -136 -128t-194 -46t-193.5 46t-135.5 128q-28 46 -42 106t-16 102.5t-2 118.5zM236 489 q0 -68 1.5 -104t12 -84t31.5 -80q66 -98 200 -98q135 0 201 98q21 32 31.5 80t12 84t1.5 104q0 69 -1.5 104.5t-12 84t-31.5 80.5q-66 98 -201 98q-134 0 -200 -98q-21 -32 -31.5 -80.5t-12 -84t-1.5 -104.5zM262 1364h160l153 -246h-135z" />
<glyph unicode="&#xf3;" horiz-adv-x="962" d="M92 489q0 76 2 119t16 103t42 106q50 82 135.5 128t193.5 46t194 -46t136 -128q28 -46 41.5 -106.5t15.5 -102t2 -119.5q0 -77 -2 -118.5t-15.5 -102t-41.5 -106.5q-50 -82 -136 -128t-194 -46t-193.5 46t-135.5 128q-28 46 -42 106t-16 102.5t-2 118.5zM236 489 q0 -68 1.5 -104t12 -84t31.5 -80q66 -98 200 -98q135 0 201 98q21 32 31.5 80t12 84t1.5 104q0 69 -1.5 104.5t-12 84t-31.5 80.5q-66 98 -201 98q-134 0 -200 -98q-21 -32 -31.5 -80.5t-12 -84t-1.5 -104.5zM387 1118l154 246h159l-178 -246h-135z" />
<glyph unicode="&#xf4;" horiz-adv-x="962" d="M92 489q0 76 2 119t16 103t42 106q50 82 135.5 128t193.5 46t194 -46t136 -128q28 -46 41.5 -106.5t15.5 -102t2 -119.5q0 -77 -2 -118.5t-15.5 -102t-41.5 -106.5q-50 -82 -136 -128t-194 -46t-193.5 46t-135.5 128q-28 46 -42 106t-16 102.5t-2 118.5zM207 1118 l194 246h160l195 -246h-135l-140 156l-139 -156h-135zM236 489q0 -68 1.5 -104t12 -84t31.5 -80q66 -98 200 -98q135 0 201 98q21 32 31.5 80t12 84t1.5 104q0 69 -1.5 104.5t-12 84t-31.5 80.5q-66 98 -201 98q-134 0 -200 -98q-21 -32 -31.5 -80.5t-12 -84t-1.5 -104.5z " />
<glyph unicode="&#xf5;" horiz-adv-x="962" d="M92 489q0 76 2 119t16 103t42 106q50 82 135.5 128t193.5 46t194 -46t136 -128q28 -46 41.5 -106.5t15.5 -102t2 -119.5q0 -77 -2 -118.5t-15.5 -102t-41.5 -106.5q-50 -82 -136 -128t-194 -46t-193.5 46t-135.5 128q-28 46 -42 106t-16 102.5t-2 118.5zM178 1139 q0 73 52.5 122.5t127.5 49.5q62 0 150 -45q6 -3 22 -10.5t24.5 -11.5t22.5 -7.5t27 -3.5q28 0 47 18t19 47h114q0 -73 -52.5 -122.5t-127.5 -49.5q-61 0 -149 45q-6 3 -22.5 11t-25 11.5t-22.5 7t-27 3.5q-28 0 -46.5 -18t-18.5 -47h-115zM236 489q0 -68 1.5 -104t12 -84 t31.5 -80q66 -98 200 -98q135 0 201 98q21 32 31.5 80t12 84t1.5 104q0 69 -1.5 104.5t-12 84t-31.5 80.5q-66 98 -201 98q-134 0 -200 -98q-21 -32 -31.5 -80.5t-12 -84t-1.5 -104.5z" />
<glyph unicode="&#xf6;" horiz-adv-x="962" d="M92 489q0 76 2 119t16 103t42 106q50 82 135.5 128t193.5 46t194 -46t136 -128q28 -46 41.5 -106.5t15.5 -102t2 -119.5q0 -77 -2 -118.5t-15.5 -102t-41.5 -106.5q-50 -82 -136 -128t-194 -46t-193.5 46t-135.5 128q-28 46 -42 106t-16 102.5t-2 118.5zM201 1225 q0 43 26.5 69.5t69.5 26.5t69.5 -26.5t26.5 -69.5t-26.5 -70t-69.5 -27t-69.5 27t-26.5 70zM236 489q0 -68 1.5 -104t12 -84t31.5 -80q66 -98 200 -98q135 0 201 98q21 32 31.5 80t12 84t1.5 104q0 69 -1.5 104.5t-12 84t-31.5 80.5q-66 98 -201 98q-134 0 -200 -98 q-21 -32 -31.5 -80.5t-12 -84t-1.5 -104.5zM569 1225q0 43 27 69.5t70 26.5t69.5 -26.5t26.5 -69.5t-26.5 -70t-69.5 -27t-70 27t-27 70z" />
<glyph unicode="&#xf7;" d="M164 455v118h737v-118h-737zM440 211q0 41 27 67.5t68 26.5t67.5 -26.5t26.5 -67.5q0 -40 -26.5 -66t-67.5 -26t-68 26t-27 66zM440 807q0 40 27 66t68 26t67.5 -26t26.5 -66q0 -41 -26.5 -67.5t-67.5 -26.5t-68 26.5t-27 67.5z" />
<glyph unicode="&#xf8;" horiz-adv-x="1003" d="M92 -41l107 162q-31 39 -49.5 82.5t-26 97.5t-9 89t-1.5 99q0 62 1 93.5t7 83.5t21.5 93.5t41.5 78.5q52 76 136.5 114.5t181.5 38.5q131 0 229 -65l62 94h118l-106 -162q31 -38 49.5 -82t26 -98.5t9 -90t1.5 -98.5q0 -80 -2.5 -124t-19 -110t-50.5 -114 q-52 -76 -136 -114.5t-181 -38.5q-132 0 -230 65l-61 -94h-119zM256 489q0 -60 1 -91t7.5 -73.5t20.5 -74.5l368 561q-61 45 -151 45q-132 0 -195 -88q-24 -34 -36 -83.5t-13.5 -86.5t-1.5 -109zM350 168q61 -45 152 -45q131 0 194 88q24 34 36 82.5t14 87t2 108.5 q0 60 -1 91t-7.5 74t-20.5 75z" />
<glyph unicode="&#xf9;" horiz-adv-x="942" d="M113 455v524h143v-524q0 -80 2 -118t15.5 -82.5t41.5 -72.5q59 -59 156 -59t156 59q28 28 41.5 72.5t15.5 82.5t2 118v524h143v-524q0 -70 -2 -106t-10 -88.5t-29 -92.5t-55 -76q-100 -104 -262 -104t-262 104q-34 36 -55 76t-29 92.5t-10 88.5t-2 106zM252 1364h160 l153 -246h-135z" />
<glyph unicode="&#xfa;" horiz-adv-x="942" d="M113 455v524h143v-524q0 -80 2 -118t15.5 -82.5t41.5 -72.5q59 -59 156 -59t156 59q28 28 41.5 72.5t15.5 82.5t2 118v524h143v-524q0 -70 -2 -106t-10 -88.5t-29 -92.5t-55 -76q-100 -104 -262 -104t-262 104q-34 36 -55 76t-29 92.5t-10 88.5t-2 106zM377 1118l153 246 h160l-178 -246h-135z" />
<glyph unicode="&#xfb;" horiz-adv-x="942" d="M113 455v524h143v-524q0 -80 2 -118t15.5 -82.5t41.5 -72.5q59 -59 156 -59t156 59q28 28 41.5 72.5t15.5 82.5t2 118v524h143v-524q0 -70 -2 -106t-10 -88.5t-29 -92.5t-55 -76q-100 -104 -262 -104t-262 104q-34 36 -55 76t-29 92.5t-10 88.5t-2 106zM197 1118l194 246 h160l194 -246h-135l-139 156l-139 -156h-135z" />
<glyph unicode="&#xfc;" horiz-adv-x="942" d="M113 455v524h143v-524q0 -80 2 -118t15.5 -82.5t41.5 -72.5q59 -59 156 -59t156 59q28 28 41.5 72.5t15.5 82.5t2 118v524h143v-524q0 -70 -2 -106t-10 -88.5t-29 -92.5t-55 -76q-100 -104 -262 -104t-262 104q-34 36 -55 76t-29 92.5t-10 88.5t-2 106zM190 1225 q0 43 27 69.5t70 26.5t69.5 -26.5t26.5 -69.5t-26.5 -70t-69.5 -27t-70 27t-27 70zM559 1225q0 43 26.5 69.5t69.5 26.5t70 -26.5t27 -69.5t-27 -70t-70 -27t-69.5 27t-26.5 70z" />
<glyph unicode="&#xfd;" horiz-adv-x="884" d="M31 979h151l264 -811l254 811h148l-453 -1354h-149l127 369zM324 1118l153 246h160l-178 -246h-135z" />
<glyph unicode="&#xfe;" horiz-adv-x="1003" d="M133 -375v1739h143v-498q41 59 106 92t140 33q88 0 159.5 -32.5t117.5 -88.5q33 -40 53 -84.5t28 -100t9.5 -92.5t1.5 -104t-1.5 -103.5t-9.5 -92t-28 -100t-53 -84.5q-46 -56 -117.5 -88.5t-159.5 -32.5q-75 0 -140 33t-106 92v-488h-143zM276 489q0 -72 2.5 -113 t16.5 -94t43 -87q62 -72 174 -72t174 72q29 34 43 87t16.5 94t2.5 113q0 54 -1.5 85t-6.5 75t-18.5 76.5t-35.5 58.5q-62 72 -174 72t-174 -72q-22 -26 -35.5 -58.5t-18.5 -76.5t-6.5 -75t-1.5 -85z" />
<glyph unicode="&#xff;" horiz-adv-x="884" d="M31 979h151l264 -811l254 811h148l-453 -1354h-149l127 369zM137 1225q0 43 26.5 69.5t69.5 26.5t70 -26.5t27 -69.5t-27 -70t-70 -27t-69.5 27t-26.5 70zM506 1225q0 43 26.5 69.5t69.5 26.5t69.5 -26.5t26.5 -69.5t-26.5 -70t-69.5 -27t-69.5 27t-26.5 70z" />
<glyph unicode="&#x152;" horiz-adv-x="1650" d="M133 633v98q0 62 0.5 92.5t2.5 82t7 81t14 71t23 70.5t34.5 61.5t47.5 61.5q57 61 141.5 93t169.5 32q191 0 289 -143v131h656v-143h-504v-447h422v-143h-422v-488h504v-143h-656v131q-98 -143 -289 -143q-85 0 -169.5 32t-141.5 93q-27 29 -47.5 61.5t-34.5 61.5 t-23 70.5t-14 71t-7 81t-2.5 82t-0.5 92.5zM285 633q0 -97 1 -138.5t7.5 -100t22 -95.5t42.5 -72q34 -44 91.5 -70t123.5 -26t123.5 26t91.5 70q51 66 62.5 147t11.5 259v98q0 95 -1.5 138t-8 101t-22 95t-42.5 72q-34 44 -91.5 70t-123.5 26t-123.5 -26t-91.5 -70 q-27 -35 -42.5 -72t-22 -95.5t-7.5 -100t-1 -138.5v-98z" />
<glyph unicode="&#x153;" horiz-adv-x="1474" d="M113 489q0 131 13.5 212t59.5 149q42 62 114.5 101.5t160.5 39.5q91 0 162 -41t114 -112q49 73 120 114t157 41q87 0 157 -35t115 -92q36 -45 53.5 -102.5t20 -97.5t2.5 -117v-90h-553v-13q0 -76 1.5 -109.5t11.5 -72t32 -65.5q59 -76 180 -76q108 0 207 55l68 -119 q-135 -71 -275 -71q-96 0 -175.5 38.5t-125.5 110.5q-41 -68 -112.5 -108.5t-159.5 -40.5t-159.5 39.5t-115.5 101.5q-48 67 -60.5 146.5t-12.5 213.5zM256 489q0 -75 1.5 -114t13 -89.5t34.5 -82.5q59 -80 156 -80q96 0 155 80q32 46 41 113t9 173q0 73 -2 113.5t-13.5 91 t-34.5 82.5q-59 80 -155 80q-97 0 -156 -80q-32 -46 -40.5 -112.5t-8.5 -174.5zM809 586h410q0 46 -1.5 70.5t-11.5 60t-30 63.5q-26 35 -68.5 56.5t-93.5 21.5t-93.5 -21.5t-68.5 -56.5q-20 -28 -30 -63.5t-11.5 -60t-1.5 -70.5z" />
<glyph unicode="&#x178;" horiz-adv-x="1044" d="M41 1364h166l315 -686l316 686h166l-406 -852v-512h-152v512zM242 1610q0 43 26.5 69.5t69.5 26.5t69.5 -26.5t26.5 -69.5t-26.5 -70t-69.5 -27t-69.5 27t-26.5 70zM610 1610q0 43 27 69.5t70 26.5t69.5 -26.5t26.5 -69.5t-26.5 -70t-69.5 -27t-70 27t-27 70z" />
<glyph unicode="&#x2c6;" horiz-adv-x="753" d="M102 1118l195 246h160l194 -246h-135l-139 156l-139 -156h-136z" />
<glyph unicode="&#x2dc;" horiz-adv-x="811" d="M102 1139q0 73 52.5 122.5t128.5 49.5q61 0 149 -45q6 -3 22 -10.5t24.5 -11.5t22.5 -7.5t27 -3.5q28 0 47 18t19 47h115q0 -73 -52.5 -122.5t-128.5 -49.5q-61 0 -149 45q-6 3 -22 10.5t-24.5 11.5t-22.5 7.5t-27 3.5q-28 0 -47 -18t-19 -47h-115z" />
<glyph unicode="&#x2000;" horiz-adv-x="902" />
<glyph unicode="&#x2001;" horiz-adv-x="1804" />
<glyph unicode="&#x2002;" horiz-adv-x="902" />
<glyph unicode="&#x2003;" horiz-adv-x="1804" />
<glyph unicode="&#x2004;" horiz-adv-x="601" />
<glyph unicode="&#x2005;" horiz-adv-x="451" />
<glyph unicode="&#x2006;" horiz-adv-x="300" />
<glyph unicode="&#x2007;" horiz-adv-x="300" />
<glyph unicode="&#x2008;" horiz-adv-x="225" />
<glyph unicode="&#x2009;" horiz-adv-x="360" />
<glyph unicode="&#x200a;" horiz-adv-x="100" />
<glyph unicode="&#x2010;" horiz-adv-x="757" d="M164 453v118h430v-118h-430z" />
<glyph unicode="&#x2011;" horiz-adv-x="757" d="M164 453v118h430v-118h-430z" />
<glyph unicode="&#x2012;" horiz-adv-x="757" d="M164 453v118h430v-118h-430z" />
<glyph unicode="&#x2013;" horiz-adv-x="1024" d="M164 453v118h696v-118h-696z" />
<glyph unicode="&#x2014;" horiz-adv-x="2048" d="M164 453v118h1720v-118h-1720z" />
<glyph unicode="&#x2018;" horiz-adv-x="413" d="M102 1024q0 23 17 76l94 264h92l-59 -242q29 -9 47 -36t18 -62q0 -47 -29 -75.5t-75 -28.5t-75.5 28.5t-29.5 75.5z" />
<glyph unicode="&#x2019;" horiz-adv-x="413" d="M102 1272q0 47 29.5 75.5t75.5 28.5t75 -28.5t29 -75.5q0 -26 -16 -76l-94 -264h-92l59 242q-29 9 -47.5 36t-18.5 62z" />
<glyph unicode="&#x201a;" horiz-adv-x="413" d="M102 92q0 47 29.5 76t75.5 29t75 -29t29 -76q0 -26 -16 -76l-94 -264h-92l59 242q-29 9 -47.5 36t-18.5 62z" />
<glyph unicode="&#x201c;" horiz-adv-x="741" d="M102 1024q0 23 17 76l94 264h92l-59 -242q29 -9 47 -36t18 -62q0 -47 -29 -75.5t-75 -28.5t-75.5 28.5t-29.5 75.5zM430 1024q0 26 16 76l95 264h92l-60 -242q29 -9 47.5 -36t18.5 -62q0 -47 -29 -75.5t-75 -28.5t-75.5 28.5t-29.5 75.5z" />
<glyph unicode="&#x201d;" horiz-adv-x="741" d="M102 1272q0 47 29.5 75.5t75.5 28.5t75 -28.5t29 -75.5q0 -26 -16 -76l-94 -264h-92l59 242q-29 9 -47.5 36t-18.5 62zM430 1272q0 47 29.5 75.5t75.5 28.5t75 -28.5t29 -75.5q0 -26 -16 -76l-95 -264h-92l60 242q-29 9 -47.5 36t-18.5 62z" />
<glyph unicode="&#x201e;" horiz-adv-x="741" d="M102 92q0 47 29.5 76t75.5 29t75 -29t29 -76q0 -26 -16 -76l-94 -264h-92l59 242q-29 9 -47.5 36t-18.5 62zM430 92q0 47 29.5 76t75.5 29t75 -29t29 -76q0 -26 -16 -76l-95 -264h-92l60 242q-29 9 -47.5 36t-18.5 62z" />
<glyph unicode="&#x2022;" horiz-adv-x="665" d="M164 512q0 75 47.5 122.5t122.5 47.5q74 0 121 -47.5t47 -122.5t-47 -122.5t-121 -47.5q-75 0 -122.5 47.5t-47.5 122.5z" />
<glyph unicode="&#x2026;" horiz-adv-x="1110" d="M102 92q0 46 29.5 75.5t75.5 29.5t75 -29.5t29 -75.5t-29 -75t-75 -29t-75.5 29t-29.5 75zM451 92q0 46 29 75.5t75 29.5t75 -29.5t29 -75.5t-29 -75t-75 -29t-75 29t-29 75zM799 92q0 46 29 75.5t75 29.5t75.5 -29.5t29.5 -75.5t-29.5 -75t-75.5 -29t-75 29t-29 75z" />
<glyph unicode="&#x202f;" horiz-adv-x="360" />
<glyph unicode="&#x2039;" horiz-adv-x="622" d="M102 512l320 408l98 -74l-264 -334l264 -334l-98 -74z" />
<glyph unicode="&#x203a;" horiz-adv-x="622" d="M102 178l265 334l-265 334l99 74l319 -408l-319 -408z" />
<glyph unicode="&#x205f;" horiz-adv-x="451" />
<glyph unicode="&#x20ac;" horiz-adv-x="1193" d="M82 498l41 114h92v140h-133l41 114h92q2 136 31 232.5t114 171.5q121 106 316 106q98 0 193 -30t169 -89l-90 -114q-113 90 -272 90q-132 0 -209 -66q-58 -51 -78 -121t-22 -180h534l-41 -114h-493v-140h452l-41 -114h-411q2 -112 21 -180t77 -119q77 -68 211 -68 q86 0 161.5 28t127.5 74l94 -112q-73 -62 -172 -97.5t-211 -35.5q-193 0 -314 104q-87 75 -116 172t-31 234h-133z" />
<glyph unicode="&#x2122;" horiz-adv-x="1368" d="M123 1272v92h461v-92h-183v-590h-96v590h-182zM666 682v682h86l202 -397l205 397h86v-682h-94v492l-162 -324h-67l-162 321v-489h-94z" />
<glyph unicode="&#x25fc;" horiz-adv-x="983" d="M0 0v983h983v-983h-983z" />
</font>
</defs>
</svg>
