<svg xmlns="http://www.w3.org/2000/svg" viewBox="2085.223 12.816 686.328 178.223">
  <defs>
    <style>
      .cls-1 {
        fill: #284f81;
      }
    </style>
  </defs>
  <path id="Path_1" data-name="Path 1" class="cls-1" d="M75.768-66.211q3.43,0,3.43,4.785,0,9.473.294,27.637t.294,24.414q0,21.875-5.089,31.3T63.784,35.059A25.965,25.965,0,0,1,49.545,38.77q-7.144,0-11.3-2.051t-4.16-3.711a2.761,2.761,0,0,1,.781-1.709,2.357,2.357,0,0,1,1.855-.928,11.157,11.157,0,0,1,3.174.977,14.235,14.235,0,0,0,5.42.977A18.464,18.464,0,0,0,56.006,28.67a16.472,16.472,0,0,0,6.738-10.086q1.514-6.432,1.514-19.2,0-45.8-.244-50.965t-7.275-6.285q-7.031-1.121-7.031-4.685,0-3.662,5-3.662a53.984,53.984,0,0,1,6.025.586,56.039,56.039,0,0,0,7.2.586,18.631,18.631,0,0,0,4.506-.586A16.12,16.12,0,0,1,75.768-66.211ZM57.536-11.816a2.194,2.194,0,0,1,2.522,2.441q0,3.027-7.795,7.52A30.831,30.831,0,0,1,36.771,2.637q-5.261,0-11.3-3.558T17.917-9.794q-1.511-5.314-1.511-19.16l.2-19.6q0-7.9-7.031-9.36a17.543,17.543,0,0,1-5.225-1.532q-1.123-.742-1.123-2.914A4.3,4.3,0,0,1,4.1-65.074a2.826,2.826,0,0,1,2.351-1.137,33.292,33.292,0,0,1,5.585.928,34.426,34.426,0,0,0,5.39.928,34.94,34.94,0,0,0,5.683-.928,37.123,37.123,0,0,1,5.389-.928,3.114,3.114,0,0,1,1.666.683A2.432,2.432,0,0,1,31.3-64.066q.147.78.392,13.551t.245,23.5a84.438,84.438,0,0,0,.582,11.845,8.963,8.963,0,0,0,3.637,5.947,13.168,13.168,0,0,0,8.1,2.291,15.3,15.3,0,0,0,7.856-2.441Q56.18-11.816,57.536-11.816Zm83.577-58.4a40.343,40.343,0,0,1,28.271,11.133Q181.445-47.949,181.445-33.4q0,16.309-11.523,26.563T139.063,3.418q-15.234,0-27.393-10.449T99.512-33.008q0-14.844,10.693-26.025T141.113-70.215Zm.1,65.039q11.23,0,17.92-8.105t6.689-20.508q0-12.207-7.178-20.02a23.655,23.655,0,0,0-18.213-7.812q-11.328,0-17.578,7.666T116.6-34.18q0,13.379,6.934,21.191A22.584,22.584,0,0,0,141.211-5.176Zm106.836-44.35q0-7.019-7.617-8.092-4.59-.693-5.762-1.73a3.349,3.349,0,0,1-1.172-2.62q0-3.658,5.585-3.658a33.758,33.758,0,0,1,5.927,1.025,42.544,42.544,0,0,0,9.553,1.025,19.012,19.012,0,0,0,3.429-.391,20.213,20.213,0,0,1,2.547-.391q2.646,0,2.646,5.946,0,44.945.781,47.821t7.91,4.631q3.711.99,4.59,1.782a2.452,2.452,0,0,1,.879,1.881A2.991,2.991,0,0,1,275.727.082a7.31,7.31,0,0,1-4.165,1.089,46.939,46.939,0,0,1-5.29-.684A43.228,43.228,0,0,0,260.3-.2a18.514,18.514,0,0,0-4.507.684,18,18,0,0,1-3.528.684A3.29,3.29,0,0,1,249.32,0q-.784-1.17-1.028-5.752T248.047-23.4ZM215.918-16.211a9.98,9.98,0,0,0,3.636,7.91,12.877,12.877,0,0,0,8.679,3.125,15,15,0,0,0,7.322-2.49q4.218-2.49,6.158-2.49t1.939,2.39q0,2.786-7.259,6.985a32.185,32.185,0,0,1-16.418,4.2A18.909,18.909,0,0,1,207.553-.97q-5.31-4.388-6.139-9.75t-.829-40.17q0-4.68-9.57-6.825-4.2-.893-4.2-3.271a2.827,2.827,0,0,1,1.323-2.477,5.741,5.741,0,0,1,3.282-.892q.587,0,5.732.781a59.406,59.406,0,0,0,8.672.781,14.808,14.808,0,0,0,3.773-.732,16.686,16.686,0,0,1,3.086-.732q3.233,0,3.233,13.281Zm130.371,3.027a7.363,7.363,0,0,0,1.367,4.492q1.367,1.855,6.055,2.637t5.713,1.969a4.382,4.382,0,0,1,1.025,2.969q0,3.168-4.8,3.168a75.6,75.6,0,0,1-8.71-.732,75.6,75.6,0,0,0-8.71-.732,63.554,63.554,0,0,0-8.025.732,63.554,63.554,0,0,1-8.025.732q-3.915,0-5.041-.891a2.98,2.98,0,0,1-1.125-2.475,3.982,3.982,0,0,1,.928-2.673q.928-1.089,5.859-1.821t6.445-3.22a10.951,10.951,0,0,0,1.514-5.806v-105.29a11.373,11.373,0,0,0-1.562-6q-1.562-2.586-6.445-3.757t-5.811-2.359a4.233,4.233,0,0,1-.928-2.674,2.669,2.669,0,0,1,1.617-2.376,6.908,6.908,0,0,1,3.381-.891,27.341,27.341,0,0,1,4.653.586,27.246,27.246,0,0,0,4.556.586,31.713,31.713,0,0,0,5-.586,31.711,31.711,0,0,1,5-.586,5.845,5.845,0,0,1,4.605,1.66q1.469,1.66,1.469,5.957Zm65.625-57.031a40.343,40.343,0,0,1,28.271,11.133Q452.246-47.949,452.246-33.4q0,16.309-11.523,26.563T409.863,3.418q-15.234,0-27.393-10.449T370.313-33.008q0-14.844,10.693-26.025T411.914-70.215Zm.1,65.039q11.23,0,17.92-8.105t6.689-20.508q0-12.207-7.178-20.02a23.655,23.655,0,0,0-18.213-7.812q-11.328,0-17.578,7.666T387.4-34.18q0,13.379,6.934,21.191A22.584,22.584,0,0,0,412.012-5.176ZM524.248-26.4l.294.391a39.862,39.862,0,0,1,15.673,13.289,31.751,31.751,0,0,1,5.976,18.468q0,15.047-13.477,24.671t-31.738,9.624q-18.75,0-31.885-9.917T455.957,4.179a28.725,28.725,0,0,1,6.171-17.587,38.405,38.405,0,0,1,16.164-12.41l.587-.684-.786-.975a21.961,21.961,0,0,1-7.716-7.953,21.442,21.442,0,0,1-2.8-10.782q0-9.465,8.259-15.661T496.8-69.629a2.737,2.737,0,0,0,2.245-1.555,42.3,42.3,0,0,1,6.88-10.252q4.831-5.587,8.735-6.7t13.369-1.118q5.563,0,5.563,5.719a6.558,6.558,0,0,1-2.739,5.478,11.306,11.306,0,0,1-7.042,2.084,12.915,12.915,0,0,1-2.445-.293,12.916,12.916,0,0,0-2.445-.293,12.26,12.26,0,0,0-8.021,2.637q-3.226,2.637-3.226,3.516,0,.977,1.27.977,11.737,1.463,18.681,8.1A22.107,22.107,0,0,1,534.57-44.65q0,10.635-9.634,17.368Zm-22.491-1.854a17.649,17.649,0,0,0,12.872-5.219,16.975,16.975,0,0,0,5.294-12.536,14.178,14.178,0,0,0-2.526-7.853,15.781,15.781,0,0,0-6.557-5.756q-4.031-1.9-5.391-1.9-.681,0-.874.879-1.166,4.492-4.955,4.492-3.4,0-3.4-3.809,0-1.074-.874-1.074a12.215,12.215,0,0,0-4.614,1.707,14.082,14.082,0,0,0-5.537,5.658,17.325,17.325,0,0,0-2.283,8.829,14.837,14.837,0,0,0,5.731,11.755A19.778,19.778,0,0,0,501.756-28.258Zm-.974,60q12.653,0,21.267-7.317T530.664,5.3q0-11.9-8.42-18.925t-21.268-7.024q-14.015,0-21.754,7.072T471.484,5.692a22.822,22.822,0,0,0,9.149,18.877A31.922,31.922,0,0,0,500.783,31.738ZM576.32-99.707a10.56,10.56,0,0,1,7.728,3.256,10.556,10.556,0,0,1,3.257,7.727,8.6,8.6,0,0,1-3.208,6.754,11.228,11.228,0,0,1-7.583,2.77,10.451,10.451,0,0,1-7.534-3.062A9.859,9.859,0,0,1,565.82-89.6a9.493,9.493,0,0,1,3.159-7.095A10.31,10.31,0,0,1,576.32-99.707Zm7.957,84.766q0,4.785,1.758,6.25a9.333,9.333,0,0,0,4.688,1.9,11.123,11.123,0,0,1,4.15,1.231q1.221.792,1.221,3.265,0,3.267-5.678,3.267a67.736,67.736,0,0,1-7.343-.586A67.572,67.572,0,0,0,575.829-.2a43.584,43.584,0,0,0-6.853.781,43.439,43.439,0,0,1-6.755.781A6.019,6.019,0,0,1,558.353.082a4.093,4.093,0,0,1-1.615-3.362,3.147,3.147,0,0,1,.879-2.225q.879-.939,4.492-1.524t5.029-2.339q1.416-1.754,1.416-8.48V-50.8q0-4.192-1.758-5.556a12.428,12.428,0,0,0-5.176-2.047q-3.418-.682-4.248-1.77a4.273,4.273,0,0,1-.83-2.67,3.572,3.572,0,0,1,1.421-2.917,5.244,5.244,0,0,1,3.381-1.138,22.287,22.287,0,0,1,4.753.732,22.105,22.105,0,0,0,4.558.732,36.468,36.468,0,0,0,5.095-.537,36.47,36.47,0,0,1,5.1-.537q3.625,0,3.625,6.055,0,.977-.1,2.588t-.1,2.2Zm95.117,1.758q0,4.2,1.416,5.518a11.317,11.317,0,0,0,5.078,2.148q3.662.83,3.662,3.117,0,3.084-3.622,3.084-.685,0-5.875-.342T671.339,0a56.289,56.289,0,0,0-9.888.732,38.637,38.637,0,0,1-5.19.732,5.218,5.218,0,0,1-3.28-1.187,3.54,3.54,0,0,1-1.517-2.869,3.265,3.265,0,0,1,1.27-2.424,4.259,4.259,0,0,1,2.93-1.138,9.129,9.129,0,0,0,5.566-1.8,6.291,6.291,0,0,0,2.441-5.41q0-23.489.293-29.094t.293-6.287q0-7.6-6.982-7.6-3,0-8.577,4.59t-7.9,4.59a2.657,2.657,0,0,1-1.744-.991,2.967,2.967,0,0,1-.969-2.082q0-3.47,8.963-10.5t17.537-7.031a14.917,14.917,0,0,1,8.768,2.588,12.292,12.292,0,0,1,4.92,6.494,38.86,38.86,0,0,1,1.218,11.035l-.1,6.25ZM619.531-50.7a8.664,8.664,0,0,0-1.416-5.409q-1.416-1.8-5.908-2.583t-4.492-4.047a3.694,3.694,0,0,1,1.568-2.721A6.128,6.128,0,0,1,613.4-66.8a18.23,18.23,0,0,1,3.774.684,18.861,18.861,0,0,0,4.459.684,45.037,45.037,0,0,0,4.95-.586,46.238,46.238,0,0,1,4.851-.586,2.8,2.8,0,0,1,2.744,1.611q.784,1.611.881,6.494.2,8.105.2,17.285l-.586,27.832q0,3.027.488,3.711a8.149,8.149,0,0,0,2.295,1.758,15.074,15.074,0,0,0,4.639,1.66q2.832.586,3.613,1.627a3.932,3.932,0,0,1,.781,2.428q0,3.27-5.09,3.27a43.044,43.044,0,0,1-7.245-.635A43.6,43.6,0,0,0,626.807-.2a68.871,68.871,0,0,0-7.587.537,66.509,66.509,0,0,1-6.9.537q-4.993,0-4.993-3.662a3.728,3.728,0,0,1,.879-2.572q.879-.99,3.809-1.188,3.32-.2,4.1-.975a11.885,11.885,0,0,0,2.832-4.094,27.872,27.872,0,0,0,.586-7.213Z" transform="translate(2082 151)"/>
</svg>
