<svg xmlns="http://www.w3.org/2000/svg" viewBox="0 0 906.23 480"><defs><style>.cls-1{fill:#36c2d6;}.cls-2{fill:#00acc1;}.cls-3{fill:#38c2d6;}</style></defs><title>Asset 3</title><g id="Layer_2" data-name="Layer 2"><g id="Layer_1-2" data-name="Layer 1"><path class="cls-1" d="M263.17,480a131.58,131.58,0,0,1-51.25-98.11l-.08-215.6,0-.67a80.28,80.28,0,0,0-160.47,3.79V328.72h56.44V169.4a23.84,23.84,0,0,1,40.67-16.89,24.79,24.79,0,0,1,4.94,7.15c1.93,4.32,1.44,2.25,2,7.29l.07.65q0,106.23,0,212.45H0V169.42a131.61,131.61,0,0,1,263.08-6.24l.09,1.83V480"/><path class="cls-2" d="M107.77,220.66V169.4a23.84,23.84,0,0,1,40.67-16.89,24.79,24.79,0,0,1,4.94,7.15c1.93,4.32,1.44,2.25,2,7.29l.07.65q0,106.23,0,212.45h0V219l-.07-.65c-.51-5,0-3-2-7.29a24.79,24.79,0,0,0-4.94-7.15A23.76,23.76,0,0,0,131.59,197a24.08,24.08,0,0,0-9.21,1.85,23.81,23.81,0,0,0-14.61,21.83M137.06,89.31c-1.81-.12-3.62-.18-5.44-.18s-3.63.07-5.44.19A131.57,131.57,0,0,0,0,220V169.42a131.61,131.61,0,0,1,263.08-6.24l.09,1.83v51.41l-.09-1.83a131.58,131.58,0,0,0-126-125.28ZM51.33,328.72h56.44v51.33H51.33Z"/><path class="cls-2" d="M365.89,480a131.6,131.6,0,0,1-50.47-88.72V163.73l-.15-3.07A184,184,0,0,0,208.77,2.5a131.61,131.61,0,0,1,157,122.88l.09,1.84V480"/><path class="cls-2" d="M472.34,202.68V168.62L446.12,128a85.55,85.55,0,0,1-4.87-8.57,13.1,13.1,0,0,1-1.43-5.35,8.53,8.53,0,0,1,2.9-6.44,10,10,0,0,1,7.14-2.71q4.45,0,6.77,2.53a74.46,74.46,0,0,1,6.92,10.07l20.07,32.59,20.29-32.59c1.22-2,2.24-3.69,3.08-5.06a31,31,0,0,1,2.74-3.84,11,11,0,0,1,3.33-2.75,9.65,9.65,0,0,1,4.47-.95,9.43,9.43,0,0,1,6.85,2.67,8.42,8.42,0,0,1,2.75,6.19,13,13,0,0,1-1.39,5.71,72.79,72.79,0,0,1-4.77,7.91l-26.88,41.24v34.06q0,6.66-3.07,10a11,11,0,0,1-15.68,0Q472.34,209.41,472.34,202.68Z"/><path class="cls-2" d="M587.41,104.9q16.7,0,28.67,6.77a44,44,0,0,1,18.13,19.27q6.15,12.48,6.15,29.33A71.6,71.6,0,0,1,637,182.9a49,49,0,0,1-10.11,17.65A44.21,44.21,0,0,1,610.33,212a65.32,65.32,0,0,1-45-.11,44.67,44.67,0,0,1-16.63-11.46,49,49,0,0,1-10.07-17.8,71.86,71.86,0,0,1-3.41-22.49,69.32,69.32,0,0,1,3.56-22.7A48.41,48.41,0,0,1,549,119.84a44.64,44.64,0,0,1,16.4-11.1A59.17,59.17,0,0,1,587.41,104.9Zm30.9,55.22q0-11.79-3.81-20.43a28.36,28.36,0,0,0-10.87-13.07,29.87,29.87,0,0,0-16.22-4.44,29.28,29.28,0,0,0-12,2.46,26.53,26.53,0,0,0-9.52,7.14,33.85,33.85,0,0,0-6.3,12,54.09,54.09,0,0,0-2.31,16.37,55.42,55.42,0,0,0,2.31,16.56,33.7,33.7,0,0,0,6.52,12.26,27.23,27.23,0,0,0,9.66,7.29A30.5,30.5,0,0,0,603,194.47q7-4.17,11.13-12.89T618.31,160.12Z"/><path class="cls-2" d="M659.11,169.72V118.08q0-6.58,3-9.88a10,10,0,0,1,7.79-3.3,10.27,10.27,0,0,1,8,3.3q3,3.28,3,9.88v52.81a47.93,47.93,0,0,0,2,15.05,17.35,17.35,0,0,0,7.14,9.38q5.12,3.33,14.35,3.33,12.75,0,18-6.78t5.27-20.54V118.08q0-6.66,2.93-9.92a10,10,0,0,1,7.84-3.26,10.39,10.39,0,0,1,8,3.26q3,3.25,3,9.92v51.64q0,12.6-2.46,21a32.32,32.32,0,0,1-9.26,14.79,35.79,35.79,0,0,1-13.63,7.91,59.58,59.58,0,0,1-18.16,2.49,74.92,74.92,0,0,1-21.31-2.67A34.13,34.13,0,0,1,670,205a33.29,33.29,0,0,1-8.27-14.36A72.93,72.93,0,0,1,659.11,169.72Z"/><path class="cls-3" d="M469.7,298.08v78.15h44.1q5.26,0,8.09,2.57a8.33,8.33,0,0,1,2.82,6.44,8.16,8.16,0,0,1-2.78,6.41c-1.86,1.64-4.57,2.45-8.13,2.45H461.28q-7.09,0-10.22-3.15T448,380.77V298.08q0-6.58,3-9.88a10,10,0,0,1,7.8-3.3,10.39,10.39,0,0,1,7.95,3.26Q469.7,291.41,469.7,298.08Z"/><path class="cls-3" d="M578.76,284.9q16.71,0,28.68,6.77a43.92,43.92,0,0,1,18.12,19.27q6.15,12.48,6.16,29.33a71.88,71.88,0,0,1-3.37,22.63,49,49,0,0,1-10.11,17.65A44.21,44.21,0,0,1,601.69,392a65.35,65.35,0,0,1-45.05-.11A44.72,44.72,0,0,1,540,380.41,48.88,48.88,0,0,1,530,362.61a71.86,71.86,0,0,1-3.41-22.49,69.33,69.33,0,0,1,3.55-22.7,48.7,48.7,0,0,1,10.29-17.58,44.68,44.68,0,0,1,16.41-11.1A59.16,59.16,0,0,1,578.76,284.9Zm30.91,55.22q0-11.79-3.81-20.43A28.42,28.42,0,0,0,595,306.62a29.88,29.88,0,0,0-16.23-4.44,29.34,29.34,0,0,0-12,2.46,26.62,26.62,0,0,0-9.52,7.14,34.18,34.18,0,0,0-6.3,12,54.41,54.41,0,0,0-2.3,16.37,55.75,55.75,0,0,0,2.3,16.56,33.85,33.85,0,0,0,6.52,12.26,27.35,27.35,0,0,0,9.67,7.29,30.5,30.5,0,0,0,27.32-1.76q7-4.17,11.13-12.89T609.67,340.12Z"/><path class="cls-3" d="M748.39,350.45V371a21.55,21.55,0,0,1-.81,6.56,10.35,10.35,0,0,1-3,4.43,28,28,0,0,1-5.53,3.81,87.43,87.43,0,0,1-18.75,7.69,75.68,75.68,0,0,1-19.63,2.41,64.18,64.18,0,0,1-22.56-3.8,47.53,47.53,0,0,1-17.36-11.06,48.94,48.94,0,0,1-11-17.58,65.83,65.83,0,0,1-3.85-23.07,67.46,67.46,0,0,1,3.74-22.93,47,47,0,0,1,11-17.65,48.27,48.27,0,0,1,17.65-11.1,67.73,67.73,0,0,1,23.58-3.84,58.48,58.48,0,0,1,19.19,2.89,42.24,42.24,0,0,1,13.55,7.29,32.51,32.51,0,0,1,7.84,9.3,18.85,18.85,0,0,1,2.63,8.72,9.32,9.32,0,0,1-3,7,10.21,10.21,0,0,1-7.29,2.9,9.85,9.85,0,0,1-4.51-1.1,10.23,10.23,0,0,1-3.62-3.08,88,88,0,0,0-6.81-9.52,21.94,21.94,0,0,0-7.51-5.42,28.58,28.58,0,0,0-12.05-2.2,33.35,33.35,0,0,0-13.48,2.6,27.94,27.94,0,0,0-10.14,7.55,33.9,33.9,0,0,0-6.45,12.12A53.25,53.25,0,0,0,668,339.83q0,18.9,8.68,29.08t24.21,10.18a49.32,49.32,0,0,0,14.17-2,71.93,71.93,0,0,0,13.44-5.64V354H711.62q-6.07,0-9.19-1.83T699.32,346a7.61,7.61,0,0,1,2.6-5.93,10.17,10.17,0,0,1,7.07-2.34h24.68a31.85,31.85,0,0,1,7.69.8,8.7,8.7,0,0,1,5.09,3.59Q748.39,344.89,748.39,350.45Z"/><path class="cls-3" d="M770,382.68v-84.6q0-6.58,3-9.88a10,10,0,0,1,7.76-3.3,10.39,10.39,0,0,1,8,3.26q3,3.25,3,9.92v84.6q0,6.66-3,10a10.31,10.31,0,0,1-8,3.29A10,10,0,0,1,773,392.6Q770,389.27,770,382.68Z"/><path class="cls-3" d="M844.41,297.94l41.82,63.28V297.35q0-6.23,2.68-9.34a9,9,0,0,1,7.21-3.11,9.32,9.32,0,0,1,7.4,3.11q2.7,3.12,2.71,9.34V381.8q0,14.13-11.72,14.13a15.54,15.54,0,0,1-5.27-.84,13.34,13.34,0,0,1-4.4-2.67,25.68,25.68,0,0,1-3.81-4.29q-1.75-2.44-3.51-5l-40.8-62.55v62.91q0,6.16-2.85,9.31a9.49,9.49,0,0,1-7.33,3.14,9.35,9.35,0,0,1-7.4-3.18c-1.85-2.13-2.78-5.21-2.78-9.27V300.65a23.48,23.48,0,0,1,1.17-8.28,11.8,11.8,0,0,1,4.62-5.38,12.53,12.53,0,0,1,7-2.09,11.35,11.35,0,0,1,8.68,3.52,26.23,26.23,0,0,1,3.23,4.17C842.1,294.3,843.24,296.08,844.41,297.94Z"/></g></g></svg>